G04 #@! TF.GenerationSoftware,KiCad,Pcbnew,(5.1.5)-3*
G04 #@! TF.CreationDate,2020-06-01T21:13:48+02:00*
G04 #@! TF.ProjectId,CDEHbridgev0.11,43444548-6272-4696-9467-6576302e3131,rev?*
G04 #@! TF.SameCoordinates,Original*
G04 #@! TF.FileFunction,Copper,L1,Top*
G04 #@! TF.FilePolarity,Positive*
%FSLAX46Y46*%
G04 Gerber Fmt 4.6, Leading zero omitted, Abs format (unit mm)*
G04 Created by KiCad (PCBNEW (5.1.5)-3) date 2020-06-01 21:13:48*
%MOMM*%
%LPD*%
G04 APERTURE LIST*
%ADD10O,1.600000X1.600000*%
%ADD11C,1.600000*%
%ADD12R,1.600000X1.600000*%
%ADD13R,1.400000X1.400000*%
%ADD14C,2.000000*%
%ADD15R,2.000000X2.000000*%
%ADD16R,2.200000X2.200000*%
%ADD17O,2.200000X2.200000*%
%ADD18C,1.300000*%
%ADD19R,1.300000X1.300000*%
%ADD20C,0.800000*%
%ADD21C,0.500000*%
%ADD22C,0.254000*%
G04 APERTURE END LIST*
D10*
X74549000Y-123698000D03*
D11*
X66929000Y-123698000D03*
X60706000Y-106045000D03*
X60706000Y-103545000D03*
D12*
X49530000Y-103632000D03*
D10*
X57150000Y-111252000D03*
X49530000Y-106172000D03*
X57150000Y-108712000D03*
X49530000Y-108712000D03*
X57150000Y-106172000D03*
X49530000Y-111252000D03*
X57150000Y-103632000D03*
D12*
X45974000Y-111760000D03*
D10*
X38354000Y-111760000D03*
D13*
X31877000Y-107696000D03*
D14*
X31877000Y-111506000D03*
X31877000Y-115316000D03*
X31877000Y-119126000D03*
X31877000Y-122936000D03*
X81280000Y-107696000D03*
X81280000Y-111506000D03*
X81280000Y-115316000D03*
X81280000Y-119126000D03*
D15*
X81280000Y-122936000D03*
D14*
X81280000Y-119126000D03*
D12*
X62992000Y-124714000D03*
D11*
X62992000Y-122714000D03*
X48768000Y-124166000D03*
X48768000Y-121666000D03*
X57150000Y-121666000D03*
X57150000Y-124166000D03*
D10*
X38354000Y-116840000D03*
D12*
X45974000Y-116840000D03*
D16*
X45974000Y-121666000D03*
D17*
X38354000Y-121666000D03*
D11*
X45974000Y-107188000D03*
D10*
X38354000Y-107188000D03*
D11*
X61087000Y-109728000D03*
D10*
X61087000Y-117348000D03*
D12*
X57150000Y-117348000D03*
D10*
X49530000Y-114808000D03*
X57150000Y-114808000D03*
X49530000Y-117348000D03*
D12*
X72644000Y-118745000D03*
D10*
X65024000Y-103505000D03*
X72644000Y-116205000D03*
X65024000Y-106045000D03*
X72644000Y-113665000D03*
X65024000Y-108585000D03*
X72644000Y-111125000D03*
X65024000Y-111125000D03*
X72644000Y-108585000D03*
X65024000Y-113665000D03*
X72644000Y-106045000D03*
X65024000Y-116205000D03*
X72644000Y-103505000D03*
X65024000Y-118745000D03*
D18*
X52832000Y-122936000D03*
X51562000Y-121666000D03*
D19*
X54102000Y-121666000D03*
D20*
X34500000Y-123300000D03*
X45700000Y-124400000D03*
X51350000Y-124700000D03*
X54734000Y-124166000D03*
X58700000Y-119950000D03*
X63150000Y-120450000D03*
X59550000Y-114650000D03*
X59200000Y-112900000D03*
X83100000Y-109400000D03*
X83200000Y-106100000D03*
X34550000Y-103150000D03*
X52800000Y-102650000D03*
D21*
X54102000Y-121666000D02*
X57150000Y-121666000D01*
X57150000Y-103632000D02*
X57150000Y-106172000D01*
X60579000Y-106172000D02*
X60706000Y-106045000D01*
X57150000Y-106172000D02*
X60579000Y-106172000D01*
X55372000Y-119888000D02*
X57150000Y-121666000D01*
X55372000Y-106818630D02*
X55372000Y-119888000D01*
X56018630Y-106172000D02*
X55372000Y-106818630D01*
X57150000Y-106172000D02*
X56018630Y-106172000D01*
X60198000Y-124714000D02*
X62992000Y-124714000D01*
X57150000Y-121666000D02*
X60198000Y-124714000D01*
X65913000Y-124714000D02*
X66929000Y-123698000D01*
X62992000Y-124714000D02*
X65913000Y-124714000D01*
X66929000Y-120650000D02*
X65024000Y-118745000D01*
X66929000Y-123698000D02*
X66929000Y-120650000D01*
X72644000Y-118745000D02*
X65024000Y-118745000D01*
X78105000Y-126111000D02*
X81280000Y-122936000D01*
X72644000Y-118745000D02*
X72644000Y-124714000D01*
X74041000Y-126111000D02*
X78105000Y-126111000D01*
X72644000Y-124714000D02*
X74041000Y-126111000D01*
X52832000Y-123855238D02*
X53182762Y-124206000D01*
X52832000Y-122936000D02*
X52832000Y-123855238D01*
X53222762Y-124166000D02*
X54734000Y-124166000D01*
X53182762Y-124206000D02*
X53222762Y-124166000D01*
X54734000Y-124166000D02*
X57150000Y-124166000D01*
X38354000Y-121666000D02*
X38100000Y-121666000D01*
X38100000Y-121666000D02*
X37338000Y-120904000D01*
X33655000Y-120904000D02*
X31877000Y-119126000D01*
X37338000Y-120904000D02*
X33655000Y-120904000D01*
X45974000Y-107188000D02*
X45974000Y-111760000D01*
X46990000Y-106172000D02*
X45974000Y-107188000D01*
X49530000Y-106172000D02*
X46990000Y-106172000D01*
X31877000Y-111506000D02*
X33147000Y-112776000D01*
X37338000Y-112776000D02*
X38354000Y-111760000D01*
X33147000Y-112776000D02*
X37338000Y-112776000D01*
X39000630Y-113538000D02*
X44704000Y-113538000D01*
X38354000Y-111760000D02*
X38354000Y-112891370D01*
X44704000Y-113538000D02*
X45974000Y-114808000D01*
X38354000Y-112891370D02*
X39000630Y-113538000D01*
X49530000Y-108712000D02*
X48279999Y-109962001D01*
X45974000Y-114808000D02*
X45974000Y-115062000D01*
X48279999Y-112756001D02*
X45974000Y-115062000D01*
X48279999Y-109962001D02*
X48279999Y-112756001D01*
X45974000Y-115062000D02*
X45974000Y-116840000D01*
X39604001Y-118090001D02*
X39153999Y-117639999D01*
X47134001Y-118090001D02*
X39604001Y-118090001D01*
X47224001Y-116859999D02*
X47224001Y-118000001D01*
X48476001Y-115607999D02*
X47224001Y-116859999D01*
X47224001Y-118000001D02*
X47134001Y-118090001D01*
X48730001Y-115607999D02*
X48476001Y-115607999D01*
X39153999Y-117639999D02*
X38354000Y-116840000D01*
X49530000Y-114808000D02*
X48730001Y-115607999D01*
X31877000Y-115824000D02*
X31750000Y-115951000D01*
X47423954Y-118790011D02*
X38018011Y-118790011D01*
X49530000Y-117348000D02*
X48865965Y-117348000D01*
X48865965Y-117348000D02*
X47423954Y-118790011D01*
X38018011Y-118790011D02*
X36322000Y-117094000D01*
X36322000Y-117094000D02*
X33528000Y-117094000D01*
X33528000Y-116967000D02*
X31877000Y-115316000D01*
X33528000Y-117094000D02*
X33528000Y-116967000D01*
X38354000Y-108204000D02*
X38354000Y-107188000D01*
X37846000Y-108712000D02*
X38354000Y-108204000D01*
X31877000Y-107696000D02*
X33077000Y-107696000D01*
X34093000Y-108712000D02*
X37846000Y-108712000D01*
X33077000Y-107696000D02*
X34093000Y-108712000D01*
X73775370Y-113665000D02*
X72644000Y-113665000D01*
X77724000Y-113665000D02*
X73775370Y-113665000D01*
X81280000Y-119126000D02*
X78740000Y-116586000D01*
X78740000Y-114681000D02*
X77724000Y-113665000D01*
X78740000Y-116586000D02*
X78740000Y-114681000D01*
X65024000Y-103505000D02*
X66274001Y-102254999D01*
X66274001Y-102254999D02*
X76092999Y-102254999D01*
X76092999Y-102254999D02*
X79129989Y-105291989D01*
X79129989Y-113165989D02*
X81280000Y-115316000D01*
X79129989Y-105291989D02*
X79129989Y-113165989D01*
X80280001Y-110506001D02*
X81280000Y-111506000D01*
X79829999Y-110055999D02*
X80280001Y-110506001D01*
X65124009Y-101554989D02*
X76382952Y-101554989D01*
X79829999Y-105002036D02*
X79829999Y-110055999D01*
X63773999Y-102904999D02*
X65124009Y-101554989D01*
X76382952Y-101554989D02*
X79829999Y-105002036D01*
X63773999Y-107041001D02*
X63773999Y-102904999D01*
X61087000Y-109728000D02*
X63773999Y-107041001D01*
X57150000Y-117348000D02*
X61087000Y-117348000D01*
X67310000Y-106045000D02*
X68961000Y-107696000D01*
X68961000Y-114681000D02*
X70485000Y-116205000D01*
X68961000Y-107696000D02*
X68961000Y-114681000D01*
X65024000Y-106045000D02*
X67310000Y-106045000D01*
X70485000Y-116205000D02*
X72644000Y-116205000D01*
X65024000Y-106780962D02*
X65024000Y-106045000D01*
X63119000Y-108685962D02*
X65024000Y-106780962D01*
X63119000Y-109546002D02*
X63119000Y-108685962D01*
X61687001Y-110978001D02*
X63119000Y-109546002D01*
X59416001Y-110978001D02*
X61687001Y-110978001D01*
X57150000Y-108712000D02*
X59416001Y-110978001D01*
X74549000Y-118110000D02*
X74549000Y-123698000D01*
X72644000Y-116205000D02*
X74549000Y-118110000D01*
X45974000Y-121666000D02*
X48768000Y-121666000D01*
X48768000Y-121666000D02*
X51562000Y-121666000D01*
D22*
G36*
X85470094Y-98625860D02*
G01*
X85922277Y-98762382D01*
X86339336Y-98984135D01*
X86705379Y-99282674D01*
X87006463Y-99646621D01*
X87231125Y-100062127D01*
X87370801Y-100513344D01*
X87423000Y-101009988D01*
X87423001Y-129971772D01*
X87374140Y-130470089D01*
X87237618Y-130922277D01*
X87015863Y-131339337D01*
X86717326Y-131705379D01*
X86353376Y-132006465D01*
X85937878Y-132231123D01*
X85486657Y-132370801D01*
X84990011Y-132423000D01*
X28028218Y-132423000D01*
X27529911Y-132374140D01*
X27077723Y-132237618D01*
X26660663Y-132015863D01*
X26294621Y-131717326D01*
X25993535Y-131353376D01*
X25768877Y-130937878D01*
X25629199Y-130486657D01*
X25577000Y-129990011D01*
X25577000Y-128790509D01*
X27873000Y-128790509D01*
X27873000Y-129209491D01*
X27954739Y-129620423D01*
X28115077Y-130007512D01*
X28347851Y-130355884D01*
X28644116Y-130652149D01*
X28992488Y-130884923D01*
X29379577Y-131045261D01*
X29790509Y-131127000D01*
X30209491Y-131127000D01*
X30620423Y-131045261D01*
X31007512Y-130884923D01*
X31355884Y-130652149D01*
X31652149Y-130355884D01*
X31884923Y-130007512D01*
X32045261Y-129620423D01*
X32127000Y-129209491D01*
X32127000Y-128790509D01*
X80873000Y-128790509D01*
X80873000Y-129209491D01*
X80954739Y-129620423D01*
X81115077Y-130007512D01*
X81347851Y-130355884D01*
X81644116Y-130652149D01*
X81992488Y-130884923D01*
X82379577Y-131045261D01*
X82790509Y-131127000D01*
X83209491Y-131127000D01*
X83620423Y-131045261D01*
X84007512Y-130884923D01*
X84355884Y-130652149D01*
X84652149Y-130355884D01*
X84884923Y-130007512D01*
X85045261Y-129620423D01*
X85127000Y-129209491D01*
X85127000Y-128790509D01*
X85045261Y-128379577D01*
X84884923Y-127992488D01*
X84652149Y-127644116D01*
X84355884Y-127347851D01*
X84007512Y-127115077D01*
X83620423Y-126954739D01*
X83209491Y-126873000D01*
X82790509Y-126873000D01*
X82379577Y-126954739D01*
X81992488Y-127115077D01*
X81644116Y-127347851D01*
X81347851Y-127644116D01*
X81115077Y-127992488D01*
X80954739Y-128379577D01*
X80873000Y-128790509D01*
X32127000Y-128790509D01*
X32045261Y-128379577D01*
X31884923Y-127992488D01*
X31652149Y-127644116D01*
X31355884Y-127347851D01*
X31007512Y-127115077D01*
X30620423Y-126954739D01*
X30209491Y-126873000D01*
X29790509Y-126873000D01*
X29379577Y-126954739D01*
X28992488Y-127115077D01*
X28644116Y-127347851D01*
X28347851Y-127644116D01*
X28115077Y-127992488D01*
X27954739Y-128379577D01*
X27873000Y-128790509D01*
X25577000Y-128790509D01*
X25577000Y-125158702D01*
X47954903Y-125158702D01*
X48026486Y-125402671D01*
X48281996Y-125523571D01*
X48556184Y-125592300D01*
X48838512Y-125606217D01*
X49118130Y-125564787D01*
X49384292Y-125469603D01*
X49509514Y-125402671D01*
X49581097Y-125158702D01*
X56336903Y-125158702D01*
X56408486Y-125402671D01*
X56663996Y-125523571D01*
X56938184Y-125592300D01*
X57220512Y-125606217D01*
X57500130Y-125564787D01*
X57766292Y-125469603D01*
X57891514Y-125402671D01*
X57963097Y-125158702D01*
X57150000Y-124345605D01*
X56336903Y-125158702D01*
X49581097Y-125158702D01*
X48768000Y-124345605D01*
X47954903Y-125158702D01*
X25577000Y-125158702D01*
X25577000Y-124071413D01*
X30921192Y-124071413D01*
X31016956Y-124335814D01*
X31306571Y-124476704D01*
X31618108Y-124558384D01*
X31939595Y-124577718D01*
X32258675Y-124533961D01*
X32563088Y-124428795D01*
X32737044Y-124335814D01*
X32773010Y-124236512D01*
X47327783Y-124236512D01*
X47369213Y-124516130D01*
X47464397Y-124782292D01*
X47531329Y-124907514D01*
X47775298Y-124979097D01*
X48588395Y-124166000D01*
X48947605Y-124166000D01*
X49760702Y-124979097D01*
X50004671Y-124907514D01*
X50125571Y-124652004D01*
X50194300Y-124377816D01*
X50201265Y-124236512D01*
X55709783Y-124236512D01*
X55751213Y-124516130D01*
X55846397Y-124782292D01*
X55913329Y-124907514D01*
X56157298Y-124979097D01*
X56970395Y-124166000D01*
X56157298Y-123352903D01*
X55913329Y-123424486D01*
X55792429Y-123679996D01*
X55723700Y-123954184D01*
X55709783Y-124236512D01*
X50201265Y-124236512D01*
X50208217Y-124095488D01*
X50167626Y-123821527D01*
X52126078Y-123821527D01*
X52179466Y-124050201D01*
X52409374Y-124156095D01*
X52655524Y-124215102D01*
X52908455Y-124224952D01*
X53158449Y-124185270D01*
X53395896Y-124097578D01*
X53484534Y-124050201D01*
X53537922Y-123821527D01*
X52832000Y-123115605D01*
X52126078Y-123821527D01*
X50167626Y-123821527D01*
X50166787Y-123815870D01*
X50071603Y-123549708D01*
X50004671Y-123424486D01*
X49760702Y-123352903D01*
X48947605Y-124166000D01*
X48588395Y-124166000D01*
X47775298Y-123352903D01*
X47531329Y-123424486D01*
X47410429Y-123679996D01*
X47341700Y-123954184D01*
X47327783Y-124236512D01*
X32773010Y-124236512D01*
X32832808Y-124071413D01*
X31877000Y-123115605D01*
X30921192Y-124071413D01*
X25577000Y-124071413D01*
X25577000Y-122998595D01*
X30235282Y-122998595D01*
X30279039Y-123317675D01*
X30384205Y-123622088D01*
X30477186Y-123796044D01*
X30741587Y-123891808D01*
X31697395Y-122936000D01*
X32056605Y-122936000D01*
X33012413Y-123891808D01*
X33276814Y-123796044D01*
X33417704Y-123506429D01*
X33499384Y-123194892D01*
X33518718Y-122873405D01*
X33474961Y-122554325D01*
X33369795Y-122249912D01*
X33276814Y-122075956D01*
X33012413Y-121980192D01*
X32056605Y-122936000D01*
X31697395Y-122936000D01*
X30741587Y-121980192D01*
X30477186Y-122075956D01*
X30336296Y-122365571D01*
X30254616Y-122677108D01*
X30235282Y-122998595D01*
X25577000Y-122998595D01*
X25577000Y-121800587D01*
X30921192Y-121800587D01*
X31877000Y-122756395D01*
X32832808Y-121800587D01*
X32737044Y-121536186D01*
X32447429Y-121395296D01*
X32135892Y-121313616D01*
X31814405Y-121294282D01*
X31495325Y-121338039D01*
X31190912Y-121443205D01*
X31016956Y-121536186D01*
X30921192Y-121800587D01*
X25577000Y-121800587D01*
X25577000Y-118975604D01*
X30350000Y-118975604D01*
X30350000Y-119276396D01*
X30408681Y-119571410D01*
X30523790Y-119849306D01*
X30690901Y-120099406D01*
X30903594Y-120312099D01*
X31153694Y-120479210D01*
X31431590Y-120594319D01*
X31726604Y-120653000D01*
X32027396Y-120653000D01*
X32259074Y-120606917D01*
X33078590Y-121426434D01*
X33102920Y-121456080D01*
X33132564Y-121480408D01*
X33132565Y-121480409D01*
X33173109Y-121513682D01*
X33221234Y-121553177D01*
X33356216Y-121625327D01*
X33502681Y-121669757D01*
X33616834Y-121681000D01*
X33616836Y-121681000D01*
X33655000Y-121684759D01*
X33693163Y-121681000D01*
X36727000Y-121681000D01*
X36727000Y-121826245D01*
X36789525Y-122140578D01*
X36912172Y-122436673D01*
X37090227Y-122703152D01*
X37316848Y-122929773D01*
X37583327Y-123107828D01*
X37879422Y-123230475D01*
X38193755Y-123293000D01*
X38514245Y-123293000D01*
X38828578Y-123230475D01*
X39124673Y-123107828D01*
X39391152Y-122929773D01*
X39617773Y-122703152D01*
X39795828Y-122436673D01*
X39918475Y-122140578D01*
X39981000Y-121826245D01*
X39981000Y-121505755D01*
X39918475Y-121191422D01*
X39795828Y-120895327D01*
X39617773Y-120628848D01*
X39554925Y-120566000D01*
X44344451Y-120566000D01*
X44344451Y-122766000D01*
X44354626Y-122869310D01*
X44384761Y-122968650D01*
X44433696Y-123060202D01*
X44499552Y-123140448D01*
X44579798Y-123206304D01*
X44671350Y-123255239D01*
X44770690Y-123285374D01*
X44874000Y-123295549D01*
X47074000Y-123295549D01*
X47177310Y-123285374D01*
X47276650Y-123255239D01*
X47368202Y-123206304D01*
X47448448Y-123140448D01*
X47514304Y-123060202D01*
X47563239Y-122968650D01*
X47593374Y-122869310D01*
X47603549Y-122766000D01*
X47603549Y-122443000D01*
X47691206Y-122443000D01*
X47737252Y-122511913D01*
X47922087Y-122696748D01*
X48139430Y-122841972D01*
X48171582Y-122855290D01*
X48151708Y-122862397D01*
X48026486Y-122929329D01*
X47954903Y-123173298D01*
X48768000Y-123986395D01*
X49581097Y-123173298D01*
X49509514Y-122929329D01*
X49358351Y-122857803D01*
X49396570Y-122841972D01*
X49613913Y-122696748D01*
X49798748Y-122511913D01*
X49844794Y-122443000D01*
X50674470Y-122443000D01*
X50811706Y-122580236D01*
X51004481Y-122709044D01*
X51218682Y-122797769D01*
X51446076Y-122843000D01*
X51549647Y-122843000D01*
X51543048Y-123012455D01*
X51582730Y-123262449D01*
X51670422Y-123499896D01*
X51717799Y-123588534D01*
X51946473Y-123641922D01*
X52652395Y-122936000D01*
X52638253Y-122921858D01*
X52817858Y-122742253D01*
X52832000Y-122756395D01*
X52846143Y-122742253D01*
X53025748Y-122921858D01*
X53011605Y-122936000D01*
X53717527Y-123641922D01*
X53946201Y-123588534D01*
X54052095Y-123358626D01*
X54111102Y-123112476D01*
X54120952Y-122859545D01*
X54118730Y-122845549D01*
X54752000Y-122845549D01*
X54855310Y-122835374D01*
X54954650Y-122805239D01*
X55046202Y-122756304D01*
X55126448Y-122690448D01*
X55192304Y-122610202D01*
X55241239Y-122518650D01*
X55264188Y-122443000D01*
X56073206Y-122443000D01*
X56119252Y-122511913D01*
X56304087Y-122696748D01*
X56521430Y-122841972D01*
X56553582Y-122855290D01*
X56533708Y-122862397D01*
X56408486Y-122929329D01*
X56336903Y-123173298D01*
X57150000Y-123986395D01*
X57164143Y-123972253D01*
X57343748Y-124151858D01*
X57329605Y-124166000D01*
X58142702Y-124979097D01*
X58386671Y-124907514D01*
X58507571Y-124652004D01*
X58576300Y-124377816D01*
X58585069Y-124199913D01*
X59621590Y-125236434D01*
X59645920Y-125266080D01*
X59675564Y-125290408D01*
X59675565Y-125290409D01*
X59764233Y-125363177D01*
X59813804Y-125389673D01*
X59899216Y-125435327D01*
X60045681Y-125479757D01*
X60159834Y-125491000D01*
X60159836Y-125491000D01*
X60198000Y-125494759D01*
X60236163Y-125491000D01*
X61662451Y-125491000D01*
X61662451Y-125514000D01*
X61672626Y-125617310D01*
X61702761Y-125716650D01*
X61751696Y-125808202D01*
X61817552Y-125888448D01*
X61897798Y-125954304D01*
X61989350Y-126003239D01*
X62088690Y-126033374D01*
X62192000Y-126043549D01*
X63792000Y-126043549D01*
X63895310Y-126033374D01*
X63994650Y-126003239D01*
X64086202Y-125954304D01*
X64166448Y-125888448D01*
X64232304Y-125808202D01*
X64281239Y-125716650D01*
X64311374Y-125617310D01*
X64321549Y-125514000D01*
X64321549Y-125491000D01*
X65874837Y-125491000D01*
X65913000Y-125494759D01*
X65951163Y-125491000D01*
X65951166Y-125491000D01*
X66065319Y-125479757D01*
X66211784Y-125435327D01*
X66346766Y-125363177D01*
X66465080Y-125266080D01*
X66489412Y-125236431D01*
X66717013Y-125008831D01*
X66798302Y-125025000D01*
X67059698Y-125025000D01*
X67316072Y-124974004D01*
X67557570Y-124873972D01*
X67774913Y-124728748D01*
X67959748Y-124543913D01*
X68104972Y-124326570D01*
X68205004Y-124085072D01*
X68256000Y-123828698D01*
X68256000Y-123567302D01*
X68205004Y-123310928D01*
X68104972Y-123069430D01*
X67959748Y-122852087D01*
X67774913Y-122667252D01*
X67706000Y-122621206D01*
X67706000Y-120688163D01*
X67709759Y-120650000D01*
X67704275Y-120594319D01*
X67694757Y-120497681D01*
X67650327Y-120351216D01*
X67607877Y-120271798D01*
X67578177Y-120216233D01*
X67505409Y-120127565D01*
X67505408Y-120127564D01*
X67481080Y-120097920D01*
X67451436Y-120073592D01*
X66899844Y-119522000D01*
X71314451Y-119522000D01*
X71314451Y-119545000D01*
X71324626Y-119648310D01*
X71354761Y-119747650D01*
X71403696Y-119839202D01*
X71469552Y-119919448D01*
X71549798Y-119985304D01*
X71641350Y-120034239D01*
X71740690Y-120064374D01*
X71844000Y-120074549D01*
X71867000Y-120074549D01*
X71867001Y-124675827D01*
X71863241Y-124714000D01*
X71878244Y-124866318D01*
X71922673Y-125012783D01*
X71994823Y-125147766D01*
X72067591Y-125236434D01*
X72091921Y-125266080D01*
X72121565Y-125290408D01*
X73464592Y-126633436D01*
X73488920Y-126663080D01*
X73518564Y-126687408D01*
X73518565Y-126687409D01*
X73607233Y-126760177D01*
X73742216Y-126832327D01*
X73888681Y-126876757D01*
X74002834Y-126888000D01*
X74002843Y-126888000D01*
X74040999Y-126891758D01*
X74079155Y-126888000D01*
X78066837Y-126888000D01*
X78105000Y-126891759D01*
X78143163Y-126888000D01*
X78143166Y-126888000D01*
X78257319Y-126876757D01*
X78403784Y-126832327D01*
X78538766Y-126760177D01*
X78657080Y-126663080D01*
X78681413Y-126633430D01*
X80849295Y-124465549D01*
X82280000Y-124465549D01*
X82383310Y-124455374D01*
X82482650Y-124425239D01*
X82574202Y-124376304D01*
X82654448Y-124310448D01*
X82720304Y-124230202D01*
X82769239Y-124138650D01*
X82799374Y-124039310D01*
X82809549Y-123936000D01*
X82809549Y-121936000D01*
X82799374Y-121832690D01*
X82769239Y-121733350D01*
X82720304Y-121641798D01*
X82654448Y-121561552D01*
X82574202Y-121495696D01*
X82482650Y-121446761D01*
X82383310Y-121416626D01*
X82280000Y-121406451D01*
X80280000Y-121406451D01*
X80176690Y-121416626D01*
X80077350Y-121446761D01*
X79985798Y-121495696D01*
X79905552Y-121561552D01*
X79839696Y-121641798D01*
X79790761Y-121733350D01*
X79760626Y-121832690D01*
X79750451Y-121936000D01*
X79750451Y-123366705D01*
X77783157Y-125334000D01*
X74362844Y-125334000D01*
X73867346Y-124838502D01*
X73920430Y-124873972D01*
X74161928Y-124974004D01*
X74418302Y-125025000D01*
X74679698Y-125025000D01*
X74936072Y-124974004D01*
X75177570Y-124873972D01*
X75394913Y-124728748D01*
X75579748Y-124543913D01*
X75724972Y-124326570D01*
X75825004Y-124085072D01*
X75876000Y-123828698D01*
X75876000Y-123567302D01*
X75825004Y-123310928D01*
X75724972Y-123069430D01*
X75579748Y-122852087D01*
X75394913Y-122667252D01*
X75326000Y-122621206D01*
X75326000Y-118148163D01*
X75329759Y-118110000D01*
X75325753Y-118069327D01*
X75314757Y-117957681D01*
X75270327Y-117811216D01*
X75198178Y-117676235D01*
X75198177Y-117676233D01*
X75125409Y-117587565D01*
X75125408Y-117587564D01*
X75101080Y-117557920D01*
X75071437Y-117533593D01*
X73954831Y-116416987D01*
X73971000Y-116335698D01*
X73971000Y-116074302D01*
X73920004Y-115817928D01*
X73819972Y-115576430D01*
X73674748Y-115359087D01*
X73489913Y-115174252D01*
X73272570Y-115029028D01*
X73045567Y-114935000D01*
X73272570Y-114840972D01*
X73489913Y-114695748D01*
X73674748Y-114510913D01*
X73720794Y-114442000D01*
X77402157Y-114442000D01*
X77963001Y-115002845D01*
X77963000Y-116547836D01*
X77959241Y-116586000D01*
X77963000Y-116624163D01*
X77963000Y-116624165D01*
X77974243Y-116738318D01*
X78003138Y-116833570D01*
X78018673Y-116884783D01*
X78090823Y-117019766D01*
X78138203Y-117077499D01*
X78187920Y-117138080D01*
X78217569Y-117162413D01*
X79799083Y-118743926D01*
X79753000Y-118975604D01*
X79753000Y-119276396D01*
X79811681Y-119571410D01*
X79926790Y-119849306D01*
X80093901Y-120099406D01*
X80306594Y-120312099D01*
X80556694Y-120479210D01*
X80834590Y-120594319D01*
X81129604Y-120653000D01*
X81430396Y-120653000D01*
X81725410Y-120594319D01*
X82003306Y-120479210D01*
X82253406Y-120312099D01*
X82466099Y-120099406D01*
X82633210Y-119849306D01*
X82748319Y-119571410D01*
X82807000Y-119276396D01*
X82807000Y-118975604D01*
X82748319Y-118680590D01*
X82633210Y-118402694D01*
X82466099Y-118152594D01*
X82253406Y-117939901D01*
X82003306Y-117772790D01*
X81725410Y-117657681D01*
X81430396Y-117599000D01*
X81129604Y-117599000D01*
X80897926Y-117645083D01*
X79517000Y-116264157D01*
X79517000Y-114719163D01*
X79520759Y-114681000D01*
X79517984Y-114652828D01*
X79799083Y-114933926D01*
X79753000Y-115165604D01*
X79753000Y-115466396D01*
X79811681Y-115761410D01*
X79926790Y-116039306D01*
X80093901Y-116289406D01*
X80306594Y-116502099D01*
X80556694Y-116669210D01*
X80834590Y-116784319D01*
X81129604Y-116843000D01*
X81430396Y-116843000D01*
X81725410Y-116784319D01*
X82003306Y-116669210D01*
X82253406Y-116502099D01*
X82466099Y-116289406D01*
X82633210Y-116039306D01*
X82748319Y-115761410D01*
X82807000Y-115466396D01*
X82807000Y-115165604D01*
X82748319Y-114870590D01*
X82633210Y-114592694D01*
X82466099Y-114342594D01*
X82253406Y-114129901D01*
X82003306Y-113962790D01*
X81725410Y-113847681D01*
X81430396Y-113789000D01*
X81129604Y-113789000D01*
X80897926Y-113835083D01*
X79906989Y-112844146D01*
X79906989Y-112181502D01*
X79926790Y-112229306D01*
X80093901Y-112479406D01*
X80306594Y-112692099D01*
X80556694Y-112859210D01*
X80834590Y-112974319D01*
X81129604Y-113033000D01*
X81430396Y-113033000D01*
X81725410Y-112974319D01*
X82003306Y-112859210D01*
X82253406Y-112692099D01*
X82466099Y-112479406D01*
X82633210Y-112229306D01*
X82748319Y-111951410D01*
X82807000Y-111656396D01*
X82807000Y-111355604D01*
X82748319Y-111060590D01*
X82633210Y-110782694D01*
X82466099Y-110532594D01*
X82253406Y-110319901D01*
X82003306Y-110152790D01*
X81725410Y-110037681D01*
X81430396Y-109979000D01*
X81129604Y-109979000D01*
X80897926Y-110025083D01*
X80606999Y-109734156D01*
X80606999Y-109186805D01*
X80709571Y-109236704D01*
X81021108Y-109318384D01*
X81342595Y-109337718D01*
X81661675Y-109293961D01*
X81966088Y-109188795D01*
X82140044Y-109095814D01*
X82235808Y-108831413D01*
X81280000Y-107875605D01*
X81265858Y-107889748D01*
X81086253Y-107710143D01*
X81100395Y-107696000D01*
X81459605Y-107696000D01*
X82415413Y-108651808D01*
X82679814Y-108556044D01*
X82820704Y-108266429D01*
X82902384Y-107954892D01*
X82921718Y-107633405D01*
X82877961Y-107314325D01*
X82772795Y-107009912D01*
X82679814Y-106835956D01*
X82415413Y-106740192D01*
X81459605Y-107696000D01*
X81100395Y-107696000D01*
X81086253Y-107681858D01*
X81265858Y-107502253D01*
X81280000Y-107516395D01*
X82235808Y-106560587D01*
X82140044Y-106296186D01*
X81850429Y-106155296D01*
X81538892Y-106073616D01*
X81217405Y-106054282D01*
X80898325Y-106098039D01*
X80606999Y-106198684D01*
X80606999Y-105040199D01*
X80610758Y-105002036D01*
X80602800Y-104921239D01*
X80595756Y-104849717D01*
X80551326Y-104703252D01*
X80514657Y-104634650D01*
X80479177Y-104568270D01*
X80406408Y-104479601D01*
X80406407Y-104479600D01*
X80382079Y-104449956D01*
X80352436Y-104425629D01*
X77717316Y-101790509D01*
X81000000Y-101790509D01*
X81000000Y-102209491D01*
X81081739Y-102620423D01*
X81242077Y-103007512D01*
X81474851Y-103355884D01*
X81771116Y-103652149D01*
X82119488Y-103884923D01*
X82506577Y-104045261D01*
X82917509Y-104127000D01*
X83336491Y-104127000D01*
X83747423Y-104045261D01*
X84134512Y-103884923D01*
X84482884Y-103652149D01*
X84779149Y-103355884D01*
X85011923Y-103007512D01*
X85172261Y-102620423D01*
X85254000Y-102209491D01*
X85254000Y-101790509D01*
X85172261Y-101379577D01*
X85011923Y-100992488D01*
X84779149Y-100644116D01*
X84482884Y-100347851D01*
X84134512Y-100115077D01*
X83747423Y-99954739D01*
X83336491Y-99873000D01*
X82917509Y-99873000D01*
X82506577Y-99954739D01*
X82119488Y-100115077D01*
X81771116Y-100347851D01*
X81474851Y-100644116D01*
X81242077Y-100992488D01*
X81081739Y-101379577D01*
X81000000Y-101790509D01*
X77717316Y-101790509D01*
X76959365Y-101032559D01*
X76935032Y-101002909D01*
X76816718Y-100905812D01*
X76681736Y-100833662D01*
X76535271Y-100789232D01*
X76421118Y-100777989D01*
X76421115Y-100777989D01*
X76382952Y-100774230D01*
X76344789Y-100777989D01*
X65162164Y-100777989D01*
X65124008Y-100774231D01*
X65085852Y-100777989D01*
X65085843Y-100777989D01*
X64971690Y-100789232D01*
X64825225Y-100833662D01*
X64690242Y-100905812D01*
X64601574Y-100978580D01*
X64571929Y-101002909D01*
X64547601Y-101032553D01*
X63251564Y-102328591D01*
X63221920Y-102352919D01*
X63197592Y-102382563D01*
X63197590Y-102382565D01*
X63124822Y-102471233D01*
X63052672Y-102606216D01*
X63008243Y-102752681D01*
X62993240Y-102904999D01*
X62997000Y-102943172D01*
X62996999Y-106719157D01*
X61298987Y-108417169D01*
X61217698Y-108401000D01*
X60956302Y-108401000D01*
X60699928Y-108451996D01*
X60458430Y-108552028D01*
X60241087Y-108697252D01*
X60056252Y-108882087D01*
X59911028Y-109099430D01*
X59810996Y-109340928D01*
X59760000Y-109597302D01*
X59760000Y-109858698D01*
X59810996Y-110115072D01*
X59846589Y-110201001D01*
X59737845Y-110201001D01*
X58460831Y-108923987D01*
X58477000Y-108842698D01*
X58477000Y-108581302D01*
X58426004Y-108324928D01*
X58325972Y-108083430D01*
X58180748Y-107866087D01*
X57995913Y-107681252D01*
X57778570Y-107536028D01*
X57551567Y-107442000D01*
X57778570Y-107347972D01*
X57995913Y-107202748D01*
X58180748Y-107017913D01*
X58226794Y-106949000D01*
X59733339Y-106949000D01*
X59860087Y-107075748D01*
X60077430Y-107220972D01*
X60318928Y-107321004D01*
X60575302Y-107372000D01*
X60836698Y-107372000D01*
X61093072Y-107321004D01*
X61334570Y-107220972D01*
X61551913Y-107075748D01*
X61736748Y-106890913D01*
X61881972Y-106673570D01*
X61982004Y-106432072D01*
X62033000Y-106175698D01*
X62033000Y-105914302D01*
X61982004Y-105657928D01*
X61881972Y-105416430D01*
X61736748Y-105199087D01*
X61551913Y-105014252D01*
X61334570Y-104869028D01*
X61302418Y-104855710D01*
X61322292Y-104848603D01*
X61447514Y-104781671D01*
X61519097Y-104537702D01*
X60706000Y-103724605D01*
X59892903Y-104537702D01*
X59964486Y-104781671D01*
X60115649Y-104853197D01*
X60077430Y-104869028D01*
X59860087Y-105014252D01*
X59675252Y-105199087D01*
X59544347Y-105395000D01*
X58226794Y-105395000D01*
X58180748Y-105326087D01*
X57995913Y-105141252D01*
X57927000Y-105095206D01*
X57927000Y-104708794D01*
X57995913Y-104662748D01*
X58180748Y-104477913D01*
X58325972Y-104260570D01*
X58426004Y-104019072D01*
X58477000Y-103762698D01*
X58477000Y-103615512D01*
X59265783Y-103615512D01*
X59307213Y-103895130D01*
X59402397Y-104161292D01*
X59469329Y-104286514D01*
X59713298Y-104358097D01*
X60526395Y-103545000D01*
X60885605Y-103545000D01*
X61698702Y-104358097D01*
X61942671Y-104286514D01*
X62063571Y-104031004D01*
X62132300Y-103756816D01*
X62146217Y-103474488D01*
X62104787Y-103194870D01*
X62009603Y-102928708D01*
X61942671Y-102803486D01*
X61698702Y-102731903D01*
X60885605Y-103545000D01*
X60526395Y-103545000D01*
X59713298Y-102731903D01*
X59469329Y-102803486D01*
X59348429Y-103058996D01*
X59279700Y-103333184D01*
X59265783Y-103615512D01*
X58477000Y-103615512D01*
X58477000Y-103501302D01*
X58426004Y-103244928D01*
X58325972Y-103003430D01*
X58180748Y-102786087D01*
X57995913Y-102601252D01*
X57922649Y-102552298D01*
X59892903Y-102552298D01*
X60706000Y-103365395D01*
X61519097Y-102552298D01*
X61447514Y-102308329D01*
X61192004Y-102187429D01*
X60917816Y-102118700D01*
X60635488Y-102104783D01*
X60355870Y-102146213D01*
X60089708Y-102241397D01*
X59964486Y-102308329D01*
X59892903Y-102552298D01*
X57922649Y-102552298D01*
X57778570Y-102456028D01*
X57537072Y-102355996D01*
X57280698Y-102305000D01*
X57019302Y-102305000D01*
X56762928Y-102355996D01*
X56521430Y-102456028D01*
X56304087Y-102601252D01*
X56119252Y-102786087D01*
X55974028Y-103003430D01*
X55873996Y-103244928D01*
X55823000Y-103501302D01*
X55823000Y-103762698D01*
X55873996Y-104019072D01*
X55974028Y-104260570D01*
X56119252Y-104477913D01*
X56304087Y-104662748D01*
X56373000Y-104708794D01*
X56373001Y-105095205D01*
X56304087Y-105141252D01*
X56119252Y-105326087D01*
X56073206Y-105395000D01*
X56056793Y-105395000D01*
X56018630Y-105391241D01*
X55980466Y-105395000D01*
X55980464Y-105395000D01*
X55866311Y-105406243D01*
X55719846Y-105450673D01*
X55652355Y-105486748D01*
X55584863Y-105522823D01*
X55502068Y-105590771D01*
X55466550Y-105619920D01*
X55442222Y-105649564D01*
X54849569Y-106242218D01*
X54819920Y-106266550D01*
X54795591Y-106296196D01*
X54722823Y-106384864D01*
X54679214Y-106466451D01*
X54650673Y-106519847D01*
X54606243Y-106666312D01*
X54595000Y-106780464D01*
X54591241Y-106818630D01*
X54595000Y-106856793D01*
X54595001Y-119849827D01*
X54591241Y-119888000D01*
X54606244Y-120040318D01*
X54650673Y-120186783D01*
X54722823Y-120321766D01*
X54771899Y-120381565D01*
X54819921Y-120440080D01*
X54849565Y-120464408D01*
X54893310Y-120508154D01*
X54855310Y-120496626D01*
X54752000Y-120486451D01*
X53452000Y-120486451D01*
X53348690Y-120496626D01*
X53249350Y-120526761D01*
X53157798Y-120575696D01*
X53077552Y-120641552D01*
X53011696Y-120721798D01*
X52962761Y-120813350D01*
X52932626Y-120912690D01*
X52922451Y-121016000D01*
X52922451Y-121653548D01*
X52755545Y-121647048D01*
X52739000Y-121649674D01*
X52739000Y-121550076D01*
X52693769Y-121322682D01*
X52605044Y-121108481D01*
X52476236Y-120915706D01*
X52312294Y-120751764D01*
X52119519Y-120622956D01*
X51905318Y-120534231D01*
X51677924Y-120489000D01*
X51446076Y-120489000D01*
X51218682Y-120534231D01*
X51004481Y-120622956D01*
X50811706Y-120751764D01*
X50674470Y-120889000D01*
X49844794Y-120889000D01*
X49798748Y-120820087D01*
X49613913Y-120635252D01*
X49396570Y-120490028D01*
X49155072Y-120389996D01*
X48898698Y-120339000D01*
X48637302Y-120339000D01*
X48380928Y-120389996D01*
X48139430Y-120490028D01*
X47922087Y-120635252D01*
X47737252Y-120820087D01*
X47691206Y-120889000D01*
X47603549Y-120889000D01*
X47603549Y-120566000D01*
X47593374Y-120462690D01*
X47563239Y-120363350D01*
X47514304Y-120271798D01*
X47448448Y-120191552D01*
X47368202Y-120125696D01*
X47276650Y-120076761D01*
X47177310Y-120046626D01*
X47074000Y-120036451D01*
X44874000Y-120036451D01*
X44770690Y-120046626D01*
X44671350Y-120076761D01*
X44579798Y-120125696D01*
X44499552Y-120191552D01*
X44433696Y-120271798D01*
X44384761Y-120363350D01*
X44354626Y-120462690D01*
X44344451Y-120566000D01*
X39554925Y-120566000D01*
X39391152Y-120402227D01*
X39124673Y-120224172D01*
X38828578Y-120101525D01*
X38514245Y-120039000D01*
X38193755Y-120039000D01*
X37879422Y-120101525D01*
X37657186Y-120193578D01*
X37636784Y-120182673D01*
X37490319Y-120138243D01*
X37376166Y-120127000D01*
X37376163Y-120127000D01*
X37338000Y-120123241D01*
X37299837Y-120127000D01*
X33976844Y-120127000D01*
X33357917Y-119508074D01*
X33404000Y-119276396D01*
X33404000Y-118975604D01*
X33345319Y-118680590D01*
X33230210Y-118402694D01*
X33063099Y-118152594D01*
X32850406Y-117939901D01*
X32600306Y-117772790D01*
X32322410Y-117657681D01*
X32027396Y-117599000D01*
X31726604Y-117599000D01*
X31431590Y-117657681D01*
X31153694Y-117772790D01*
X30903594Y-117939901D01*
X30690901Y-118152594D01*
X30523790Y-118402694D01*
X30408681Y-118680590D01*
X30350000Y-118975604D01*
X25577000Y-118975604D01*
X25577000Y-111355604D01*
X30350000Y-111355604D01*
X30350000Y-111656396D01*
X30408681Y-111951410D01*
X30523790Y-112229306D01*
X30690901Y-112479406D01*
X30903594Y-112692099D01*
X31153694Y-112859210D01*
X31431590Y-112974319D01*
X31726604Y-113033000D01*
X32027396Y-113033000D01*
X32259073Y-112986917D01*
X32570592Y-113298436D01*
X32594920Y-113328080D01*
X32624564Y-113352408D01*
X32624565Y-113352409D01*
X32713233Y-113425177D01*
X32848216Y-113497327D01*
X32994681Y-113541757D01*
X33108834Y-113553000D01*
X33108843Y-113553000D01*
X33146999Y-113556758D01*
X33185155Y-113553000D01*
X37299837Y-113553000D01*
X37338000Y-113556759D01*
X37376163Y-113553000D01*
X37376166Y-113553000D01*
X37490319Y-113541757D01*
X37636784Y-113497327D01*
X37771766Y-113425177D01*
X37780824Y-113417743D01*
X37801921Y-113443450D01*
X37831565Y-113467778D01*
X38424220Y-114060434D01*
X38448550Y-114090080D01*
X38478194Y-114114408D01*
X38478195Y-114114409D01*
X38566863Y-114187177D01*
X38622808Y-114217080D01*
X38701846Y-114259327D01*
X38848311Y-114303757D01*
X38962464Y-114315000D01*
X38962466Y-114315000D01*
X39000630Y-114318759D01*
X39038793Y-114315000D01*
X44382157Y-114315000D01*
X45197000Y-115129844D01*
X45197000Y-115510451D01*
X45174000Y-115510451D01*
X45070690Y-115520626D01*
X44971350Y-115550761D01*
X44879798Y-115599696D01*
X44799552Y-115665552D01*
X44733696Y-115745798D01*
X44684761Y-115837350D01*
X44654626Y-115936690D01*
X44644451Y-116040000D01*
X44644451Y-117313001D01*
X39925844Y-117313001D01*
X39730413Y-117117570D01*
X39730408Y-117117564D01*
X39664831Y-117051987D01*
X39681000Y-116970698D01*
X39681000Y-116709302D01*
X39630004Y-116452928D01*
X39529972Y-116211430D01*
X39384748Y-115994087D01*
X39199913Y-115809252D01*
X38982570Y-115664028D01*
X38741072Y-115563996D01*
X38484698Y-115513000D01*
X38223302Y-115513000D01*
X37966928Y-115563996D01*
X37725430Y-115664028D01*
X37508087Y-115809252D01*
X37323252Y-115994087D01*
X37178028Y-116211430D01*
X37077996Y-116452928D01*
X37028517Y-116701674D01*
X36898412Y-116571569D01*
X36874080Y-116541920D01*
X36755766Y-116444823D01*
X36620784Y-116372673D01*
X36474319Y-116328243D01*
X36360166Y-116317000D01*
X36360163Y-116317000D01*
X36322000Y-116313241D01*
X36283837Y-116317000D01*
X33976844Y-116317000D01*
X33357917Y-115698074D01*
X33404000Y-115466396D01*
X33404000Y-115165604D01*
X33345319Y-114870590D01*
X33230210Y-114592694D01*
X33063099Y-114342594D01*
X32850406Y-114129901D01*
X32600306Y-113962790D01*
X32322410Y-113847681D01*
X32027396Y-113789000D01*
X31726604Y-113789000D01*
X31431590Y-113847681D01*
X31153694Y-113962790D01*
X30903594Y-114129901D01*
X30690901Y-114342594D01*
X30523790Y-114592694D01*
X30408681Y-114870590D01*
X30350000Y-115165604D01*
X30350000Y-115466396D01*
X30408681Y-115761410D01*
X30523790Y-116039306D01*
X30690901Y-116289406D01*
X30903594Y-116502099D01*
X31153694Y-116669210D01*
X31431590Y-116784319D01*
X31726604Y-116843000D01*
X32027396Y-116843000D01*
X32259074Y-116796917D01*
X32785656Y-117323499D01*
X32806673Y-117392784D01*
X32878823Y-117527766D01*
X32970930Y-117640000D01*
X32975920Y-117646080D01*
X33094234Y-117743177D01*
X33229216Y-117815327D01*
X33375681Y-117859757D01*
X33528000Y-117874759D01*
X33566166Y-117871000D01*
X36000157Y-117871000D01*
X37441603Y-119312447D01*
X37465931Y-119342091D01*
X37495575Y-119366419D01*
X37495576Y-119366420D01*
X37529398Y-119394177D01*
X37584245Y-119439188D01*
X37719227Y-119511338D01*
X37865692Y-119555768D01*
X37979845Y-119567011D01*
X37979847Y-119567011D01*
X38018011Y-119570770D01*
X38056174Y-119567011D01*
X47385791Y-119567011D01*
X47423954Y-119570770D01*
X47462117Y-119567011D01*
X47462120Y-119567011D01*
X47576273Y-119555768D01*
X47722738Y-119511338D01*
X47857720Y-119439188D01*
X47976034Y-119342091D01*
X48000366Y-119312442D01*
X48833935Y-118478873D01*
X48901430Y-118523972D01*
X49142928Y-118624004D01*
X49399302Y-118675000D01*
X49660698Y-118675000D01*
X49917072Y-118624004D01*
X50158570Y-118523972D01*
X50375913Y-118378748D01*
X50560748Y-118193913D01*
X50705972Y-117976570D01*
X50806004Y-117735072D01*
X50857000Y-117478698D01*
X50857000Y-117217302D01*
X50806004Y-116960928D01*
X50705972Y-116719430D01*
X50560748Y-116502087D01*
X50375913Y-116317252D01*
X50158570Y-116172028D01*
X49931567Y-116078000D01*
X50158570Y-115983972D01*
X50375913Y-115838748D01*
X50560748Y-115653913D01*
X50705972Y-115436570D01*
X50806004Y-115195072D01*
X50857000Y-114938698D01*
X50857000Y-114677302D01*
X50806004Y-114420928D01*
X50705972Y-114179430D01*
X50560748Y-113962087D01*
X50375913Y-113777252D01*
X50158570Y-113632028D01*
X49917072Y-113531996D01*
X49660698Y-113481000D01*
X49399302Y-113481000D01*
X49142928Y-113531996D01*
X48901430Y-113632028D01*
X48684087Y-113777252D01*
X48499252Y-113962087D01*
X48354028Y-114179430D01*
X48253996Y-114420928D01*
X48203000Y-114677302D01*
X48203000Y-114878851D01*
X48177217Y-114886672D01*
X48042234Y-114958822D01*
X47956688Y-115029028D01*
X47923921Y-115055919D01*
X47899593Y-115085563D01*
X47223031Y-115762125D01*
X47214304Y-115745798D01*
X47148448Y-115665552D01*
X47068202Y-115599696D01*
X46976650Y-115550761D01*
X46877310Y-115520626D01*
X46774000Y-115510451D01*
X46751000Y-115510451D01*
X46751000Y-115383843D01*
X48802435Y-113332409D01*
X48832079Y-113308081D01*
X48888595Y-113239216D01*
X48929176Y-113189768D01*
X49001326Y-113054785D01*
X49013798Y-113013671D01*
X49045756Y-112908320D01*
X49056999Y-112794167D01*
X49056999Y-112794158D01*
X49060757Y-112756002D01*
X49056999Y-112717846D01*
X49056999Y-112492411D01*
X49142928Y-112528004D01*
X49399302Y-112579000D01*
X49660698Y-112579000D01*
X49917072Y-112528004D01*
X50158570Y-112427972D01*
X50375913Y-112282748D01*
X50560748Y-112097913D01*
X50705972Y-111880570D01*
X50806004Y-111639072D01*
X50857000Y-111382698D01*
X50857000Y-111121302D01*
X50806004Y-110864928D01*
X50705972Y-110623430D01*
X50560748Y-110406087D01*
X50375913Y-110221252D01*
X50158570Y-110076028D01*
X49931567Y-109982000D01*
X50158570Y-109887972D01*
X50375913Y-109742748D01*
X50560748Y-109557913D01*
X50705972Y-109340570D01*
X50806004Y-109099072D01*
X50857000Y-108842698D01*
X50857000Y-108581302D01*
X50806004Y-108324928D01*
X50705972Y-108083430D01*
X50560748Y-107866087D01*
X50375913Y-107681252D01*
X50158570Y-107536028D01*
X49931567Y-107442000D01*
X50158570Y-107347972D01*
X50375913Y-107202748D01*
X50560748Y-107017913D01*
X50705972Y-106800570D01*
X50806004Y-106559072D01*
X50857000Y-106302698D01*
X50857000Y-106041302D01*
X50806004Y-105784928D01*
X50705972Y-105543430D01*
X50560748Y-105326087D01*
X50375913Y-105141252D01*
X50158570Y-104996028D01*
X50075331Y-104961549D01*
X50330000Y-104961549D01*
X50433310Y-104951374D01*
X50532650Y-104921239D01*
X50624202Y-104872304D01*
X50704448Y-104806448D01*
X50770304Y-104726202D01*
X50819239Y-104634650D01*
X50849374Y-104535310D01*
X50859549Y-104432000D01*
X50859549Y-102832000D01*
X50849374Y-102728690D01*
X50819239Y-102629350D01*
X50770304Y-102537798D01*
X50704448Y-102457552D01*
X50624202Y-102391696D01*
X50532650Y-102342761D01*
X50433310Y-102312626D01*
X50330000Y-102302451D01*
X48730000Y-102302451D01*
X48626690Y-102312626D01*
X48527350Y-102342761D01*
X48435798Y-102391696D01*
X48355552Y-102457552D01*
X48289696Y-102537798D01*
X48240761Y-102629350D01*
X48210626Y-102728690D01*
X48200451Y-102832000D01*
X48200451Y-104432000D01*
X48210626Y-104535310D01*
X48240761Y-104634650D01*
X48289696Y-104726202D01*
X48355552Y-104806448D01*
X48435798Y-104872304D01*
X48527350Y-104921239D01*
X48626690Y-104951374D01*
X48730000Y-104961549D01*
X48984669Y-104961549D01*
X48901430Y-104996028D01*
X48684087Y-105141252D01*
X48499252Y-105326087D01*
X48453206Y-105395000D01*
X47028163Y-105395000D01*
X46990000Y-105391241D01*
X46951836Y-105395000D01*
X46951834Y-105395000D01*
X46837681Y-105406243D01*
X46712202Y-105444307D01*
X46691216Y-105450673D01*
X46556233Y-105522823D01*
X46473438Y-105590771D01*
X46437920Y-105619920D01*
X46413592Y-105649564D01*
X46185987Y-105877169D01*
X46104698Y-105861000D01*
X45843302Y-105861000D01*
X45586928Y-105911996D01*
X45345430Y-106012028D01*
X45128087Y-106157252D01*
X44943252Y-106342087D01*
X44798028Y-106559430D01*
X44697996Y-106800928D01*
X44647000Y-107057302D01*
X44647000Y-107318698D01*
X44697996Y-107575072D01*
X44798028Y-107816570D01*
X44943252Y-108033913D01*
X45128087Y-108218748D01*
X45197000Y-108264794D01*
X45197001Y-110430451D01*
X45174000Y-110430451D01*
X45070690Y-110440626D01*
X44971350Y-110470761D01*
X44879798Y-110519696D01*
X44799552Y-110585552D01*
X44733696Y-110665798D01*
X44684761Y-110757350D01*
X44654626Y-110856690D01*
X44644451Y-110960000D01*
X44644451Y-112560000D01*
X44654626Y-112663310D01*
X44683726Y-112759238D01*
X44665837Y-112761000D01*
X39322474Y-112761000D01*
X39276067Y-112714594D01*
X39384748Y-112605913D01*
X39529972Y-112388570D01*
X39630004Y-112147072D01*
X39681000Y-111890698D01*
X39681000Y-111629302D01*
X39630004Y-111372928D01*
X39529972Y-111131430D01*
X39384748Y-110914087D01*
X39199913Y-110729252D01*
X38982570Y-110584028D01*
X38741072Y-110483996D01*
X38484698Y-110433000D01*
X38223302Y-110433000D01*
X37966928Y-110483996D01*
X37725430Y-110584028D01*
X37508087Y-110729252D01*
X37323252Y-110914087D01*
X37178028Y-111131430D01*
X37077996Y-111372928D01*
X37027000Y-111629302D01*
X37027000Y-111890698D01*
X37043169Y-111971987D01*
X37016157Y-111999000D01*
X33468844Y-111999000D01*
X33357917Y-111888073D01*
X33404000Y-111656396D01*
X33404000Y-111355604D01*
X33345319Y-111060590D01*
X33230210Y-110782694D01*
X33063099Y-110532594D01*
X32850406Y-110319901D01*
X32600306Y-110152790D01*
X32322410Y-110037681D01*
X32027396Y-109979000D01*
X31726604Y-109979000D01*
X31431590Y-110037681D01*
X31153694Y-110152790D01*
X30903594Y-110319901D01*
X30690901Y-110532594D01*
X30523790Y-110782694D01*
X30408681Y-111060590D01*
X30350000Y-111355604D01*
X25577000Y-111355604D01*
X25577000Y-106996000D01*
X30647451Y-106996000D01*
X30647451Y-108396000D01*
X30657626Y-108499310D01*
X30687761Y-108598650D01*
X30736696Y-108690202D01*
X30802552Y-108770448D01*
X30882798Y-108836304D01*
X30974350Y-108885239D01*
X31073690Y-108915374D01*
X31177000Y-108925549D01*
X32577000Y-108925549D01*
X32680310Y-108915374D01*
X32779650Y-108885239D01*
X32871202Y-108836304D01*
X32951448Y-108770448D01*
X32997045Y-108714888D01*
X33516590Y-109234434D01*
X33540920Y-109264080D01*
X33570564Y-109288408D01*
X33570565Y-109288409D01*
X33659233Y-109361177D01*
X33750427Y-109409921D01*
X33794216Y-109433327D01*
X33940681Y-109477757D01*
X34054834Y-109489000D01*
X34054836Y-109489000D01*
X34093000Y-109492759D01*
X34131163Y-109489000D01*
X37807837Y-109489000D01*
X37846000Y-109492759D01*
X37884163Y-109489000D01*
X37884166Y-109489000D01*
X37998319Y-109477757D01*
X38144784Y-109433327D01*
X38279766Y-109361177D01*
X38398080Y-109264080D01*
X38422413Y-109234430D01*
X38876432Y-108780411D01*
X38906080Y-108756080D01*
X38963624Y-108685962D01*
X39003177Y-108637767D01*
X39075327Y-108502784D01*
X39076381Y-108499310D01*
X39119757Y-108356319D01*
X39128614Y-108266388D01*
X39199913Y-108218748D01*
X39384748Y-108033913D01*
X39529972Y-107816570D01*
X39630004Y-107575072D01*
X39681000Y-107318698D01*
X39681000Y-107057302D01*
X39630004Y-106800928D01*
X39529972Y-106559430D01*
X39384748Y-106342087D01*
X39199913Y-106157252D01*
X38982570Y-106012028D01*
X38741072Y-105911996D01*
X38484698Y-105861000D01*
X38223302Y-105861000D01*
X37966928Y-105911996D01*
X37725430Y-106012028D01*
X37508087Y-106157252D01*
X37323252Y-106342087D01*
X37178028Y-106559430D01*
X37077996Y-106800928D01*
X37027000Y-107057302D01*
X37027000Y-107318698D01*
X37077996Y-107575072D01*
X37178028Y-107816570D01*
X37257160Y-107935000D01*
X34414844Y-107935000D01*
X33653412Y-107173569D01*
X33629080Y-107143920D01*
X33510766Y-107046823D01*
X33375784Y-106974673D01*
X33229319Y-106930243D01*
X33115166Y-106919000D01*
X33115163Y-106919000D01*
X33098807Y-106917389D01*
X33096374Y-106892690D01*
X33066239Y-106793350D01*
X33017304Y-106701798D01*
X32951448Y-106621552D01*
X32871202Y-106555696D01*
X32779650Y-106506761D01*
X32680310Y-106476626D01*
X32577000Y-106466451D01*
X31177000Y-106466451D01*
X31073690Y-106476626D01*
X30974350Y-106506761D01*
X30882798Y-106555696D01*
X30802552Y-106621552D01*
X30736696Y-106701798D01*
X30687761Y-106793350D01*
X30657626Y-106892690D01*
X30647451Y-106996000D01*
X25577000Y-106996000D01*
X25577000Y-101790509D01*
X27873000Y-101790509D01*
X27873000Y-102209491D01*
X27954739Y-102620423D01*
X28115077Y-103007512D01*
X28347851Y-103355884D01*
X28644116Y-103652149D01*
X28992488Y-103884923D01*
X29379577Y-104045261D01*
X29790509Y-104127000D01*
X30209491Y-104127000D01*
X30620423Y-104045261D01*
X31007512Y-103884923D01*
X31355884Y-103652149D01*
X31652149Y-103355884D01*
X31884923Y-103007512D01*
X32045261Y-102620423D01*
X32127000Y-102209491D01*
X32127000Y-101790509D01*
X32045261Y-101379577D01*
X31884923Y-100992488D01*
X31652149Y-100644116D01*
X31355884Y-100347851D01*
X31007512Y-100115077D01*
X30620423Y-99954739D01*
X30209491Y-99873000D01*
X29790509Y-99873000D01*
X29379577Y-99954739D01*
X28992488Y-100115077D01*
X28644116Y-100347851D01*
X28347851Y-100644116D01*
X28115077Y-100992488D01*
X27954739Y-101379577D01*
X27873000Y-101790509D01*
X25577000Y-101790509D01*
X25577000Y-101028219D01*
X25625860Y-100529906D01*
X25762382Y-100077723D01*
X25984135Y-99660664D01*
X26282674Y-99294621D01*
X26646621Y-98993537D01*
X27062127Y-98768875D01*
X27513344Y-98629199D01*
X28009988Y-98577000D01*
X84971781Y-98577000D01*
X85470094Y-98625860D01*
G37*
X85470094Y-98625860D02*
X85922277Y-98762382D01*
X86339336Y-98984135D01*
X86705379Y-99282674D01*
X87006463Y-99646621D01*
X87231125Y-100062127D01*
X87370801Y-100513344D01*
X87423000Y-101009988D01*
X87423001Y-129971772D01*
X87374140Y-130470089D01*
X87237618Y-130922277D01*
X87015863Y-131339337D01*
X86717326Y-131705379D01*
X86353376Y-132006465D01*
X85937878Y-132231123D01*
X85486657Y-132370801D01*
X84990011Y-132423000D01*
X28028218Y-132423000D01*
X27529911Y-132374140D01*
X27077723Y-132237618D01*
X26660663Y-132015863D01*
X26294621Y-131717326D01*
X25993535Y-131353376D01*
X25768877Y-130937878D01*
X25629199Y-130486657D01*
X25577000Y-129990011D01*
X25577000Y-128790509D01*
X27873000Y-128790509D01*
X27873000Y-129209491D01*
X27954739Y-129620423D01*
X28115077Y-130007512D01*
X28347851Y-130355884D01*
X28644116Y-130652149D01*
X28992488Y-130884923D01*
X29379577Y-131045261D01*
X29790509Y-131127000D01*
X30209491Y-131127000D01*
X30620423Y-131045261D01*
X31007512Y-130884923D01*
X31355884Y-130652149D01*
X31652149Y-130355884D01*
X31884923Y-130007512D01*
X32045261Y-129620423D01*
X32127000Y-129209491D01*
X32127000Y-128790509D01*
X80873000Y-128790509D01*
X80873000Y-129209491D01*
X80954739Y-129620423D01*
X81115077Y-130007512D01*
X81347851Y-130355884D01*
X81644116Y-130652149D01*
X81992488Y-130884923D01*
X82379577Y-131045261D01*
X82790509Y-131127000D01*
X83209491Y-131127000D01*
X83620423Y-131045261D01*
X84007512Y-130884923D01*
X84355884Y-130652149D01*
X84652149Y-130355884D01*
X84884923Y-130007512D01*
X85045261Y-129620423D01*
X85127000Y-129209491D01*
X85127000Y-128790509D01*
X85045261Y-128379577D01*
X84884923Y-127992488D01*
X84652149Y-127644116D01*
X84355884Y-127347851D01*
X84007512Y-127115077D01*
X83620423Y-126954739D01*
X83209491Y-126873000D01*
X82790509Y-126873000D01*
X82379577Y-126954739D01*
X81992488Y-127115077D01*
X81644116Y-127347851D01*
X81347851Y-127644116D01*
X81115077Y-127992488D01*
X80954739Y-128379577D01*
X80873000Y-128790509D01*
X32127000Y-128790509D01*
X32045261Y-128379577D01*
X31884923Y-127992488D01*
X31652149Y-127644116D01*
X31355884Y-127347851D01*
X31007512Y-127115077D01*
X30620423Y-126954739D01*
X30209491Y-126873000D01*
X29790509Y-126873000D01*
X29379577Y-126954739D01*
X28992488Y-127115077D01*
X28644116Y-127347851D01*
X28347851Y-127644116D01*
X28115077Y-127992488D01*
X27954739Y-128379577D01*
X27873000Y-128790509D01*
X25577000Y-128790509D01*
X25577000Y-125158702D01*
X47954903Y-125158702D01*
X48026486Y-125402671D01*
X48281996Y-125523571D01*
X48556184Y-125592300D01*
X48838512Y-125606217D01*
X49118130Y-125564787D01*
X49384292Y-125469603D01*
X49509514Y-125402671D01*
X49581097Y-125158702D01*
X56336903Y-125158702D01*
X56408486Y-125402671D01*
X56663996Y-125523571D01*
X56938184Y-125592300D01*
X57220512Y-125606217D01*
X57500130Y-125564787D01*
X57766292Y-125469603D01*
X57891514Y-125402671D01*
X57963097Y-125158702D01*
X57150000Y-124345605D01*
X56336903Y-125158702D01*
X49581097Y-125158702D01*
X48768000Y-124345605D01*
X47954903Y-125158702D01*
X25577000Y-125158702D01*
X25577000Y-124071413D01*
X30921192Y-124071413D01*
X31016956Y-124335814D01*
X31306571Y-124476704D01*
X31618108Y-124558384D01*
X31939595Y-124577718D01*
X32258675Y-124533961D01*
X32563088Y-124428795D01*
X32737044Y-124335814D01*
X32773010Y-124236512D01*
X47327783Y-124236512D01*
X47369213Y-124516130D01*
X47464397Y-124782292D01*
X47531329Y-124907514D01*
X47775298Y-124979097D01*
X48588395Y-124166000D01*
X48947605Y-124166000D01*
X49760702Y-124979097D01*
X50004671Y-124907514D01*
X50125571Y-124652004D01*
X50194300Y-124377816D01*
X50201265Y-124236512D01*
X55709783Y-124236512D01*
X55751213Y-124516130D01*
X55846397Y-124782292D01*
X55913329Y-124907514D01*
X56157298Y-124979097D01*
X56970395Y-124166000D01*
X56157298Y-123352903D01*
X55913329Y-123424486D01*
X55792429Y-123679996D01*
X55723700Y-123954184D01*
X55709783Y-124236512D01*
X50201265Y-124236512D01*
X50208217Y-124095488D01*
X50167626Y-123821527D01*
X52126078Y-123821527D01*
X52179466Y-124050201D01*
X52409374Y-124156095D01*
X52655524Y-124215102D01*
X52908455Y-124224952D01*
X53158449Y-124185270D01*
X53395896Y-124097578D01*
X53484534Y-124050201D01*
X53537922Y-123821527D01*
X52832000Y-123115605D01*
X52126078Y-123821527D01*
X50167626Y-123821527D01*
X50166787Y-123815870D01*
X50071603Y-123549708D01*
X50004671Y-123424486D01*
X49760702Y-123352903D01*
X48947605Y-124166000D01*
X48588395Y-124166000D01*
X47775298Y-123352903D01*
X47531329Y-123424486D01*
X47410429Y-123679996D01*
X47341700Y-123954184D01*
X47327783Y-124236512D01*
X32773010Y-124236512D01*
X32832808Y-124071413D01*
X31877000Y-123115605D01*
X30921192Y-124071413D01*
X25577000Y-124071413D01*
X25577000Y-122998595D01*
X30235282Y-122998595D01*
X30279039Y-123317675D01*
X30384205Y-123622088D01*
X30477186Y-123796044D01*
X30741587Y-123891808D01*
X31697395Y-122936000D01*
X32056605Y-122936000D01*
X33012413Y-123891808D01*
X33276814Y-123796044D01*
X33417704Y-123506429D01*
X33499384Y-123194892D01*
X33518718Y-122873405D01*
X33474961Y-122554325D01*
X33369795Y-122249912D01*
X33276814Y-122075956D01*
X33012413Y-121980192D01*
X32056605Y-122936000D01*
X31697395Y-122936000D01*
X30741587Y-121980192D01*
X30477186Y-122075956D01*
X30336296Y-122365571D01*
X30254616Y-122677108D01*
X30235282Y-122998595D01*
X25577000Y-122998595D01*
X25577000Y-121800587D01*
X30921192Y-121800587D01*
X31877000Y-122756395D01*
X32832808Y-121800587D01*
X32737044Y-121536186D01*
X32447429Y-121395296D01*
X32135892Y-121313616D01*
X31814405Y-121294282D01*
X31495325Y-121338039D01*
X31190912Y-121443205D01*
X31016956Y-121536186D01*
X30921192Y-121800587D01*
X25577000Y-121800587D01*
X25577000Y-118975604D01*
X30350000Y-118975604D01*
X30350000Y-119276396D01*
X30408681Y-119571410D01*
X30523790Y-119849306D01*
X30690901Y-120099406D01*
X30903594Y-120312099D01*
X31153694Y-120479210D01*
X31431590Y-120594319D01*
X31726604Y-120653000D01*
X32027396Y-120653000D01*
X32259074Y-120606917D01*
X33078590Y-121426434D01*
X33102920Y-121456080D01*
X33132564Y-121480408D01*
X33132565Y-121480409D01*
X33173109Y-121513682D01*
X33221234Y-121553177D01*
X33356216Y-121625327D01*
X33502681Y-121669757D01*
X33616834Y-121681000D01*
X33616836Y-121681000D01*
X33655000Y-121684759D01*
X33693163Y-121681000D01*
X36727000Y-121681000D01*
X36727000Y-121826245D01*
X36789525Y-122140578D01*
X36912172Y-122436673D01*
X37090227Y-122703152D01*
X37316848Y-122929773D01*
X37583327Y-123107828D01*
X37879422Y-123230475D01*
X38193755Y-123293000D01*
X38514245Y-123293000D01*
X38828578Y-123230475D01*
X39124673Y-123107828D01*
X39391152Y-122929773D01*
X39617773Y-122703152D01*
X39795828Y-122436673D01*
X39918475Y-122140578D01*
X39981000Y-121826245D01*
X39981000Y-121505755D01*
X39918475Y-121191422D01*
X39795828Y-120895327D01*
X39617773Y-120628848D01*
X39554925Y-120566000D01*
X44344451Y-120566000D01*
X44344451Y-122766000D01*
X44354626Y-122869310D01*
X44384761Y-122968650D01*
X44433696Y-123060202D01*
X44499552Y-123140448D01*
X44579798Y-123206304D01*
X44671350Y-123255239D01*
X44770690Y-123285374D01*
X44874000Y-123295549D01*
X47074000Y-123295549D01*
X47177310Y-123285374D01*
X47276650Y-123255239D01*
X47368202Y-123206304D01*
X47448448Y-123140448D01*
X47514304Y-123060202D01*
X47563239Y-122968650D01*
X47593374Y-122869310D01*
X47603549Y-122766000D01*
X47603549Y-122443000D01*
X47691206Y-122443000D01*
X47737252Y-122511913D01*
X47922087Y-122696748D01*
X48139430Y-122841972D01*
X48171582Y-122855290D01*
X48151708Y-122862397D01*
X48026486Y-122929329D01*
X47954903Y-123173298D01*
X48768000Y-123986395D01*
X49581097Y-123173298D01*
X49509514Y-122929329D01*
X49358351Y-122857803D01*
X49396570Y-122841972D01*
X49613913Y-122696748D01*
X49798748Y-122511913D01*
X49844794Y-122443000D01*
X50674470Y-122443000D01*
X50811706Y-122580236D01*
X51004481Y-122709044D01*
X51218682Y-122797769D01*
X51446076Y-122843000D01*
X51549647Y-122843000D01*
X51543048Y-123012455D01*
X51582730Y-123262449D01*
X51670422Y-123499896D01*
X51717799Y-123588534D01*
X51946473Y-123641922D01*
X52652395Y-122936000D01*
X52638253Y-122921858D01*
X52817858Y-122742253D01*
X52832000Y-122756395D01*
X52846143Y-122742253D01*
X53025748Y-122921858D01*
X53011605Y-122936000D01*
X53717527Y-123641922D01*
X53946201Y-123588534D01*
X54052095Y-123358626D01*
X54111102Y-123112476D01*
X54120952Y-122859545D01*
X54118730Y-122845549D01*
X54752000Y-122845549D01*
X54855310Y-122835374D01*
X54954650Y-122805239D01*
X55046202Y-122756304D01*
X55126448Y-122690448D01*
X55192304Y-122610202D01*
X55241239Y-122518650D01*
X55264188Y-122443000D01*
X56073206Y-122443000D01*
X56119252Y-122511913D01*
X56304087Y-122696748D01*
X56521430Y-122841972D01*
X56553582Y-122855290D01*
X56533708Y-122862397D01*
X56408486Y-122929329D01*
X56336903Y-123173298D01*
X57150000Y-123986395D01*
X57164143Y-123972253D01*
X57343748Y-124151858D01*
X57329605Y-124166000D01*
X58142702Y-124979097D01*
X58386671Y-124907514D01*
X58507571Y-124652004D01*
X58576300Y-124377816D01*
X58585069Y-124199913D01*
X59621590Y-125236434D01*
X59645920Y-125266080D01*
X59675564Y-125290408D01*
X59675565Y-125290409D01*
X59764233Y-125363177D01*
X59813804Y-125389673D01*
X59899216Y-125435327D01*
X60045681Y-125479757D01*
X60159834Y-125491000D01*
X60159836Y-125491000D01*
X60198000Y-125494759D01*
X60236163Y-125491000D01*
X61662451Y-125491000D01*
X61662451Y-125514000D01*
X61672626Y-125617310D01*
X61702761Y-125716650D01*
X61751696Y-125808202D01*
X61817552Y-125888448D01*
X61897798Y-125954304D01*
X61989350Y-126003239D01*
X62088690Y-126033374D01*
X62192000Y-126043549D01*
X63792000Y-126043549D01*
X63895310Y-126033374D01*
X63994650Y-126003239D01*
X64086202Y-125954304D01*
X64166448Y-125888448D01*
X64232304Y-125808202D01*
X64281239Y-125716650D01*
X64311374Y-125617310D01*
X64321549Y-125514000D01*
X64321549Y-125491000D01*
X65874837Y-125491000D01*
X65913000Y-125494759D01*
X65951163Y-125491000D01*
X65951166Y-125491000D01*
X66065319Y-125479757D01*
X66211784Y-125435327D01*
X66346766Y-125363177D01*
X66465080Y-125266080D01*
X66489412Y-125236431D01*
X66717013Y-125008831D01*
X66798302Y-125025000D01*
X67059698Y-125025000D01*
X67316072Y-124974004D01*
X67557570Y-124873972D01*
X67774913Y-124728748D01*
X67959748Y-124543913D01*
X68104972Y-124326570D01*
X68205004Y-124085072D01*
X68256000Y-123828698D01*
X68256000Y-123567302D01*
X68205004Y-123310928D01*
X68104972Y-123069430D01*
X67959748Y-122852087D01*
X67774913Y-122667252D01*
X67706000Y-122621206D01*
X67706000Y-120688163D01*
X67709759Y-120650000D01*
X67704275Y-120594319D01*
X67694757Y-120497681D01*
X67650327Y-120351216D01*
X67607877Y-120271798D01*
X67578177Y-120216233D01*
X67505409Y-120127565D01*
X67505408Y-120127564D01*
X67481080Y-120097920D01*
X67451436Y-120073592D01*
X66899844Y-119522000D01*
X71314451Y-119522000D01*
X71314451Y-119545000D01*
X71324626Y-119648310D01*
X71354761Y-119747650D01*
X71403696Y-119839202D01*
X71469552Y-119919448D01*
X71549798Y-119985304D01*
X71641350Y-120034239D01*
X71740690Y-120064374D01*
X71844000Y-120074549D01*
X71867000Y-120074549D01*
X71867001Y-124675827D01*
X71863241Y-124714000D01*
X71878244Y-124866318D01*
X71922673Y-125012783D01*
X71994823Y-125147766D01*
X72067591Y-125236434D01*
X72091921Y-125266080D01*
X72121565Y-125290408D01*
X73464592Y-126633436D01*
X73488920Y-126663080D01*
X73518564Y-126687408D01*
X73518565Y-126687409D01*
X73607233Y-126760177D01*
X73742216Y-126832327D01*
X73888681Y-126876757D01*
X74002834Y-126888000D01*
X74002843Y-126888000D01*
X74040999Y-126891758D01*
X74079155Y-126888000D01*
X78066837Y-126888000D01*
X78105000Y-126891759D01*
X78143163Y-126888000D01*
X78143166Y-126888000D01*
X78257319Y-126876757D01*
X78403784Y-126832327D01*
X78538766Y-126760177D01*
X78657080Y-126663080D01*
X78681413Y-126633430D01*
X80849295Y-124465549D01*
X82280000Y-124465549D01*
X82383310Y-124455374D01*
X82482650Y-124425239D01*
X82574202Y-124376304D01*
X82654448Y-124310448D01*
X82720304Y-124230202D01*
X82769239Y-124138650D01*
X82799374Y-124039310D01*
X82809549Y-123936000D01*
X82809549Y-121936000D01*
X82799374Y-121832690D01*
X82769239Y-121733350D01*
X82720304Y-121641798D01*
X82654448Y-121561552D01*
X82574202Y-121495696D01*
X82482650Y-121446761D01*
X82383310Y-121416626D01*
X82280000Y-121406451D01*
X80280000Y-121406451D01*
X80176690Y-121416626D01*
X80077350Y-121446761D01*
X79985798Y-121495696D01*
X79905552Y-121561552D01*
X79839696Y-121641798D01*
X79790761Y-121733350D01*
X79760626Y-121832690D01*
X79750451Y-121936000D01*
X79750451Y-123366705D01*
X77783157Y-125334000D01*
X74362844Y-125334000D01*
X73867346Y-124838502D01*
X73920430Y-124873972D01*
X74161928Y-124974004D01*
X74418302Y-125025000D01*
X74679698Y-125025000D01*
X74936072Y-124974004D01*
X75177570Y-124873972D01*
X75394913Y-124728748D01*
X75579748Y-124543913D01*
X75724972Y-124326570D01*
X75825004Y-124085072D01*
X75876000Y-123828698D01*
X75876000Y-123567302D01*
X75825004Y-123310928D01*
X75724972Y-123069430D01*
X75579748Y-122852087D01*
X75394913Y-122667252D01*
X75326000Y-122621206D01*
X75326000Y-118148163D01*
X75329759Y-118110000D01*
X75325753Y-118069327D01*
X75314757Y-117957681D01*
X75270327Y-117811216D01*
X75198178Y-117676235D01*
X75198177Y-117676233D01*
X75125409Y-117587565D01*
X75125408Y-117587564D01*
X75101080Y-117557920D01*
X75071437Y-117533593D01*
X73954831Y-116416987D01*
X73971000Y-116335698D01*
X73971000Y-116074302D01*
X73920004Y-115817928D01*
X73819972Y-115576430D01*
X73674748Y-115359087D01*
X73489913Y-115174252D01*
X73272570Y-115029028D01*
X73045567Y-114935000D01*
X73272570Y-114840972D01*
X73489913Y-114695748D01*
X73674748Y-114510913D01*
X73720794Y-114442000D01*
X77402157Y-114442000D01*
X77963001Y-115002845D01*
X77963000Y-116547836D01*
X77959241Y-116586000D01*
X77963000Y-116624163D01*
X77963000Y-116624165D01*
X77974243Y-116738318D01*
X78003138Y-116833570D01*
X78018673Y-116884783D01*
X78090823Y-117019766D01*
X78138203Y-117077499D01*
X78187920Y-117138080D01*
X78217569Y-117162413D01*
X79799083Y-118743926D01*
X79753000Y-118975604D01*
X79753000Y-119276396D01*
X79811681Y-119571410D01*
X79926790Y-119849306D01*
X80093901Y-120099406D01*
X80306594Y-120312099D01*
X80556694Y-120479210D01*
X80834590Y-120594319D01*
X81129604Y-120653000D01*
X81430396Y-120653000D01*
X81725410Y-120594319D01*
X82003306Y-120479210D01*
X82253406Y-120312099D01*
X82466099Y-120099406D01*
X82633210Y-119849306D01*
X82748319Y-119571410D01*
X82807000Y-119276396D01*
X82807000Y-118975604D01*
X82748319Y-118680590D01*
X82633210Y-118402694D01*
X82466099Y-118152594D01*
X82253406Y-117939901D01*
X82003306Y-117772790D01*
X81725410Y-117657681D01*
X81430396Y-117599000D01*
X81129604Y-117599000D01*
X80897926Y-117645083D01*
X79517000Y-116264157D01*
X79517000Y-114719163D01*
X79520759Y-114681000D01*
X79517984Y-114652828D01*
X79799083Y-114933926D01*
X79753000Y-115165604D01*
X79753000Y-115466396D01*
X79811681Y-115761410D01*
X79926790Y-116039306D01*
X80093901Y-116289406D01*
X80306594Y-116502099D01*
X80556694Y-116669210D01*
X80834590Y-116784319D01*
X81129604Y-116843000D01*
X81430396Y-116843000D01*
X81725410Y-116784319D01*
X82003306Y-116669210D01*
X82253406Y-116502099D01*
X82466099Y-116289406D01*
X82633210Y-116039306D01*
X82748319Y-115761410D01*
X82807000Y-115466396D01*
X82807000Y-115165604D01*
X82748319Y-114870590D01*
X82633210Y-114592694D01*
X82466099Y-114342594D01*
X82253406Y-114129901D01*
X82003306Y-113962790D01*
X81725410Y-113847681D01*
X81430396Y-113789000D01*
X81129604Y-113789000D01*
X80897926Y-113835083D01*
X79906989Y-112844146D01*
X79906989Y-112181502D01*
X79926790Y-112229306D01*
X80093901Y-112479406D01*
X80306594Y-112692099D01*
X80556694Y-112859210D01*
X80834590Y-112974319D01*
X81129604Y-113033000D01*
X81430396Y-113033000D01*
X81725410Y-112974319D01*
X82003306Y-112859210D01*
X82253406Y-112692099D01*
X82466099Y-112479406D01*
X82633210Y-112229306D01*
X82748319Y-111951410D01*
X82807000Y-111656396D01*
X82807000Y-111355604D01*
X82748319Y-111060590D01*
X82633210Y-110782694D01*
X82466099Y-110532594D01*
X82253406Y-110319901D01*
X82003306Y-110152790D01*
X81725410Y-110037681D01*
X81430396Y-109979000D01*
X81129604Y-109979000D01*
X80897926Y-110025083D01*
X80606999Y-109734156D01*
X80606999Y-109186805D01*
X80709571Y-109236704D01*
X81021108Y-109318384D01*
X81342595Y-109337718D01*
X81661675Y-109293961D01*
X81966088Y-109188795D01*
X82140044Y-109095814D01*
X82235808Y-108831413D01*
X81280000Y-107875605D01*
X81265858Y-107889748D01*
X81086253Y-107710143D01*
X81100395Y-107696000D01*
X81459605Y-107696000D01*
X82415413Y-108651808D01*
X82679814Y-108556044D01*
X82820704Y-108266429D01*
X82902384Y-107954892D01*
X82921718Y-107633405D01*
X82877961Y-107314325D01*
X82772795Y-107009912D01*
X82679814Y-106835956D01*
X82415413Y-106740192D01*
X81459605Y-107696000D01*
X81100395Y-107696000D01*
X81086253Y-107681858D01*
X81265858Y-107502253D01*
X81280000Y-107516395D01*
X82235808Y-106560587D01*
X82140044Y-106296186D01*
X81850429Y-106155296D01*
X81538892Y-106073616D01*
X81217405Y-106054282D01*
X80898325Y-106098039D01*
X80606999Y-106198684D01*
X80606999Y-105040199D01*
X80610758Y-105002036D01*
X80602800Y-104921239D01*
X80595756Y-104849717D01*
X80551326Y-104703252D01*
X80514657Y-104634650D01*
X80479177Y-104568270D01*
X80406408Y-104479601D01*
X80406407Y-104479600D01*
X80382079Y-104449956D01*
X80352436Y-104425629D01*
X77717316Y-101790509D01*
X81000000Y-101790509D01*
X81000000Y-102209491D01*
X81081739Y-102620423D01*
X81242077Y-103007512D01*
X81474851Y-103355884D01*
X81771116Y-103652149D01*
X82119488Y-103884923D01*
X82506577Y-104045261D01*
X82917509Y-104127000D01*
X83336491Y-104127000D01*
X83747423Y-104045261D01*
X84134512Y-103884923D01*
X84482884Y-103652149D01*
X84779149Y-103355884D01*
X85011923Y-103007512D01*
X85172261Y-102620423D01*
X85254000Y-102209491D01*
X85254000Y-101790509D01*
X85172261Y-101379577D01*
X85011923Y-100992488D01*
X84779149Y-100644116D01*
X84482884Y-100347851D01*
X84134512Y-100115077D01*
X83747423Y-99954739D01*
X83336491Y-99873000D01*
X82917509Y-99873000D01*
X82506577Y-99954739D01*
X82119488Y-100115077D01*
X81771116Y-100347851D01*
X81474851Y-100644116D01*
X81242077Y-100992488D01*
X81081739Y-101379577D01*
X81000000Y-101790509D01*
X77717316Y-101790509D01*
X76959365Y-101032559D01*
X76935032Y-101002909D01*
X76816718Y-100905812D01*
X76681736Y-100833662D01*
X76535271Y-100789232D01*
X76421118Y-100777989D01*
X76421115Y-100777989D01*
X76382952Y-100774230D01*
X76344789Y-100777989D01*
X65162164Y-100777989D01*
X65124008Y-100774231D01*
X65085852Y-100777989D01*
X65085843Y-100777989D01*
X64971690Y-100789232D01*
X64825225Y-100833662D01*
X64690242Y-100905812D01*
X64601574Y-100978580D01*
X64571929Y-101002909D01*
X64547601Y-101032553D01*
X63251564Y-102328591D01*
X63221920Y-102352919D01*
X63197592Y-102382563D01*
X63197590Y-102382565D01*
X63124822Y-102471233D01*
X63052672Y-102606216D01*
X63008243Y-102752681D01*
X62993240Y-102904999D01*
X62997000Y-102943172D01*
X62996999Y-106719157D01*
X61298987Y-108417169D01*
X61217698Y-108401000D01*
X60956302Y-108401000D01*
X60699928Y-108451996D01*
X60458430Y-108552028D01*
X60241087Y-108697252D01*
X60056252Y-108882087D01*
X59911028Y-109099430D01*
X59810996Y-109340928D01*
X59760000Y-109597302D01*
X59760000Y-109858698D01*
X59810996Y-110115072D01*
X59846589Y-110201001D01*
X59737845Y-110201001D01*
X58460831Y-108923987D01*
X58477000Y-108842698D01*
X58477000Y-108581302D01*
X58426004Y-108324928D01*
X58325972Y-108083430D01*
X58180748Y-107866087D01*
X57995913Y-107681252D01*
X57778570Y-107536028D01*
X57551567Y-107442000D01*
X57778570Y-107347972D01*
X57995913Y-107202748D01*
X58180748Y-107017913D01*
X58226794Y-106949000D01*
X59733339Y-106949000D01*
X59860087Y-107075748D01*
X60077430Y-107220972D01*
X60318928Y-107321004D01*
X60575302Y-107372000D01*
X60836698Y-107372000D01*
X61093072Y-107321004D01*
X61334570Y-107220972D01*
X61551913Y-107075748D01*
X61736748Y-106890913D01*
X61881972Y-106673570D01*
X61982004Y-106432072D01*
X62033000Y-106175698D01*
X62033000Y-105914302D01*
X61982004Y-105657928D01*
X61881972Y-105416430D01*
X61736748Y-105199087D01*
X61551913Y-105014252D01*
X61334570Y-104869028D01*
X61302418Y-104855710D01*
X61322292Y-104848603D01*
X61447514Y-104781671D01*
X61519097Y-104537702D01*
X60706000Y-103724605D01*
X59892903Y-104537702D01*
X59964486Y-104781671D01*
X60115649Y-104853197D01*
X60077430Y-104869028D01*
X59860087Y-105014252D01*
X59675252Y-105199087D01*
X59544347Y-105395000D01*
X58226794Y-105395000D01*
X58180748Y-105326087D01*
X57995913Y-105141252D01*
X57927000Y-105095206D01*
X57927000Y-104708794D01*
X57995913Y-104662748D01*
X58180748Y-104477913D01*
X58325972Y-104260570D01*
X58426004Y-104019072D01*
X58477000Y-103762698D01*
X58477000Y-103615512D01*
X59265783Y-103615512D01*
X59307213Y-103895130D01*
X59402397Y-104161292D01*
X59469329Y-104286514D01*
X59713298Y-104358097D01*
X60526395Y-103545000D01*
X60885605Y-103545000D01*
X61698702Y-104358097D01*
X61942671Y-104286514D01*
X62063571Y-104031004D01*
X62132300Y-103756816D01*
X62146217Y-103474488D01*
X62104787Y-103194870D01*
X62009603Y-102928708D01*
X61942671Y-102803486D01*
X61698702Y-102731903D01*
X60885605Y-103545000D01*
X60526395Y-103545000D01*
X59713298Y-102731903D01*
X59469329Y-102803486D01*
X59348429Y-103058996D01*
X59279700Y-103333184D01*
X59265783Y-103615512D01*
X58477000Y-103615512D01*
X58477000Y-103501302D01*
X58426004Y-103244928D01*
X58325972Y-103003430D01*
X58180748Y-102786087D01*
X57995913Y-102601252D01*
X57922649Y-102552298D01*
X59892903Y-102552298D01*
X60706000Y-103365395D01*
X61519097Y-102552298D01*
X61447514Y-102308329D01*
X61192004Y-102187429D01*
X60917816Y-102118700D01*
X60635488Y-102104783D01*
X60355870Y-102146213D01*
X60089708Y-102241397D01*
X59964486Y-102308329D01*
X59892903Y-102552298D01*
X57922649Y-102552298D01*
X57778570Y-102456028D01*
X57537072Y-102355996D01*
X57280698Y-102305000D01*
X57019302Y-102305000D01*
X56762928Y-102355996D01*
X56521430Y-102456028D01*
X56304087Y-102601252D01*
X56119252Y-102786087D01*
X55974028Y-103003430D01*
X55873996Y-103244928D01*
X55823000Y-103501302D01*
X55823000Y-103762698D01*
X55873996Y-104019072D01*
X55974028Y-104260570D01*
X56119252Y-104477913D01*
X56304087Y-104662748D01*
X56373000Y-104708794D01*
X56373001Y-105095205D01*
X56304087Y-105141252D01*
X56119252Y-105326087D01*
X56073206Y-105395000D01*
X56056793Y-105395000D01*
X56018630Y-105391241D01*
X55980466Y-105395000D01*
X55980464Y-105395000D01*
X55866311Y-105406243D01*
X55719846Y-105450673D01*
X55652355Y-105486748D01*
X55584863Y-105522823D01*
X55502068Y-105590771D01*
X55466550Y-105619920D01*
X55442222Y-105649564D01*
X54849569Y-106242218D01*
X54819920Y-106266550D01*
X54795591Y-106296196D01*
X54722823Y-106384864D01*
X54679214Y-106466451D01*
X54650673Y-106519847D01*
X54606243Y-106666312D01*
X54595000Y-106780464D01*
X54591241Y-106818630D01*
X54595000Y-106856793D01*
X54595001Y-119849827D01*
X54591241Y-119888000D01*
X54606244Y-120040318D01*
X54650673Y-120186783D01*
X54722823Y-120321766D01*
X54771899Y-120381565D01*
X54819921Y-120440080D01*
X54849565Y-120464408D01*
X54893310Y-120508154D01*
X54855310Y-120496626D01*
X54752000Y-120486451D01*
X53452000Y-120486451D01*
X53348690Y-120496626D01*
X53249350Y-120526761D01*
X53157798Y-120575696D01*
X53077552Y-120641552D01*
X53011696Y-120721798D01*
X52962761Y-120813350D01*
X52932626Y-120912690D01*
X52922451Y-121016000D01*
X52922451Y-121653548D01*
X52755545Y-121647048D01*
X52739000Y-121649674D01*
X52739000Y-121550076D01*
X52693769Y-121322682D01*
X52605044Y-121108481D01*
X52476236Y-120915706D01*
X52312294Y-120751764D01*
X52119519Y-120622956D01*
X51905318Y-120534231D01*
X51677924Y-120489000D01*
X51446076Y-120489000D01*
X51218682Y-120534231D01*
X51004481Y-120622956D01*
X50811706Y-120751764D01*
X50674470Y-120889000D01*
X49844794Y-120889000D01*
X49798748Y-120820087D01*
X49613913Y-120635252D01*
X49396570Y-120490028D01*
X49155072Y-120389996D01*
X48898698Y-120339000D01*
X48637302Y-120339000D01*
X48380928Y-120389996D01*
X48139430Y-120490028D01*
X47922087Y-120635252D01*
X47737252Y-120820087D01*
X47691206Y-120889000D01*
X47603549Y-120889000D01*
X47603549Y-120566000D01*
X47593374Y-120462690D01*
X47563239Y-120363350D01*
X47514304Y-120271798D01*
X47448448Y-120191552D01*
X47368202Y-120125696D01*
X47276650Y-120076761D01*
X47177310Y-120046626D01*
X47074000Y-120036451D01*
X44874000Y-120036451D01*
X44770690Y-120046626D01*
X44671350Y-120076761D01*
X44579798Y-120125696D01*
X44499552Y-120191552D01*
X44433696Y-120271798D01*
X44384761Y-120363350D01*
X44354626Y-120462690D01*
X44344451Y-120566000D01*
X39554925Y-120566000D01*
X39391152Y-120402227D01*
X39124673Y-120224172D01*
X38828578Y-120101525D01*
X38514245Y-120039000D01*
X38193755Y-120039000D01*
X37879422Y-120101525D01*
X37657186Y-120193578D01*
X37636784Y-120182673D01*
X37490319Y-120138243D01*
X37376166Y-120127000D01*
X37376163Y-120127000D01*
X37338000Y-120123241D01*
X37299837Y-120127000D01*
X33976844Y-120127000D01*
X33357917Y-119508074D01*
X33404000Y-119276396D01*
X33404000Y-118975604D01*
X33345319Y-118680590D01*
X33230210Y-118402694D01*
X33063099Y-118152594D01*
X32850406Y-117939901D01*
X32600306Y-117772790D01*
X32322410Y-117657681D01*
X32027396Y-117599000D01*
X31726604Y-117599000D01*
X31431590Y-117657681D01*
X31153694Y-117772790D01*
X30903594Y-117939901D01*
X30690901Y-118152594D01*
X30523790Y-118402694D01*
X30408681Y-118680590D01*
X30350000Y-118975604D01*
X25577000Y-118975604D01*
X25577000Y-111355604D01*
X30350000Y-111355604D01*
X30350000Y-111656396D01*
X30408681Y-111951410D01*
X30523790Y-112229306D01*
X30690901Y-112479406D01*
X30903594Y-112692099D01*
X31153694Y-112859210D01*
X31431590Y-112974319D01*
X31726604Y-113033000D01*
X32027396Y-113033000D01*
X32259073Y-112986917D01*
X32570592Y-113298436D01*
X32594920Y-113328080D01*
X32624564Y-113352408D01*
X32624565Y-113352409D01*
X32713233Y-113425177D01*
X32848216Y-113497327D01*
X32994681Y-113541757D01*
X33108834Y-113553000D01*
X33108843Y-113553000D01*
X33146999Y-113556758D01*
X33185155Y-113553000D01*
X37299837Y-113553000D01*
X37338000Y-113556759D01*
X37376163Y-113553000D01*
X37376166Y-113553000D01*
X37490319Y-113541757D01*
X37636784Y-113497327D01*
X37771766Y-113425177D01*
X37780824Y-113417743D01*
X37801921Y-113443450D01*
X37831565Y-113467778D01*
X38424220Y-114060434D01*
X38448550Y-114090080D01*
X38478194Y-114114408D01*
X38478195Y-114114409D01*
X38566863Y-114187177D01*
X38622808Y-114217080D01*
X38701846Y-114259327D01*
X38848311Y-114303757D01*
X38962464Y-114315000D01*
X38962466Y-114315000D01*
X39000630Y-114318759D01*
X39038793Y-114315000D01*
X44382157Y-114315000D01*
X45197000Y-115129844D01*
X45197000Y-115510451D01*
X45174000Y-115510451D01*
X45070690Y-115520626D01*
X44971350Y-115550761D01*
X44879798Y-115599696D01*
X44799552Y-115665552D01*
X44733696Y-115745798D01*
X44684761Y-115837350D01*
X44654626Y-115936690D01*
X44644451Y-116040000D01*
X44644451Y-117313001D01*
X39925844Y-117313001D01*
X39730413Y-117117570D01*
X39730408Y-117117564D01*
X39664831Y-117051987D01*
X39681000Y-116970698D01*
X39681000Y-116709302D01*
X39630004Y-116452928D01*
X39529972Y-116211430D01*
X39384748Y-115994087D01*
X39199913Y-115809252D01*
X38982570Y-115664028D01*
X38741072Y-115563996D01*
X38484698Y-115513000D01*
X38223302Y-115513000D01*
X37966928Y-115563996D01*
X37725430Y-115664028D01*
X37508087Y-115809252D01*
X37323252Y-115994087D01*
X37178028Y-116211430D01*
X37077996Y-116452928D01*
X37028517Y-116701674D01*
X36898412Y-116571569D01*
X36874080Y-116541920D01*
X36755766Y-116444823D01*
X36620784Y-116372673D01*
X36474319Y-116328243D01*
X36360166Y-116317000D01*
X36360163Y-116317000D01*
X36322000Y-116313241D01*
X36283837Y-116317000D01*
X33976844Y-116317000D01*
X33357917Y-115698074D01*
X33404000Y-115466396D01*
X33404000Y-115165604D01*
X33345319Y-114870590D01*
X33230210Y-114592694D01*
X33063099Y-114342594D01*
X32850406Y-114129901D01*
X32600306Y-113962790D01*
X32322410Y-113847681D01*
X32027396Y-113789000D01*
X31726604Y-113789000D01*
X31431590Y-113847681D01*
X31153694Y-113962790D01*
X30903594Y-114129901D01*
X30690901Y-114342594D01*
X30523790Y-114592694D01*
X30408681Y-114870590D01*
X30350000Y-115165604D01*
X30350000Y-115466396D01*
X30408681Y-115761410D01*
X30523790Y-116039306D01*
X30690901Y-116289406D01*
X30903594Y-116502099D01*
X31153694Y-116669210D01*
X31431590Y-116784319D01*
X31726604Y-116843000D01*
X32027396Y-116843000D01*
X32259074Y-116796917D01*
X32785656Y-117323499D01*
X32806673Y-117392784D01*
X32878823Y-117527766D01*
X32970930Y-117640000D01*
X32975920Y-117646080D01*
X33094234Y-117743177D01*
X33229216Y-117815327D01*
X33375681Y-117859757D01*
X33528000Y-117874759D01*
X33566166Y-117871000D01*
X36000157Y-117871000D01*
X37441603Y-119312447D01*
X37465931Y-119342091D01*
X37495575Y-119366419D01*
X37495576Y-119366420D01*
X37529398Y-119394177D01*
X37584245Y-119439188D01*
X37719227Y-119511338D01*
X37865692Y-119555768D01*
X37979845Y-119567011D01*
X37979847Y-119567011D01*
X38018011Y-119570770D01*
X38056174Y-119567011D01*
X47385791Y-119567011D01*
X47423954Y-119570770D01*
X47462117Y-119567011D01*
X47462120Y-119567011D01*
X47576273Y-119555768D01*
X47722738Y-119511338D01*
X47857720Y-119439188D01*
X47976034Y-119342091D01*
X48000366Y-119312442D01*
X48833935Y-118478873D01*
X48901430Y-118523972D01*
X49142928Y-118624004D01*
X49399302Y-118675000D01*
X49660698Y-118675000D01*
X49917072Y-118624004D01*
X50158570Y-118523972D01*
X50375913Y-118378748D01*
X50560748Y-118193913D01*
X50705972Y-117976570D01*
X50806004Y-117735072D01*
X50857000Y-117478698D01*
X50857000Y-117217302D01*
X50806004Y-116960928D01*
X50705972Y-116719430D01*
X50560748Y-116502087D01*
X50375913Y-116317252D01*
X50158570Y-116172028D01*
X49931567Y-116078000D01*
X50158570Y-115983972D01*
X50375913Y-115838748D01*
X50560748Y-115653913D01*
X50705972Y-115436570D01*
X50806004Y-115195072D01*
X50857000Y-114938698D01*
X50857000Y-114677302D01*
X50806004Y-114420928D01*
X50705972Y-114179430D01*
X50560748Y-113962087D01*
X50375913Y-113777252D01*
X50158570Y-113632028D01*
X49917072Y-113531996D01*
X49660698Y-113481000D01*
X49399302Y-113481000D01*
X49142928Y-113531996D01*
X48901430Y-113632028D01*
X48684087Y-113777252D01*
X48499252Y-113962087D01*
X48354028Y-114179430D01*
X48253996Y-114420928D01*
X48203000Y-114677302D01*
X48203000Y-114878851D01*
X48177217Y-114886672D01*
X48042234Y-114958822D01*
X47956688Y-115029028D01*
X47923921Y-115055919D01*
X47899593Y-115085563D01*
X47223031Y-115762125D01*
X47214304Y-115745798D01*
X47148448Y-115665552D01*
X47068202Y-115599696D01*
X46976650Y-115550761D01*
X46877310Y-115520626D01*
X46774000Y-115510451D01*
X46751000Y-115510451D01*
X46751000Y-115383843D01*
X48802435Y-113332409D01*
X48832079Y-113308081D01*
X48888595Y-113239216D01*
X48929176Y-113189768D01*
X49001326Y-113054785D01*
X49013798Y-113013671D01*
X49045756Y-112908320D01*
X49056999Y-112794167D01*
X49056999Y-112794158D01*
X49060757Y-112756002D01*
X49056999Y-112717846D01*
X49056999Y-112492411D01*
X49142928Y-112528004D01*
X49399302Y-112579000D01*
X49660698Y-112579000D01*
X49917072Y-112528004D01*
X50158570Y-112427972D01*
X50375913Y-112282748D01*
X50560748Y-112097913D01*
X50705972Y-111880570D01*
X50806004Y-111639072D01*
X50857000Y-111382698D01*
X50857000Y-111121302D01*
X50806004Y-110864928D01*
X50705972Y-110623430D01*
X50560748Y-110406087D01*
X50375913Y-110221252D01*
X50158570Y-110076028D01*
X49931567Y-109982000D01*
X50158570Y-109887972D01*
X50375913Y-109742748D01*
X50560748Y-109557913D01*
X50705972Y-109340570D01*
X50806004Y-109099072D01*
X50857000Y-108842698D01*
X50857000Y-108581302D01*
X50806004Y-108324928D01*
X50705972Y-108083430D01*
X50560748Y-107866087D01*
X50375913Y-107681252D01*
X50158570Y-107536028D01*
X49931567Y-107442000D01*
X50158570Y-107347972D01*
X50375913Y-107202748D01*
X50560748Y-107017913D01*
X50705972Y-106800570D01*
X50806004Y-106559072D01*
X50857000Y-106302698D01*
X50857000Y-106041302D01*
X50806004Y-105784928D01*
X50705972Y-105543430D01*
X50560748Y-105326087D01*
X50375913Y-105141252D01*
X50158570Y-104996028D01*
X50075331Y-104961549D01*
X50330000Y-104961549D01*
X50433310Y-104951374D01*
X50532650Y-104921239D01*
X50624202Y-104872304D01*
X50704448Y-104806448D01*
X50770304Y-104726202D01*
X50819239Y-104634650D01*
X50849374Y-104535310D01*
X50859549Y-104432000D01*
X50859549Y-102832000D01*
X50849374Y-102728690D01*
X50819239Y-102629350D01*
X50770304Y-102537798D01*
X50704448Y-102457552D01*
X50624202Y-102391696D01*
X50532650Y-102342761D01*
X50433310Y-102312626D01*
X50330000Y-102302451D01*
X48730000Y-102302451D01*
X48626690Y-102312626D01*
X48527350Y-102342761D01*
X48435798Y-102391696D01*
X48355552Y-102457552D01*
X48289696Y-102537798D01*
X48240761Y-102629350D01*
X48210626Y-102728690D01*
X48200451Y-102832000D01*
X48200451Y-104432000D01*
X48210626Y-104535310D01*
X48240761Y-104634650D01*
X48289696Y-104726202D01*
X48355552Y-104806448D01*
X48435798Y-104872304D01*
X48527350Y-104921239D01*
X48626690Y-104951374D01*
X48730000Y-104961549D01*
X48984669Y-104961549D01*
X48901430Y-104996028D01*
X48684087Y-105141252D01*
X48499252Y-105326087D01*
X48453206Y-105395000D01*
X47028163Y-105395000D01*
X46990000Y-105391241D01*
X46951836Y-105395000D01*
X46951834Y-105395000D01*
X46837681Y-105406243D01*
X46712202Y-105444307D01*
X46691216Y-105450673D01*
X46556233Y-105522823D01*
X46473438Y-105590771D01*
X46437920Y-105619920D01*
X46413592Y-105649564D01*
X46185987Y-105877169D01*
X46104698Y-105861000D01*
X45843302Y-105861000D01*
X45586928Y-105911996D01*
X45345430Y-106012028D01*
X45128087Y-106157252D01*
X44943252Y-106342087D01*
X44798028Y-106559430D01*
X44697996Y-106800928D01*
X44647000Y-107057302D01*
X44647000Y-107318698D01*
X44697996Y-107575072D01*
X44798028Y-107816570D01*
X44943252Y-108033913D01*
X45128087Y-108218748D01*
X45197000Y-108264794D01*
X45197001Y-110430451D01*
X45174000Y-110430451D01*
X45070690Y-110440626D01*
X44971350Y-110470761D01*
X44879798Y-110519696D01*
X44799552Y-110585552D01*
X44733696Y-110665798D01*
X44684761Y-110757350D01*
X44654626Y-110856690D01*
X44644451Y-110960000D01*
X44644451Y-112560000D01*
X44654626Y-112663310D01*
X44683726Y-112759238D01*
X44665837Y-112761000D01*
X39322474Y-112761000D01*
X39276067Y-112714594D01*
X39384748Y-112605913D01*
X39529972Y-112388570D01*
X39630004Y-112147072D01*
X39681000Y-111890698D01*
X39681000Y-111629302D01*
X39630004Y-111372928D01*
X39529972Y-111131430D01*
X39384748Y-110914087D01*
X39199913Y-110729252D01*
X38982570Y-110584028D01*
X38741072Y-110483996D01*
X38484698Y-110433000D01*
X38223302Y-110433000D01*
X37966928Y-110483996D01*
X37725430Y-110584028D01*
X37508087Y-110729252D01*
X37323252Y-110914087D01*
X37178028Y-111131430D01*
X37077996Y-111372928D01*
X37027000Y-111629302D01*
X37027000Y-111890698D01*
X37043169Y-111971987D01*
X37016157Y-111999000D01*
X33468844Y-111999000D01*
X33357917Y-111888073D01*
X33404000Y-111656396D01*
X33404000Y-111355604D01*
X33345319Y-111060590D01*
X33230210Y-110782694D01*
X33063099Y-110532594D01*
X32850406Y-110319901D01*
X32600306Y-110152790D01*
X32322410Y-110037681D01*
X32027396Y-109979000D01*
X31726604Y-109979000D01*
X31431590Y-110037681D01*
X31153694Y-110152790D01*
X30903594Y-110319901D01*
X30690901Y-110532594D01*
X30523790Y-110782694D01*
X30408681Y-111060590D01*
X30350000Y-111355604D01*
X25577000Y-111355604D01*
X25577000Y-106996000D01*
X30647451Y-106996000D01*
X30647451Y-108396000D01*
X30657626Y-108499310D01*
X30687761Y-108598650D01*
X30736696Y-108690202D01*
X30802552Y-108770448D01*
X30882798Y-108836304D01*
X30974350Y-108885239D01*
X31073690Y-108915374D01*
X31177000Y-108925549D01*
X32577000Y-108925549D01*
X32680310Y-108915374D01*
X32779650Y-108885239D01*
X32871202Y-108836304D01*
X32951448Y-108770448D01*
X32997045Y-108714888D01*
X33516590Y-109234434D01*
X33540920Y-109264080D01*
X33570564Y-109288408D01*
X33570565Y-109288409D01*
X33659233Y-109361177D01*
X33750427Y-109409921D01*
X33794216Y-109433327D01*
X33940681Y-109477757D01*
X34054834Y-109489000D01*
X34054836Y-109489000D01*
X34093000Y-109492759D01*
X34131163Y-109489000D01*
X37807837Y-109489000D01*
X37846000Y-109492759D01*
X37884163Y-109489000D01*
X37884166Y-109489000D01*
X37998319Y-109477757D01*
X38144784Y-109433327D01*
X38279766Y-109361177D01*
X38398080Y-109264080D01*
X38422413Y-109234430D01*
X38876432Y-108780411D01*
X38906080Y-108756080D01*
X38963624Y-108685962D01*
X39003177Y-108637767D01*
X39075327Y-108502784D01*
X39076381Y-108499310D01*
X39119757Y-108356319D01*
X39128614Y-108266388D01*
X39199913Y-108218748D01*
X39384748Y-108033913D01*
X39529972Y-107816570D01*
X39630004Y-107575072D01*
X39681000Y-107318698D01*
X39681000Y-107057302D01*
X39630004Y-106800928D01*
X39529972Y-106559430D01*
X39384748Y-106342087D01*
X39199913Y-106157252D01*
X38982570Y-106012028D01*
X38741072Y-105911996D01*
X38484698Y-105861000D01*
X38223302Y-105861000D01*
X37966928Y-105911996D01*
X37725430Y-106012028D01*
X37508087Y-106157252D01*
X37323252Y-106342087D01*
X37178028Y-106559430D01*
X37077996Y-106800928D01*
X37027000Y-107057302D01*
X37027000Y-107318698D01*
X37077996Y-107575072D01*
X37178028Y-107816570D01*
X37257160Y-107935000D01*
X34414844Y-107935000D01*
X33653412Y-107173569D01*
X33629080Y-107143920D01*
X33510766Y-107046823D01*
X33375784Y-106974673D01*
X33229319Y-106930243D01*
X33115166Y-106919000D01*
X33115163Y-106919000D01*
X33098807Y-106917389D01*
X33096374Y-106892690D01*
X33066239Y-106793350D01*
X33017304Y-106701798D01*
X32951448Y-106621552D01*
X32871202Y-106555696D01*
X32779650Y-106506761D01*
X32680310Y-106476626D01*
X32577000Y-106466451D01*
X31177000Y-106466451D01*
X31073690Y-106476626D01*
X30974350Y-106506761D01*
X30882798Y-106555696D01*
X30802552Y-106621552D01*
X30736696Y-106701798D01*
X30687761Y-106793350D01*
X30657626Y-106892690D01*
X30647451Y-106996000D01*
X25577000Y-106996000D01*
X25577000Y-101790509D01*
X27873000Y-101790509D01*
X27873000Y-102209491D01*
X27954739Y-102620423D01*
X28115077Y-103007512D01*
X28347851Y-103355884D01*
X28644116Y-103652149D01*
X28992488Y-103884923D01*
X29379577Y-104045261D01*
X29790509Y-104127000D01*
X30209491Y-104127000D01*
X30620423Y-104045261D01*
X31007512Y-103884923D01*
X31355884Y-103652149D01*
X31652149Y-103355884D01*
X31884923Y-103007512D01*
X32045261Y-102620423D01*
X32127000Y-102209491D01*
X32127000Y-101790509D01*
X32045261Y-101379577D01*
X31884923Y-100992488D01*
X31652149Y-100644116D01*
X31355884Y-100347851D01*
X31007512Y-100115077D01*
X30620423Y-99954739D01*
X30209491Y-99873000D01*
X29790509Y-99873000D01*
X29379577Y-99954739D01*
X28992488Y-100115077D01*
X28644116Y-100347851D01*
X28347851Y-100644116D01*
X28115077Y-100992488D01*
X27954739Y-101379577D01*
X27873000Y-101790509D01*
X25577000Y-101790509D01*
X25577000Y-101028219D01*
X25625860Y-100529906D01*
X25762382Y-100077723D01*
X25984135Y-99660664D01*
X26282674Y-99294621D01*
X26646621Y-98993537D01*
X27062127Y-98768875D01*
X27513344Y-98629199D01*
X28009988Y-98577000D01*
X84971781Y-98577000D01*
X85470094Y-98625860D01*
G36*
X63960481Y-109548414D02*
G01*
X64168869Y-109737385D01*
X64410119Y-109882070D01*
X64488939Y-109910295D01*
X64395430Y-109949028D01*
X64178087Y-110094252D01*
X63993252Y-110279087D01*
X63848028Y-110496430D01*
X63747996Y-110737928D01*
X63697000Y-110994302D01*
X63697000Y-111255698D01*
X63747996Y-111512072D01*
X63848028Y-111753570D01*
X63993252Y-111970913D01*
X64178087Y-112155748D01*
X64395430Y-112300972D01*
X64622433Y-112395000D01*
X64395430Y-112489028D01*
X64178087Y-112634252D01*
X63993252Y-112819087D01*
X63848028Y-113036430D01*
X63747996Y-113277928D01*
X63697000Y-113534302D01*
X63697000Y-113795698D01*
X63747996Y-114052072D01*
X63848028Y-114293570D01*
X63993252Y-114510913D01*
X64178087Y-114695748D01*
X64395430Y-114840972D01*
X64622433Y-114935000D01*
X64395430Y-115029028D01*
X64178087Y-115174252D01*
X63993252Y-115359087D01*
X63848028Y-115576430D01*
X63747996Y-115817928D01*
X63697000Y-116074302D01*
X63697000Y-116335698D01*
X63747996Y-116592072D01*
X63848028Y-116833570D01*
X63993252Y-117050913D01*
X64178087Y-117235748D01*
X64395430Y-117380972D01*
X64622433Y-117475000D01*
X64395430Y-117569028D01*
X64178087Y-117714252D01*
X63993252Y-117899087D01*
X63848028Y-118116430D01*
X63747996Y-118357928D01*
X63697000Y-118614302D01*
X63697000Y-118875698D01*
X63747996Y-119132072D01*
X63848028Y-119373570D01*
X63993252Y-119590913D01*
X64178087Y-119775748D01*
X64395430Y-119920972D01*
X64636928Y-120021004D01*
X64893302Y-120072000D01*
X65154698Y-120072000D01*
X65235987Y-120055831D01*
X66152001Y-120971845D01*
X66152000Y-122621206D01*
X66083087Y-122667252D01*
X65898252Y-122852087D01*
X65753028Y-123069430D01*
X65652996Y-123310928D01*
X65602000Y-123567302D01*
X65602000Y-123828698D01*
X65618169Y-123909987D01*
X65591157Y-123937000D01*
X64321549Y-123937000D01*
X64321549Y-123914000D01*
X64311374Y-123810690D01*
X64281239Y-123711350D01*
X64232304Y-123619798D01*
X64166448Y-123539552D01*
X64107403Y-123491095D01*
X64228671Y-123455514D01*
X64349571Y-123200004D01*
X64418300Y-122925816D01*
X64432217Y-122643488D01*
X64390787Y-122363870D01*
X64295603Y-122097708D01*
X64228671Y-121972486D01*
X63984702Y-121900903D01*
X63171605Y-122714000D01*
X63185748Y-122728143D01*
X63006143Y-122907748D01*
X62992000Y-122893605D01*
X62977858Y-122907748D01*
X62798253Y-122728143D01*
X62812395Y-122714000D01*
X61999298Y-121900903D01*
X61755329Y-121972486D01*
X61634429Y-122227996D01*
X61565700Y-122502184D01*
X61551783Y-122784512D01*
X61593213Y-123064130D01*
X61688397Y-123330292D01*
X61755329Y-123455514D01*
X61876597Y-123491095D01*
X61817552Y-123539552D01*
X61751696Y-123619798D01*
X61702761Y-123711350D01*
X61672626Y-123810690D01*
X61662451Y-123914000D01*
X61662451Y-123937000D01*
X60519844Y-123937000D01*
X58460831Y-121877987D01*
X58477000Y-121796698D01*
X58477000Y-121721298D01*
X62178903Y-121721298D01*
X62992000Y-122534395D01*
X63805097Y-121721298D01*
X63733514Y-121477329D01*
X63478004Y-121356429D01*
X63203816Y-121287700D01*
X62921488Y-121273783D01*
X62641870Y-121315213D01*
X62375708Y-121410397D01*
X62250486Y-121477329D01*
X62178903Y-121721298D01*
X58477000Y-121721298D01*
X58477000Y-121535302D01*
X58426004Y-121278928D01*
X58325972Y-121037430D01*
X58180748Y-120820087D01*
X57995913Y-120635252D01*
X57778570Y-120490028D01*
X57537072Y-120389996D01*
X57280698Y-120339000D01*
X57019302Y-120339000D01*
X56938013Y-120355169D01*
X56149000Y-119566157D01*
X56149000Y-118637740D01*
X56246690Y-118667374D01*
X56350000Y-118677549D01*
X57950000Y-118677549D01*
X58053310Y-118667374D01*
X58152650Y-118637239D01*
X58244202Y-118588304D01*
X58324448Y-118522448D01*
X58390304Y-118442202D01*
X58439239Y-118350650D01*
X58469374Y-118251310D01*
X58479549Y-118148000D01*
X58479549Y-118125000D01*
X60010206Y-118125000D01*
X60056252Y-118193913D01*
X60241087Y-118378748D01*
X60458430Y-118523972D01*
X60699928Y-118624004D01*
X60956302Y-118675000D01*
X61217698Y-118675000D01*
X61474072Y-118624004D01*
X61715570Y-118523972D01*
X61932913Y-118378748D01*
X62117748Y-118193913D01*
X62262972Y-117976570D01*
X62363004Y-117735072D01*
X62414000Y-117478698D01*
X62414000Y-117217302D01*
X62363004Y-116960928D01*
X62262972Y-116719430D01*
X62117748Y-116502087D01*
X61932913Y-116317252D01*
X61715570Y-116172028D01*
X61474072Y-116071996D01*
X61217698Y-116021000D01*
X60956302Y-116021000D01*
X60699928Y-116071996D01*
X60458430Y-116172028D01*
X60241087Y-116317252D01*
X60056252Y-116502087D01*
X60010206Y-116571000D01*
X58479549Y-116571000D01*
X58479549Y-116548000D01*
X58469374Y-116444690D01*
X58439239Y-116345350D01*
X58390304Y-116253798D01*
X58324448Y-116173552D01*
X58244202Y-116107696D01*
X58152650Y-116058761D01*
X58053310Y-116028626D01*
X57950000Y-116018451D01*
X57908311Y-116018451D01*
X58005131Y-115960385D01*
X58213519Y-115771414D01*
X58381037Y-115545420D01*
X58501246Y-115291087D01*
X58541904Y-115157039D01*
X58419915Y-114935000D01*
X57277000Y-114935000D01*
X57277000Y-114955000D01*
X57023000Y-114955000D01*
X57023000Y-114935000D01*
X57003000Y-114935000D01*
X57003000Y-114681000D01*
X57023000Y-114681000D01*
X57023000Y-113537376D01*
X57277000Y-113537376D01*
X57277000Y-114681000D01*
X58419915Y-114681000D01*
X58541904Y-114458961D01*
X58501246Y-114324913D01*
X58381037Y-114070580D01*
X58213519Y-113844586D01*
X58005131Y-113655615D01*
X57763881Y-113510930D01*
X57499040Y-113416091D01*
X57277000Y-113537376D01*
X57023000Y-113537376D01*
X56800960Y-113416091D01*
X56536119Y-113510930D01*
X56294869Y-113655615D01*
X56149000Y-113787892D01*
X56149000Y-112272108D01*
X56294869Y-112404385D01*
X56536119Y-112549070D01*
X56800960Y-112643909D01*
X57023000Y-112522624D01*
X57023000Y-111379000D01*
X57277000Y-111379000D01*
X57277000Y-112522624D01*
X57499040Y-112643909D01*
X57763881Y-112549070D01*
X58005131Y-112404385D01*
X58213519Y-112215414D01*
X58381037Y-111989420D01*
X58501246Y-111735087D01*
X58541904Y-111601039D01*
X58419915Y-111379000D01*
X57277000Y-111379000D01*
X57023000Y-111379000D01*
X57003000Y-111379000D01*
X57003000Y-111125000D01*
X57023000Y-111125000D01*
X57023000Y-111105000D01*
X57277000Y-111105000D01*
X57277000Y-111125000D01*
X58419915Y-111125000D01*
X58435603Y-111096446D01*
X58839593Y-111500437D01*
X58863921Y-111530081D01*
X58893565Y-111554409D01*
X58893566Y-111554410D01*
X58982234Y-111627178D01*
X59040493Y-111658318D01*
X59117217Y-111699328D01*
X59263682Y-111743758D01*
X59377835Y-111755001D01*
X59377844Y-111755001D01*
X59416000Y-111758759D01*
X59454156Y-111755001D01*
X61648838Y-111755001D01*
X61687001Y-111758760D01*
X61725164Y-111755001D01*
X61725167Y-111755001D01*
X61839320Y-111743758D01*
X61985785Y-111699328D01*
X62120767Y-111627178D01*
X62239081Y-111530081D01*
X62263413Y-111500432D01*
X63641437Y-110122409D01*
X63671080Y-110098082D01*
X63695409Y-110068437D01*
X63768177Y-109979769D01*
X63840327Y-109844786D01*
X63858562Y-109784674D01*
X63884757Y-109698321D01*
X63896000Y-109584168D01*
X63896000Y-109584159D01*
X63899758Y-109546003D01*
X63896000Y-109507847D01*
X63896000Y-109461424D01*
X63960481Y-109548414D01*
G37*
X63960481Y-109548414D02*
X64168869Y-109737385D01*
X64410119Y-109882070D01*
X64488939Y-109910295D01*
X64395430Y-109949028D01*
X64178087Y-110094252D01*
X63993252Y-110279087D01*
X63848028Y-110496430D01*
X63747996Y-110737928D01*
X63697000Y-110994302D01*
X63697000Y-111255698D01*
X63747996Y-111512072D01*
X63848028Y-111753570D01*
X63993252Y-111970913D01*
X64178087Y-112155748D01*
X64395430Y-112300972D01*
X64622433Y-112395000D01*
X64395430Y-112489028D01*
X64178087Y-112634252D01*
X63993252Y-112819087D01*
X63848028Y-113036430D01*
X63747996Y-113277928D01*
X63697000Y-113534302D01*
X63697000Y-113795698D01*
X63747996Y-114052072D01*
X63848028Y-114293570D01*
X63993252Y-114510913D01*
X64178087Y-114695748D01*
X64395430Y-114840972D01*
X64622433Y-114935000D01*
X64395430Y-115029028D01*
X64178087Y-115174252D01*
X63993252Y-115359087D01*
X63848028Y-115576430D01*
X63747996Y-115817928D01*
X63697000Y-116074302D01*
X63697000Y-116335698D01*
X63747996Y-116592072D01*
X63848028Y-116833570D01*
X63993252Y-117050913D01*
X64178087Y-117235748D01*
X64395430Y-117380972D01*
X64622433Y-117475000D01*
X64395430Y-117569028D01*
X64178087Y-117714252D01*
X63993252Y-117899087D01*
X63848028Y-118116430D01*
X63747996Y-118357928D01*
X63697000Y-118614302D01*
X63697000Y-118875698D01*
X63747996Y-119132072D01*
X63848028Y-119373570D01*
X63993252Y-119590913D01*
X64178087Y-119775748D01*
X64395430Y-119920972D01*
X64636928Y-120021004D01*
X64893302Y-120072000D01*
X65154698Y-120072000D01*
X65235987Y-120055831D01*
X66152001Y-120971845D01*
X66152000Y-122621206D01*
X66083087Y-122667252D01*
X65898252Y-122852087D01*
X65753028Y-123069430D01*
X65652996Y-123310928D01*
X65602000Y-123567302D01*
X65602000Y-123828698D01*
X65618169Y-123909987D01*
X65591157Y-123937000D01*
X64321549Y-123937000D01*
X64321549Y-123914000D01*
X64311374Y-123810690D01*
X64281239Y-123711350D01*
X64232304Y-123619798D01*
X64166448Y-123539552D01*
X64107403Y-123491095D01*
X64228671Y-123455514D01*
X64349571Y-123200004D01*
X64418300Y-122925816D01*
X64432217Y-122643488D01*
X64390787Y-122363870D01*
X64295603Y-122097708D01*
X64228671Y-121972486D01*
X63984702Y-121900903D01*
X63171605Y-122714000D01*
X63185748Y-122728143D01*
X63006143Y-122907748D01*
X62992000Y-122893605D01*
X62977858Y-122907748D01*
X62798253Y-122728143D01*
X62812395Y-122714000D01*
X61999298Y-121900903D01*
X61755329Y-121972486D01*
X61634429Y-122227996D01*
X61565700Y-122502184D01*
X61551783Y-122784512D01*
X61593213Y-123064130D01*
X61688397Y-123330292D01*
X61755329Y-123455514D01*
X61876597Y-123491095D01*
X61817552Y-123539552D01*
X61751696Y-123619798D01*
X61702761Y-123711350D01*
X61672626Y-123810690D01*
X61662451Y-123914000D01*
X61662451Y-123937000D01*
X60519844Y-123937000D01*
X58460831Y-121877987D01*
X58477000Y-121796698D01*
X58477000Y-121721298D01*
X62178903Y-121721298D01*
X62992000Y-122534395D01*
X63805097Y-121721298D01*
X63733514Y-121477329D01*
X63478004Y-121356429D01*
X63203816Y-121287700D01*
X62921488Y-121273783D01*
X62641870Y-121315213D01*
X62375708Y-121410397D01*
X62250486Y-121477329D01*
X62178903Y-121721298D01*
X58477000Y-121721298D01*
X58477000Y-121535302D01*
X58426004Y-121278928D01*
X58325972Y-121037430D01*
X58180748Y-120820087D01*
X57995913Y-120635252D01*
X57778570Y-120490028D01*
X57537072Y-120389996D01*
X57280698Y-120339000D01*
X57019302Y-120339000D01*
X56938013Y-120355169D01*
X56149000Y-119566157D01*
X56149000Y-118637740D01*
X56246690Y-118667374D01*
X56350000Y-118677549D01*
X57950000Y-118677549D01*
X58053310Y-118667374D01*
X58152650Y-118637239D01*
X58244202Y-118588304D01*
X58324448Y-118522448D01*
X58390304Y-118442202D01*
X58439239Y-118350650D01*
X58469374Y-118251310D01*
X58479549Y-118148000D01*
X58479549Y-118125000D01*
X60010206Y-118125000D01*
X60056252Y-118193913D01*
X60241087Y-118378748D01*
X60458430Y-118523972D01*
X60699928Y-118624004D01*
X60956302Y-118675000D01*
X61217698Y-118675000D01*
X61474072Y-118624004D01*
X61715570Y-118523972D01*
X61932913Y-118378748D01*
X62117748Y-118193913D01*
X62262972Y-117976570D01*
X62363004Y-117735072D01*
X62414000Y-117478698D01*
X62414000Y-117217302D01*
X62363004Y-116960928D01*
X62262972Y-116719430D01*
X62117748Y-116502087D01*
X61932913Y-116317252D01*
X61715570Y-116172028D01*
X61474072Y-116071996D01*
X61217698Y-116021000D01*
X60956302Y-116021000D01*
X60699928Y-116071996D01*
X60458430Y-116172028D01*
X60241087Y-116317252D01*
X60056252Y-116502087D01*
X60010206Y-116571000D01*
X58479549Y-116571000D01*
X58479549Y-116548000D01*
X58469374Y-116444690D01*
X58439239Y-116345350D01*
X58390304Y-116253798D01*
X58324448Y-116173552D01*
X58244202Y-116107696D01*
X58152650Y-116058761D01*
X58053310Y-116028626D01*
X57950000Y-116018451D01*
X57908311Y-116018451D01*
X58005131Y-115960385D01*
X58213519Y-115771414D01*
X58381037Y-115545420D01*
X58501246Y-115291087D01*
X58541904Y-115157039D01*
X58419915Y-114935000D01*
X57277000Y-114935000D01*
X57277000Y-114955000D01*
X57023000Y-114955000D01*
X57023000Y-114935000D01*
X57003000Y-114935000D01*
X57003000Y-114681000D01*
X57023000Y-114681000D01*
X57023000Y-113537376D01*
X57277000Y-113537376D01*
X57277000Y-114681000D01*
X58419915Y-114681000D01*
X58541904Y-114458961D01*
X58501246Y-114324913D01*
X58381037Y-114070580D01*
X58213519Y-113844586D01*
X58005131Y-113655615D01*
X57763881Y-113510930D01*
X57499040Y-113416091D01*
X57277000Y-113537376D01*
X57023000Y-113537376D01*
X56800960Y-113416091D01*
X56536119Y-113510930D01*
X56294869Y-113655615D01*
X56149000Y-113787892D01*
X56149000Y-112272108D01*
X56294869Y-112404385D01*
X56536119Y-112549070D01*
X56800960Y-112643909D01*
X57023000Y-112522624D01*
X57023000Y-111379000D01*
X57277000Y-111379000D01*
X57277000Y-112522624D01*
X57499040Y-112643909D01*
X57763881Y-112549070D01*
X58005131Y-112404385D01*
X58213519Y-112215414D01*
X58381037Y-111989420D01*
X58501246Y-111735087D01*
X58541904Y-111601039D01*
X58419915Y-111379000D01*
X57277000Y-111379000D01*
X57023000Y-111379000D01*
X57003000Y-111379000D01*
X57003000Y-111125000D01*
X57023000Y-111125000D01*
X57023000Y-111105000D01*
X57277000Y-111105000D01*
X57277000Y-111125000D01*
X58419915Y-111125000D01*
X58435603Y-111096446D01*
X58839593Y-111500437D01*
X58863921Y-111530081D01*
X58893565Y-111554409D01*
X58893566Y-111554410D01*
X58982234Y-111627178D01*
X59040493Y-111658318D01*
X59117217Y-111699328D01*
X59263682Y-111743758D01*
X59377835Y-111755001D01*
X59377844Y-111755001D01*
X59416000Y-111758759D01*
X59454156Y-111755001D01*
X61648838Y-111755001D01*
X61687001Y-111758760D01*
X61725164Y-111755001D01*
X61725167Y-111755001D01*
X61839320Y-111743758D01*
X61985785Y-111699328D01*
X62120767Y-111627178D01*
X62239081Y-111530081D01*
X62263413Y-111500432D01*
X63641437Y-110122409D01*
X63671080Y-110098082D01*
X63695409Y-110068437D01*
X63768177Y-109979769D01*
X63840327Y-109844786D01*
X63858562Y-109784674D01*
X63884757Y-109698321D01*
X63896000Y-109584168D01*
X63896000Y-109584159D01*
X63899758Y-109546003D01*
X63896000Y-109507847D01*
X63896000Y-109461424D01*
X63960481Y-109548414D01*
G36*
X68184000Y-108017844D02*
G01*
X68184001Y-114642827D01*
X68180241Y-114681000D01*
X68195244Y-114833318D01*
X68239673Y-114979783D01*
X68311823Y-115114766D01*
X68384591Y-115203434D01*
X68408921Y-115233080D01*
X68438565Y-115257408D01*
X69908590Y-116727434D01*
X69932920Y-116757080D01*
X69962564Y-116781408D01*
X69962565Y-116781409D01*
X70051233Y-116854177D01*
X70108493Y-116884783D01*
X70186216Y-116926327D01*
X70332681Y-116970757D01*
X70446834Y-116982000D01*
X70446843Y-116982000D01*
X70484999Y-116985758D01*
X70523155Y-116982000D01*
X71567206Y-116982000D01*
X71613252Y-117050913D01*
X71798087Y-117235748D01*
X72015430Y-117380972D01*
X72098669Y-117415451D01*
X71844000Y-117415451D01*
X71740690Y-117425626D01*
X71641350Y-117455761D01*
X71549798Y-117504696D01*
X71469552Y-117570552D01*
X71403696Y-117650798D01*
X71354761Y-117742350D01*
X71324626Y-117841690D01*
X71314451Y-117945000D01*
X71314451Y-117968000D01*
X66100794Y-117968000D01*
X66054748Y-117899087D01*
X65869913Y-117714252D01*
X65652570Y-117569028D01*
X65425567Y-117475000D01*
X65652570Y-117380972D01*
X65869913Y-117235748D01*
X66054748Y-117050913D01*
X66199972Y-116833570D01*
X66300004Y-116592072D01*
X66351000Y-116335698D01*
X66351000Y-116074302D01*
X66300004Y-115817928D01*
X66199972Y-115576430D01*
X66054748Y-115359087D01*
X65869913Y-115174252D01*
X65652570Y-115029028D01*
X65425567Y-114935000D01*
X65652570Y-114840972D01*
X65869913Y-114695748D01*
X66054748Y-114510913D01*
X66199972Y-114293570D01*
X66300004Y-114052072D01*
X66351000Y-113795698D01*
X66351000Y-113534302D01*
X66300004Y-113277928D01*
X66199972Y-113036430D01*
X66054748Y-112819087D01*
X65869913Y-112634252D01*
X65652570Y-112489028D01*
X65425567Y-112395000D01*
X65652570Y-112300972D01*
X65869913Y-112155748D01*
X66054748Y-111970913D01*
X66199972Y-111753570D01*
X66300004Y-111512072D01*
X66351000Y-111255698D01*
X66351000Y-110994302D01*
X66300004Y-110737928D01*
X66199972Y-110496430D01*
X66054748Y-110279087D01*
X65869913Y-110094252D01*
X65652570Y-109949028D01*
X65559061Y-109910295D01*
X65637881Y-109882070D01*
X65879131Y-109737385D01*
X66087519Y-109548414D01*
X66255037Y-109322420D01*
X66375246Y-109068087D01*
X66415904Y-108934039D01*
X66293915Y-108712000D01*
X65151000Y-108712000D01*
X65151000Y-108732000D01*
X64897000Y-108732000D01*
X64897000Y-108712000D01*
X64877000Y-108712000D01*
X64877000Y-108458000D01*
X64897000Y-108458000D01*
X64897000Y-108438000D01*
X65151000Y-108438000D01*
X65151000Y-108458000D01*
X66293915Y-108458000D01*
X66415904Y-108235961D01*
X66375246Y-108101913D01*
X66255037Y-107847580D01*
X66087519Y-107621586D01*
X65879131Y-107432615D01*
X65637881Y-107287930D01*
X65618730Y-107281072D01*
X65673177Y-107214729D01*
X65679435Y-107203022D01*
X65869913Y-107075748D01*
X66054748Y-106890913D01*
X66100794Y-106822000D01*
X66988157Y-106822000D01*
X68184000Y-108017844D01*
G37*
X68184000Y-108017844D02*
X68184001Y-114642827D01*
X68180241Y-114681000D01*
X68195244Y-114833318D01*
X68239673Y-114979783D01*
X68311823Y-115114766D01*
X68384591Y-115203434D01*
X68408921Y-115233080D01*
X68438565Y-115257408D01*
X69908590Y-116727434D01*
X69932920Y-116757080D01*
X69962564Y-116781408D01*
X69962565Y-116781409D01*
X70051233Y-116854177D01*
X70108493Y-116884783D01*
X70186216Y-116926327D01*
X70332681Y-116970757D01*
X70446834Y-116982000D01*
X70446843Y-116982000D01*
X70484999Y-116985758D01*
X70523155Y-116982000D01*
X71567206Y-116982000D01*
X71613252Y-117050913D01*
X71798087Y-117235748D01*
X72015430Y-117380972D01*
X72098669Y-117415451D01*
X71844000Y-117415451D01*
X71740690Y-117425626D01*
X71641350Y-117455761D01*
X71549798Y-117504696D01*
X71469552Y-117570552D01*
X71403696Y-117650798D01*
X71354761Y-117742350D01*
X71324626Y-117841690D01*
X71314451Y-117945000D01*
X71314451Y-117968000D01*
X66100794Y-117968000D01*
X66054748Y-117899087D01*
X65869913Y-117714252D01*
X65652570Y-117569028D01*
X65425567Y-117475000D01*
X65652570Y-117380972D01*
X65869913Y-117235748D01*
X66054748Y-117050913D01*
X66199972Y-116833570D01*
X66300004Y-116592072D01*
X66351000Y-116335698D01*
X66351000Y-116074302D01*
X66300004Y-115817928D01*
X66199972Y-115576430D01*
X66054748Y-115359087D01*
X65869913Y-115174252D01*
X65652570Y-115029028D01*
X65425567Y-114935000D01*
X65652570Y-114840972D01*
X65869913Y-114695748D01*
X66054748Y-114510913D01*
X66199972Y-114293570D01*
X66300004Y-114052072D01*
X66351000Y-113795698D01*
X66351000Y-113534302D01*
X66300004Y-113277928D01*
X66199972Y-113036430D01*
X66054748Y-112819087D01*
X65869913Y-112634252D01*
X65652570Y-112489028D01*
X65425567Y-112395000D01*
X65652570Y-112300972D01*
X65869913Y-112155748D01*
X66054748Y-111970913D01*
X66199972Y-111753570D01*
X66300004Y-111512072D01*
X66351000Y-111255698D01*
X66351000Y-110994302D01*
X66300004Y-110737928D01*
X66199972Y-110496430D01*
X66054748Y-110279087D01*
X65869913Y-110094252D01*
X65652570Y-109949028D01*
X65559061Y-109910295D01*
X65637881Y-109882070D01*
X65879131Y-109737385D01*
X66087519Y-109548414D01*
X66255037Y-109322420D01*
X66375246Y-109068087D01*
X66415904Y-108934039D01*
X66293915Y-108712000D01*
X65151000Y-108712000D01*
X65151000Y-108732000D01*
X64897000Y-108732000D01*
X64897000Y-108712000D01*
X64877000Y-108712000D01*
X64877000Y-108458000D01*
X64897000Y-108458000D01*
X64897000Y-108438000D01*
X65151000Y-108438000D01*
X65151000Y-108458000D01*
X66293915Y-108458000D01*
X66415904Y-108235961D01*
X66375246Y-108101913D01*
X66255037Y-107847580D01*
X66087519Y-107621586D01*
X65879131Y-107432615D01*
X65637881Y-107287930D01*
X65618730Y-107281072D01*
X65673177Y-107214729D01*
X65679435Y-107203022D01*
X65869913Y-107075748D01*
X66054748Y-106890913D01*
X66100794Y-106822000D01*
X66988157Y-106822000D01*
X68184000Y-108017844D01*
G36*
X71252096Y-103155961D02*
G01*
X71374085Y-103378000D01*
X72517000Y-103378000D01*
X72517000Y-103358000D01*
X72771000Y-103358000D01*
X72771000Y-103378000D01*
X73913915Y-103378000D01*
X74035904Y-103155961D01*
X73998305Y-103031999D01*
X75771156Y-103031999D01*
X78352989Y-105613833D01*
X78352990Y-113127816D01*
X78349230Y-113165989D01*
X78352005Y-113194162D01*
X78300412Y-113142569D01*
X78276080Y-113112920D01*
X78157766Y-113015823D01*
X78022784Y-112943673D01*
X77876319Y-112899243D01*
X77762166Y-112888000D01*
X77762163Y-112888000D01*
X77724000Y-112884241D01*
X77685837Y-112888000D01*
X73720794Y-112888000D01*
X73674748Y-112819087D01*
X73489913Y-112634252D01*
X73272570Y-112489028D01*
X73045567Y-112395000D01*
X73272570Y-112300972D01*
X73489913Y-112155748D01*
X73674748Y-111970913D01*
X73819972Y-111753570D01*
X73920004Y-111512072D01*
X73971000Y-111255698D01*
X73971000Y-110994302D01*
X73920004Y-110737928D01*
X73819972Y-110496430D01*
X73674748Y-110279087D01*
X73489913Y-110094252D01*
X73272570Y-109949028D01*
X73045567Y-109855000D01*
X73272570Y-109760972D01*
X73489913Y-109615748D01*
X73674748Y-109430913D01*
X73819972Y-109213570D01*
X73920004Y-108972072D01*
X73971000Y-108715698D01*
X73971000Y-108454302D01*
X73920004Y-108197928D01*
X73819972Y-107956430D01*
X73674748Y-107739087D01*
X73489913Y-107554252D01*
X73272570Y-107409028D01*
X73045567Y-107315000D01*
X73272570Y-107220972D01*
X73489913Y-107075748D01*
X73674748Y-106890913D01*
X73819972Y-106673570D01*
X73920004Y-106432072D01*
X73971000Y-106175698D01*
X73971000Y-105914302D01*
X73920004Y-105657928D01*
X73819972Y-105416430D01*
X73674748Y-105199087D01*
X73489913Y-105014252D01*
X73272570Y-104869028D01*
X73179061Y-104830295D01*
X73257881Y-104802070D01*
X73499131Y-104657385D01*
X73707519Y-104468414D01*
X73875037Y-104242420D01*
X73995246Y-103988087D01*
X74035904Y-103854039D01*
X73913915Y-103632000D01*
X72771000Y-103632000D01*
X72771000Y-103652000D01*
X72517000Y-103652000D01*
X72517000Y-103632000D01*
X71374085Y-103632000D01*
X71252096Y-103854039D01*
X71292754Y-103988087D01*
X71412963Y-104242420D01*
X71580481Y-104468414D01*
X71788869Y-104657385D01*
X72030119Y-104802070D01*
X72108939Y-104830295D01*
X72015430Y-104869028D01*
X71798087Y-105014252D01*
X71613252Y-105199087D01*
X71468028Y-105416430D01*
X71367996Y-105657928D01*
X71317000Y-105914302D01*
X71317000Y-106175698D01*
X71367996Y-106432072D01*
X71468028Y-106673570D01*
X71613252Y-106890913D01*
X71798087Y-107075748D01*
X72015430Y-107220972D01*
X72242433Y-107315000D01*
X72015430Y-107409028D01*
X71798087Y-107554252D01*
X71613252Y-107739087D01*
X71468028Y-107956430D01*
X71367996Y-108197928D01*
X71317000Y-108454302D01*
X71317000Y-108715698D01*
X71367996Y-108972072D01*
X71468028Y-109213570D01*
X71613252Y-109430913D01*
X71798087Y-109615748D01*
X72015430Y-109760972D01*
X72242433Y-109855000D01*
X72015430Y-109949028D01*
X71798087Y-110094252D01*
X71613252Y-110279087D01*
X71468028Y-110496430D01*
X71367996Y-110737928D01*
X71317000Y-110994302D01*
X71317000Y-111255698D01*
X71367996Y-111512072D01*
X71468028Y-111753570D01*
X71613252Y-111970913D01*
X71798087Y-112155748D01*
X72015430Y-112300972D01*
X72242433Y-112395000D01*
X72015430Y-112489028D01*
X71798087Y-112634252D01*
X71613252Y-112819087D01*
X71468028Y-113036430D01*
X71367996Y-113277928D01*
X71317000Y-113534302D01*
X71317000Y-113795698D01*
X71367996Y-114052072D01*
X71468028Y-114293570D01*
X71613252Y-114510913D01*
X71798087Y-114695748D01*
X72015430Y-114840972D01*
X72242433Y-114935000D01*
X72015430Y-115029028D01*
X71798087Y-115174252D01*
X71613252Y-115359087D01*
X71567206Y-115428000D01*
X70806844Y-115428000D01*
X69738000Y-114359157D01*
X69738000Y-107734163D01*
X69741759Y-107696000D01*
X69738000Y-107657834D01*
X69726757Y-107543681D01*
X69682327Y-107397216D01*
X69648025Y-107333042D01*
X69610178Y-107262234D01*
X69537409Y-107173565D01*
X69537408Y-107173564D01*
X69513080Y-107143920D01*
X69483435Y-107119591D01*
X67886412Y-105522569D01*
X67862080Y-105492920D01*
X67743766Y-105395823D01*
X67608784Y-105323673D01*
X67462319Y-105279243D01*
X67348166Y-105268000D01*
X67348163Y-105268000D01*
X67310000Y-105264241D01*
X67271837Y-105268000D01*
X66100794Y-105268000D01*
X66054748Y-105199087D01*
X65869913Y-105014252D01*
X65652570Y-104869028D01*
X65425567Y-104775000D01*
X65652570Y-104680972D01*
X65869913Y-104535748D01*
X66054748Y-104350913D01*
X66199972Y-104133570D01*
X66300004Y-103892072D01*
X66351000Y-103635698D01*
X66351000Y-103374302D01*
X66334831Y-103293013D01*
X66595845Y-103031999D01*
X71289695Y-103031999D01*
X71252096Y-103155961D01*
G37*
X71252096Y-103155961D02*
X71374085Y-103378000D01*
X72517000Y-103378000D01*
X72517000Y-103358000D01*
X72771000Y-103358000D01*
X72771000Y-103378000D01*
X73913915Y-103378000D01*
X74035904Y-103155961D01*
X73998305Y-103031999D01*
X75771156Y-103031999D01*
X78352989Y-105613833D01*
X78352990Y-113127816D01*
X78349230Y-113165989D01*
X78352005Y-113194162D01*
X78300412Y-113142569D01*
X78276080Y-113112920D01*
X78157766Y-113015823D01*
X78022784Y-112943673D01*
X77876319Y-112899243D01*
X77762166Y-112888000D01*
X77762163Y-112888000D01*
X77724000Y-112884241D01*
X77685837Y-112888000D01*
X73720794Y-112888000D01*
X73674748Y-112819087D01*
X73489913Y-112634252D01*
X73272570Y-112489028D01*
X73045567Y-112395000D01*
X73272570Y-112300972D01*
X73489913Y-112155748D01*
X73674748Y-111970913D01*
X73819972Y-111753570D01*
X73920004Y-111512072D01*
X73971000Y-111255698D01*
X73971000Y-110994302D01*
X73920004Y-110737928D01*
X73819972Y-110496430D01*
X73674748Y-110279087D01*
X73489913Y-110094252D01*
X73272570Y-109949028D01*
X73045567Y-109855000D01*
X73272570Y-109760972D01*
X73489913Y-109615748D01*
X73674748Y-109430913D01*
X73819972Y-109213570D01*
X73920004Y-108972072D01*
X73971000Y-108715698D01*
X73971000Y-108454302D01*
X73920004Y-108197928D01*
X73819972Y-107956430D01*
X73674748Y-107739087D01*
X73489913Y-107554252D01*
X73272570Y-107409028D01*
X73045567Y-107315000D01*
X73272570Y-107220972D01*
X73489913Y-107075748D01*
X73674748Y-106890913D01*
X73819972Y-106673570D01*
X73920004Y-106432072D01*
X73971000Y-106175698D01*
X73971000Y-105914302D01*
X73920004Y-105657928D01*
X73819972Y-105416430D01*
X73674748Y-105199087D01*
X73489913Y-105014252D01*
X73272570Y-104869028D01*
X73179061Y-104830295D01*
X73257881Y-104802070D01*
X73499131Y-104657385D01*
X73707519Y-104468414D01*
X73875037Y-104242420D01*
X73995246Y-103988087D01*
X74035904Y-103854039D01*
X73913915Y-103632000D01*
X72771000Y-103632000D01*
X72771000Y-103652000D01*
X72517000Y-103652000D01*
X72517000Y-103632000D01*
X71374085Y-103632000D01*
X71252096Y-103854039D01*
X71292754Y-103988087D01*
X71412963Y-104242420D01*
X71580481Y-104468414D01*
X71788869Y-104657385D01*
X72030119Y-104802070D01*
X72108939Y-104830295D01*
X72015430Y-104869028D01*
X71798087Y-105014252D01*
X71613252Y-105199087D01*
X71468028Y-105416430D01*
X71367996Y-105657928D01*
X71317000Y-105914302D01*
X71317000Y-106175698D01*
X71367996Y-106432072D01*
X71468028Y-106673570D01*
X71613252Y-106890913D01*
X71798087Y-107075748D01*
X72015430Y-107220972D01*
X72242433Y-107315000D01*
X72015430Y-107409028D01*
X71798087Y-107554252D01*
X71613252Y-107739087D01*
X71468028Y-107956430D01*
X71367996Y-108197928D01*
X71317000Y-108454302D01*
X71317000Y-108715698D01*
X71367996Y-108972072D01*
X71468028Y-109213570D01*
X71613252Y-109430913D01*
X71798087Y-109615748D01*
X72015430Y-109760972D01*
X72242433Y-109855000D01*
X72015430Y-109949028D01*
X71798087Y-110094252D01*
X71613252Y-110279087D01*
X71468028Y-110496430D01*
X71367996Y-110737928D01*
X71317000Y-110994302D01*
X71317000Y-111255698D01*
X71367996Y-111512072D01*
X71468028Y-111753570D01*
X71613252Y-111970913D01*
X71798087Y-112155748D01*
X72015430Y-112300972D01*
X72242433Y-112395000D01*
X72015430Y-112489028D01*
X71798087Y-112634252D01*
X71613252Y-112819087D01*
X71468028Y-113036430D01*
X71367996Y-113277928D01*
X71317000Y-113534302D01*
X71317000Y-113795698D01*
X71367996Y-114052072D01*
X71468028Y-114293570D01*
X71613252Y-114510913D01*
X71798087Y-114695748D01*
X72015430Y-114840972D01*
X72242433Y-114935000D01*
X72015430Y-115029028D01*
X71798087Y-115174252D01*
X71613252Y-115359087D01*
X71567206Y-115428000D01*
X70806844Y-115428000D01*
X69738000Y-114359157D01*
X69738000Y-107734163D01*
X69741759Y-107696000D01*
X69738000Y-107657834D01*
X69726757Y-107543681D01*
X69682327Y-107397216D01*
X69648025Y-107333042D01*
X69610178Y-107262234D01*
X69537409Y-107173565D01*
X69537408Y-107173564D01*
X69513080Y-107143920D01*
X69483435Y-107119591D01*
X67886412Y-105522569D01*
X67862080Y-105492920D01*
X67743766Y-105395823D01*
X67608784Y-105323673D01*
X67462319Y-105279243D01*
X67348166Y-105268000D01*
X67348163Y-105268000D01*
X67310000Y-105264241D01*
X67271837Y-105268000D01*
X66100794Y-105268000D01*
X66054748Y-105199087D01*
X65869913Y-105014252D01*
X65652570Y-104869028D01*
X65425567Y-104775000D01*
X65652570Y-104680972D01*
X65869913Y-104535748D01*
X66054748Y-104350913D01*
X66199972Y-104133570D01*
X66300004Y-103892072D01*
X66351000Y-103635698D01*
X66351000Y-103374302D01*
X66334831Y-103293013D01*
X66595845Y-103031999D01*
X71289695Y-103031999D01*
X71252096Y-103155961D01*
M02*
