G04 #@! TF.GenerationSoftware,KiCad,Pcbnew,(5.1.5)-3*
G04 #@! TF.CreationDate,2020-06-01T21:13:49+02:00*
G04 #@! TF.ProjectId,CDEHbridgev0.11,43444548-6272-4696-9467-6576302e3131,rev?*
G04 #@! TF.SameCoordinates,Original*
G04 #@! TF.FileFunction,Legend,Bot*
G04 #@! TF.FilePolarity,Positive*
%FSLAX46Y46*%
G04 Gerber Fmt 4.6, Leading zero omitted, Abs format (unit mm)*
G04 Created by KiCad (PCBNEW (5.1.5)-3) date 2020-06-01 21:13:49*
%MOMM*%
%LPD*%
G04 APERTURE LIST*
%ADD10C,0.100000*%
G04 APERTURE END LIST*
D10*
X55411190Y-128433333D02*
X55458809Y-128385714D01*
X55554047Y-128242857D01*
X55601666Y-128147619D01*
X55649285Y-128004761D01*
X55696904Y-127766666D01*
X55696904Y-127576190D01*
X55649285Y-127338095D01*
X55601666Y-127195238D01*
X55554047Y-127100000D01*
X55458809Y-126957142D01*
X55411190Y-126909523D01*
X54601666Y-128004761D02*
X54696904Y-128052380D01*
X54887380Y-128052380D01*
X54982619Y-128004761D01*
X55030238Y-127957142D01*
X55077857Y-127861904D01*
X55077857Y-127576190D01*
X55030238Y-127480952D01*
X54982619Y-127433333D01*
X54887380Y-127385714D01*
X54696904Y-127385714D01*
X54601666Y-127433333D01*
X54268333Y-128433333D02*
X54220714Y-128385714D01*
X54125476Y-128242857D01*
X54077857Y-128147619D01*
X54030238Y-128004761D01*
X53982619Y-127766666D01*
X53982619Y-127576190D01*
X54030238Y-127338095D01*
X54077857Y-127195238D01*
X54125476Y-127100000D01*
X54220714Y-126957142D01*
X54268333Y-126909523D01*
X52792142Y-127147619D02*
X52744523Y-127100000D01*
X52649285Y-127052380D01*
X52411190Y-127052380D01*
X52315952Y-127100000D01*
X52268333Y-127147619D01*
X52220714Y-127242857D01*
X52220714Y-127338095D01*
X52268333Y-127480952D01*
X52839761Y-128052380D01*
X52220714Y-128052380D01*
X51601666Y-127052380D02*
X51506428Y-127052380D01*
X51411190Y-127100000D01*
X51363571Y-127147619D01*
X51315952Y-127242857D01*
X51268333Y-127433333D01*
X51268333Y-127671428D01*
X51315952Y-127861904D01*
X51363571Y-127957142D01*
X51411190Y-128004761D01*
X51506428Y-128052380D01*
X51601666Y-128052380D01*
X51696904Y-128004761D01*
X51744523Y-127957142D01*
X51792142Y-127861904D01*
X51839761Y-127671428D01*
X51839761Y-127433333D01*
X51792142Y-127242857D01*
X51744523Y-127147619D01*
X51696904Y-127100000D01*
X51601666Y-127052380D01*
X50887380Y-127147619D02*
X50839761Y-127100000D01*
X50744523Y-127052380D01*
X50506428Y-127052380D01*
X50411190Y-127100000D01*
X50363571Y-127147619D01*
X50315952Y-127242857D01*
X50315952Y-127338095D01*
X50363571Y-127480952D01*
X50935000Y-128052380D01*
X50315952Y-128052380D01*
X49696904Y-127052380D02*
X49601666Y-127052380D01*
X49506428Y-127100000D01*
X49458809Y-127147619D01*
X49411190Y-127242857D01*
X49363571Y-127433333D01*
X49363571Y-127671428D01*
X49411190Y-127861904D01*
X49458809Y-127957142D01*
X49506428Y-128004761D01*
X49601666Y-128052380D01*
X49696904Y-128052380D01*
X49792142Y-128004761D01*
X49839761Y-127957142D01*
X49887380Y-127861904D01*
X49935000Y-127671428D01*
X49935000Y-127433333D01*
X49887380Y-127242857D01*
X49839761Y-127147619D01*
X49792142Y-127100000D01*
X49696904Y-127052380D01*
X47696904Y-128052380D02*
X48173095Y-128052380D01*
X48173095Y-127052380D01*
X46982619Y-128004761D02*
X47077857Y-128052380D01*
X47268333Y-128052380D01*
X47363571Y-128004761D01*
X47411190Y-127909523D01*
X47411190Y-127528571D01*
X47363571Y-127433333D01*
X47268333Y-127385714D01*
X47077857Y-127385714D01*
X46982619Y-127433333D01*
X46935000Y-127528571D01*
X46935000Y-127623809D01*
X47411190Y-127719047D01*
X46601666Y-128052380D02*
X46077857Y-127385714D01*
X46601666Y-127385714D02*
X46077857Y-128052380D01*
X45030238Y-127385714D02*
X44792142Y-128052380D01*
X44554047Y-127385714D01*
X43744523Y-128052380D02*
X43744523Y-127528571D01*
X43792142Y-127433333D01*
X43887380Y-127385714D01*
X44077857Y-127385714D01*
X44173095Y-127433333D01*
X43744523Y-128004761D02*
X43839761Y-128052380D01*
X44077857Y-128052380D01*
X44173095Y-128004761D01*
X44220714Y-127909523D01*
X44220714Y-127814285D01*
X44173095Y-127719047D01*
X44077857Y-127671428D01*
X43839761Y-127671428D01*
X43744523Y-127623809D01*
X43268333Y-127385714D02*
X43268333Y-128052380D01*
X43268333Y-127480952D02*
X43220714Y-127433333D01*
X43125476Y-127385714D01*
X42982619Y-127385714D01*
X42887380Y-127433333D01*
X42839761Y-127528571D01*
X42839761Y-128052380D01*
X41173095Y-128052380D02*
X41173095Y-127052380D01*
X41173095Y-128004761D02*
X41268333Y-128052380D01*
X41458809Y-128052380D01*
X41554047Y-128004761D01*
X41601666Y-127957142D01*
X41649285Y-127861904D01*
X41649285Y-127576190D01*
X41601666Y-127480952D01*
X41554047Y-127433333D01*
X41458809Y-127385714D01*
X41268333Y-127385714D01*
X41173095Y-127433333D01*
X40315952Y-128004761D02*
X40411190Y-128052380D01*
X40601666Y-128052380D01*
X40696904Y-128004761D01*
X40744523Y-127909523D01*
X40744523Y-127528571D01*
X40696904Y-127433333D01*
X40601666Y-127385714D01*
X40411190Y-127385714D01*
X40315952Y-127433333D01*
X40268333Y-127528571D01*
X40268333Y-127623809D01*
X40744523Y-127719047D01*
X39839761Y-128052380D02*
X39839761Y-127385714D01*
X39839761Y-127576190D02*
X39792142Y-127480952D01*
X39744523Y-127433333D01*
X39649285Y-127385714D01*
X39554047Y-127385714D01*
X37982619Y-128052380D02*
X38458809Y-128052380D01*
X38458809Y-127052380D01*
X37506428Y-128052380D02*
X37601666Y-128004761D01*
X37649285Y-127957142D01*
X37696904Y-127861904D01*
X37696904Y-127576190D01*
X37649285Y-127480952D01*
X37601666Y-127433333D01*
X37506428Y-127385714D01*
X37363571Y-127385714D01*
X37268333Y-127433333D01*
X37220714Y-127480952D01*
X37173095Y-127576190D01*
X37173095Y-127861904D01*
X37220714Y-127957142D01*
X37268333Y-128004761D01*
X37363571Y-128052380D01*
X37506428Y-128052380D01*
X36601666Y-128052380D02*
X36696904Y-128004761D01*
X36744523Y-127957142D01*
X36792142Y-127861904D01*
X36792142Y-127576190D01*
X36744523Y-127480952D01*
X36696904Y-127433333D01*
X36601666Y-127385714D01*
X36458809Y-127385714D01*
X36363571Y-127433333D01*
X36315952Y-127480952D01*
X36268333Y-127576190D01*
X36268333Y-127861904D01*
X36315952Y-127957142D01*
X36363571Y-128004761D01*
X36458809Y-128052380D01*
X36601666Y-128052380D01*
X55125476Y-129557142D02*
X55173095Y-129604761D01*
X55315952Y-129652380D01*
X55411190Y-129652380D01*
X55554047Y-129604761D01*
X55649285Y-129509523D01*
X55696904Y-129414285D01*
X55744523Y-129223809D01*
X55744523Y-129080952D01*
X55696904Y-128890476D01*
X55649285Y-128795238D01*
X55554047Y-128700000D01*
X55411190Y-128652380D01*
X55315952Y-128652380D01*
X55173095Y-128700000D01*
X55125476Y-128747619D01*
X54696904Y-129652380D02*
X54696904Y-128652380D01*
X54458809Y-128652380D01*
X54315952Y-128700000D01*
X54220714Y-128795238D01*
X54173095Y-128890476D01*
X54125476Y-129080952D01*
X54125476Y-129223809D01*
X54173095Y-129414285D01*
X54220714Y-129509523D01*
X54315952Y-129604761D01*
X54458809Y-129652380D01*
X54696904Y-129652380D01*
X53696904Y-129128571D02*
X53363571Y-129128571D01*
X53220714Y-129652380D02*
X53696904Y-129652380D01*
X53696904Y-128652380D01*
X53220714Y-128652380D01*
X52030238Y-129271428D02*
X51268333Y-129271428D01*
X50030238Y-129652380D02*
X50030238Y-128652380D01*
X50030238Y-129128571D02*
X49458809Y-129128571D01*
X49458809Y-129652380D02*
X49458809Y-128652380D01*
X48982619Y-129271428D02*
X48220714Y-129271428D01*
X47744523Y-129652380D02*
X47744523Y-128652380D01*
X47744523Y-129033333D02*
X47649285Y-128985714D01*
X47458809Y-128985714D01*
X47363571Y-129033333D01*
X47315952Y-129080952D01*
X47268333Y-129176190D01*
X47268333Y-129461904D01*
X47315952Y-129557142D01*
X47363571Y-129604761D01*
X47458809Y-129652380D01*
X47649285Y-129652380D01*
X47744523Y-129604761D01*
X46839761Y-129652380D02*
X46839761Y-128985714D01*
X46839761Y-129176190D02*
X46792142Y-129080952D01*
X46744523Y-129033333D01*
X46649285Y-128985714D01*
X46554047Y-128985714D01*
X45792142Y-128985714D02*
X45792142Y-129652380D01*
X46220714Y-128985714D02*
X46220714Y-129509523D01*
X46173095Y-129604761D01*
X46077857Y-129652380D01*
X45935000Y-129652380D01*
X45839761Y-129604761D01*
X45792142Y-129557142D01*
X44887380Y-128985714D02*
X44887380Y-129795238D01*
X44935000Y-129890476D01*
X44982619Y-129938095D01*
X45077857Y-129985714D01*
X45220714Y-129985714D01*
X45315952Y-129938095D01*
X44887380Y-129604761D02*
X44982619Y-129652380D01*
X45173095Y-129652380D01*
X45268333Y-129604761D01*
X45315952Y-129557142D01*
X45363571Y-129461904D01*
X45363571Y-129176190D01*
X45315952Y-129080952D01*
X45268333Y-129033333D01*
X45173095Y-128985714D01*
X44982619Y-128985714D01*
X44887380Y-129033333D01*
X43220714Y-129604761D02*
X43315952Y-129652380D01*
X43506428Y-129652380D01*
X43601666Y-129604761D01*
X43649285Y-129557142D01*
X43696904Y-129461904D01*
X43696904Y-129176190D01*
X43649285Y-129080952D01*
X43601666Y-129033333D01*
X43506428Y-128985714D01*
X43315952Y-128985714D01*
X43220714Y-129033333D01*
X42649285Y-129652380D02*
X42744523Y-129604761D01*
X42792142Y-129557142D01*
X42839761Y-129461904D01*
X42839761Y-129176190D01*
X42792142Y-129080952D01*
X42744523Y-129033333D01*
X42649285Y-128985714D01*
X42506428Y-128985714D01*
X42411190Y-129033333D01*
X42363571Y-129080952D01*
X42315952Y-129176190D01*
X42315952Y-129461904D01*
X42363571Y-129557142D01*
X42411190Y-129604761D01*
X42506428Y-129652380D01*
X42649285Y-129652380D01*
X41887380Y-128985714D02*
X41887380Y-129652380D01*
X41887380Y-129080952D02*
X41839761Y-129033333D01*
X41744523Y-128985714D01*
X41601666Y-128985714D01*
X41506428Y-129033333D01*
X41458809Y-129128571D01*
X41458809Y-129652380D01*
X41077857Y-128985714D02*
X40839761Y-129652380D01*
X40601666Y-128985714D01*
X39839761Y-129604761D02*
X39935000Y-129652380D01*
X40125476Y-129652380D01*
X40220714Y-129604761D01*
X40268333Y-129509523D01*
X40268333Y-129128571D01*
X40220714Y-129033333D01*
X40125476Y-128985714D01*
X39935000Y-128985714D01*
X39839761Y-129033333D01*
X39792142Y-129128571D01*
X39792142Y-129223809D01*
X40268333Y-129319047D01*
X39363571Y-129652380D02*
X39363571Y-128985714D01*
X39363571Y-129176190D02*
X39315952Y-129080952D01*
X39268333Y-129033333D01*
X39173095Y-128985714D01*
X39077857Y-128985714D01*
X38887380Y-128985714D02*
X38506428Y-128985714D01*
X38744523Y-128652380D02*
X38744523Y-129509523D01*
X38696904Y-129604761D01*
X38601666Y-129652380D01*
X38506428Y-129652380D01*
X37792142Y-129604761D02*
X37887380Y-129652380D01*
X38077857Y-129652380D01*
X38173095Y-129604761D01*
X38220714Y-129509523D01*
X38220714Y-129128571D01*
X38173095Y-129033333D01*
X38077857Y-128985714D01*
X37887380Y-128985714D01*
X37792142Y-129033333D01*
X37744523Y-129128571D01*
X37744523Y-129223809D01*
X38220714Y-129319047D01*
X37315952Y-129652380D02*
X37315952Y-128985714D01*
X37315952Y-129176190D02*
X37268333Y-129080952D01*
X37220714Y-129033333D01*
X37125476Y-128985714D01*
X37030238Y-128985714D01*
X36030238Y-128985714D02*
X35792142Y-129652380D01*
X35554047Y-128985714D01*
X34649285Y-129652380D02*
X35220714Y-129652380D01*
X34935000Y-129652380D02*
X34935000Y-128652380D01*
X35030238Y-128795238D01*
X35125476Y-128890476D01*
X35220714Y-128938095D01*
X33696904Y-129652380D02*
X34268333Y-129652380D01*
X33982619Y-129652380D02*
X33982619Y-128652380D01*
X34077857Y-128795238D01*
X34173095Y-128890476D01*
X34268333Y-128938095D01*
M02*
