M48
; DRILL file {KiCad (5.1.5)-3} date 01/06/2020 21:14:16
; FORMAT={-:-/ absolute / inch / decimal}
; #@! TF.CreationDate,2020-06-01T21:14:16+02:00
; #@! TF.GenerationSoftware,Kicad,Pcbnew,(5.1.5)-3
; #@! TF.FileFunction,Plated,1,2,PTH
FMAT,2
INCH
T1C0.0157
T2C0.0295
T3C0.0315
T4C0.0433
%
G90
G05
T1
X1.3583Y-4.8543
X1.3602Y-4.061
X1.7992Y-4.8976
X2.0217Y-4.9094
X2.0787Y-4.0413
X2.1549Y-4.8884
X2.311Y-4.7224
X2.3307Y-4.4449
X2.3445Y-4.5138
X2.4862Y-4.7421
X3.2717Y-4.3071
X3.2756Y-4.1772
T2
X2.03Y-4.79
X2.08Y-4.84
X2.13Y-4.79
T3
X2.635Y-4.87
X2.935Y-4.87
X1.92Y-4.79
X1.92Y-4.8884
X2.25Y-4.79
X2.25Y-4.8884
X1.51Y-4.4
X1.81Y-4.4
X1.51Y-4.6
X1.81Y-4.6
X1.95Y-4.08
X1.95Y-4.18
X1.95Y-4.28
X1.95Y-4.38
X2.25Y-4.08
X2.25Y-4.18
X2.25Y-4.28
X2.25Y-4.38
X2.56Y-4.075
X2.56Y-4.175
X2.56Y-4.275
X2.56Y-4.375
X2.56Y-4.475
X2.56Y-4.575
X2.56Y-4.675
X2.86Y-4.075
X2.86Y-4.175
X2.86Y-4.275
X2.86Y-4.375
X2.86Y-4.475
X2.86Y-4.575
X2.86Y-4.675
X2.48Y-4.8313
X2.48Y-4.91
X2.405Y-4.32
X2.405Y-4.62
X2.39Y-4.0766
X2.39Y-4.175
X1.95Y-4.52
X1.95Y-4.62
X2.25Y-4.52
X2.25Y-4.62
X1.51Y-4.22
X1.81Y-4.22
T4
X1.255Y-4.24
X1.255Y-4.39
X1.255Y-4.54
X1.255Y-4.69
X1.255Y-4.84
X3.2Y-4.24
X3.2Y-4.39
X3.2Y-4.54
X3.2Y-4.69
X3.2Y-4.69
X3.2Y-4.84
X1.51Y-4.79
X1.81Y-4.79
T0
M30
