G04 #@! TF.GenerationSoftware,KiCad,Pcbnew,(5.1.5)-3*
G04 #@! TF.CreationDate,2020-06-01T21:13:49+02:00*
G04 #@! TF.ProjectId,CDEHbridgev0.11,43444548-6272-4696-9467-6576302e3131,rev?*
G04 #@! TF.SameCoordinates,Original*
G04 #@! TF.FileFunction,Soldermask,Top*
G04 #@! TF.FilePolarity,Negative*
%FSLAX46Y46*%
G04 Gerber Fmt 4.6, Leading zero omitted, Abs format (unit mm)*
G04 Created by KiCad (PCBNEW (5.1.5)-3) date 2020-06-01 21:13:49*
%MOMM*%
%LPD*%
G04 APERTURE LIST*
%ADD10O,1.600000X1.600000*%
%ADD11C,1.600000*%
%ADD12R,1.600000X1.600000*%
%ADD13R,1.400000X1.400000*%
%ADD14C,2.000000*%
%ADD15C,3.200000*%
%ADD16R,2.000000X2.000000*%
%ADD17R,2.200000X2.200000*%
%ADD18O,2.200000X2.200000*%
%ADD19C,1.300000*%
%ADD20R,1.300000X1.300000*%
G04 APERTURE END LIST*
D10*
X74549000Y-123698000D03*
D11*
X66929000Y-123698000D03*
X60706000Y-106045000D03*
X60706000Y-103545000D03*
D12*
X49530000Y-103632000D03*
D10*
X57150000Y-111252000D03*
X49530000Y-106172000D03*
X57150000Y-108712000D03*
X49530000Y-108712000D03*
X57150000Y-106172000D03*
X49530000Y-111252000D03*
X57150000Y-103632000D03*
D12*
X45974000Y-111760000D03*
D10*
X38354000Y-111760000D03*
D13*
X31877000Y-107696000D03*
D14*
X31877000Y-111506000D03*
X31877000Y-115316000D03*
X31877000Y-119126000D03*
X31877000Y-122936000D03*
D15*
X30000000Y-129000000D03*
X83000000Y-129000000D03*
X83127000Y-102000000D03*
X30000000Y-102000000D03*
D14*
X81280000Y-107696000D03*
X81280000Y-111506000D03*
X81280000Y-115316000D03*
X81280000Y-119126000D03*
D16*
X81280000Y-122936000D03*
D14*
X81280000Y-119126000D03*
D12*
X62992000Y-124714000D03*
D11*
X62992000Y-122714000D03*
X48768000Y-124166000D03*
X48768000Y-121666000D03*
X57150000Y-121666000D03*
X57150000Y-124166000D03*
D10*
X38354000Y-116840000D03*
D12*
X45974000Y-116840000D03*
D17*
X45974000Y-121666000D03*
D18*
X38354000Y-121666000D03*
D11*
X45974000Y-107188000D03*
D10*
X38354000Y-107188000D03*
D11*
X61087000Y-109728000D03*
D10*
X61087000Y-117348000D03*
D12*
X57150000Y-117348000D03*
D10*
X49530000Y-114808000D03*
X57150000Y-114808000D03*
X49530000Y-117348000D03*
D12*
X72644000Y-118745000D03*
D10*
X65024000Y-103505000D03*
X72644000Y-116205000D03*
X65024000Y-106045000D03*
X72644000Y-113665000D03*
X65024000Y-108585000D03*
X72644000Y-111125000D03*
X65024000Y-111125000D03*
X72644000Y-108585000D03*
X65024000Y-113665000D03*
X72644000Y-106045000D03*
X65024000Y-116205000D03*
X72644000Y-103505000D03*
X65024000Y-118745000D03*
D19*
X52832000Y-122936000D03*
X51562000Y-121666000D03*
D20*
X54102000Y-121666000D03*
M02*
