G04 #@! TF.GenerationSoftware,KiCad,Pcbnew,(5.1.5)-3*
G04 #@! TF.CreationDate,2020-06-01T21:13:49+02:00*
G04 #@! TF.ProjectId,CDEHbridgev0.11,43444548-6272-4696-9467-6576302e3131,rev?*
G04 #@! TF.SameCoordinates,Original*
G04 #@! TF.FileFunction,Legend,Top*
G04 #@! TF.FilePolarity,Positive*
%FSLAX46Y46*%
G04 Gerber Fmt 4.6, Leading zero omitted, Abs format (unit mm)*
G04 Created by KiCad (PCBNEW (5.1.5)-3) date 2020-06-01 21:13:49*
%MOMM*%
%LPD*%
G04 APERTURE LIST*
%ADD10C,0.100000*%
%ADD11C,0.150000*%
%ADD12C,0.120000*%
G04 APERTURE END LIST*
D10*
X34188809Y-128383333D02*
X34141190Y-128335714D01*
X34045952Y-128192857D01*
X33998333Y-128097619D01*
X33950714Y-127954761D01*
X33903095Y-127716666D01*
X33903095Y-127526190D01*
X33950714Y-127288095D01*
X33998333Y-127145238D01*
X34045952Y-127050000D01*
X34141190Y-126907142D01*
X34188809Y-126859523D01*
X34998333Y-127954761D02*
X34903095Y-128002380D01*
X34712619Y-128002380D01*
X34617380Y-127954761D01*
X34569761Y-127907142D01*
X34522142Y-127811904D01*
X34522142Y-127526190D01*
X34569761Y-127430952D01*
X34617380Y-127383333D01*
X34712619Y-127335714D01*
X34903095Y-127335714D01*
X34998333Y-127383333D01*
X35331666Y-128383333D02*
X35379285Y-128335714D01*
X35474523Y-128192857D01*
X35522142Y-128097619D01*
X35569761Y-127954761D01*
X35617380Y-127716666D01*
X35617380Y-127526190D01*
X35569761Y-127288095D01*
X35522142Y-127145238D01*
X35474523Y-127050000D01*
X35379285Y-126907142D01*
X35331666Y-126859523D01*
X36807857Y-127097619D02*
X36855476Y-127050000D01*
X36950714Y-127002380D01*
X37188809Y-127002380D01*
X37284047Y-127050000D01*
X37331666Y-127097619D01*
X37379285Y-127192857D01*
X37379285Y-127288095D01*
X37331666Y-127430952D01*
X36760238Y-128002380D01*
X37379285Y-128002380D01*
X37998333Y-127002380D02*
X38093571Y-127002380D01*
X38188809Y-127050000D01*
X38236428Y-127097619D01*
X38284047Y-127192857D01*
X38331666Y-127383333D01*
X38331666Y-127621428D01*
X38284047Y-127811904D01*
X38236428Y-127907142D01*
X38188809Y-127954761D01*
X38093571Y-128002380D01*
X37998333Y-128002380D01*
X37903095Y-127954761D01*
X37855476Y-127907142D01*
X37807857Y-127811904D01*
X37760238Y-127621428D01*
X37760238Y-127383333D01*
X37807857Y-127192857D01*
X37855476Y-127097619D01*
X37903095Y-127050000D01*
X37998333Y-127002380D01*
X38712619Y-127097619D02*
X38760238Y-127050000D01*
X38855476Y-127002380D01*
X39093571Y-127002380D01*
X39188809Y-127050000D01*
X39236428Y-127097619D01*
X39284047Y-127192857D01*
X39284047Y-127288095D01*
X39236428Y-127430952D01*
X38665000Y-128002380D01*
X39284047Y-128002380D01*
X39903095Y-127002380D02*
X39998333Y-127002380D01*
X40093571Y-127050000D01*
X40141190Y-127097619D01*
X40188809Y-127192857D01*
X40236428Y-127383333D01*
X40236428Y-127621428D01*
X40188809Y-127811904D01*
X40141190Y-127907142D01*
X40093571Y-127954761D01*
X39998333Y-128002380D01*
X39903095Y-128002380D01*
X39807857Y-127954761D01*
X39760238Y-127907142D01*
X39712619Y-127811904D01*
X39665000Y-127621428D01*
X39665000Y-127383333D01*
X39712619Y-127192857D01*
X39760238Y-127097619D01*
X39807857Y-127050000D01*
X39903095Y-127002380D01*
X41903095Y-128002380D02*
X41426904Y-128002380D01*
X41426904Y-127002380D01*
X42617380Y-127954761D02*
X42522142Y-128002380D01*
X42331666Y-128002380D01*
X42236428Y-127954761D01*
X42188809Y-127859523D01*
X42188809Y-127478571D01*
X42236428Y-127383333D01*
X42331666Y-127335714D01*
X42522142Y-127335714D01*
X42617380Y-127383333D01*
X42665000Y-127478571D01*
X42665000Y-127573809D01*
X42188809Y-127669047D01*
X42998333Y-128002380D02*
X43522142Y-127335714D01*
X42998333Y-127335714D02*
X43522142Y-128002380D01*
X44569761Y-127335714D02*
X44807857Y-128002380D01*
X45045952Y-127335714D01*
X45855476Y-128002380D02*
X45855476Y-127478571D01*
X45807857Y-127383333D01*
X45712619Y-127335714D01*
X45522142Y-127335714D01*
X45426904Y-127383333D01*
X45855476Y-127954761D02*
X45760238Y-128002380D01*
X45522142Y-128002380D01*
X45426904Y-127954761D01*
X45379285Y-127859523D01*
X45379285Y-127764285D01*
X45426904Y-127669047D01*
X45522142Y-127621428D01*
X45760238Y-127621428D01*
X45855476Y-127573809D01*
X46331666Y-127335714D02*
X46331666Y-128002380D01*
X46331666Y-127430952D02*
X46379285Y-127383333D01*
X46474523Y-127335714D01*
X46617380Y-127335714D01*
X46712619Y-127383333D01*
X46760238Y-127478571D01*
X46760238Y-128002380D01*
X48426904Y-128002380D02*
X48426904Y-127002380D01*
X48426904Y-127954761D02*
X48331666Y-128002380D01*
X48141190Y-128002380D01*
X48045952Y-127954761D01*
X47998333Y-127907142D01*
X47950714Y-127811904D01*
X47950714Y-127526190D01*
X47998333Y-127430952D01*
X48045952Y-127383333D01*
X48141190Y-127335714D01*
X48331666Y-127335714D01*
X48426904Y-127383333D01*
X49284047Y-127954761D02*
X49188809Y-128002380D01*
X48998333Y-128002380D01*
X48903095Y-127954761D01*
X48855476Y-127859523D01*
X48855476Y-127478571D01*
X48903095Y-127383333D01*
X48998333Y-127335714D01*
X49188809Y-127335714D01*
X49284047Y-127383333D01*
X49331666Y-127478571D01*
X49331666Y-127573809D01*
X48855476Y-127669047D01*
X49760238Y-128002380D02*
X49760238Y-127335714D01*
X49760238Y-127526190D02*
X49807857Y-127430952D01*
X49855476Y-127383333D01*
X49950714Y-127335714D01*
X50045952Y-127335714D01*
X51617380Y-128002380D02*
X51141190Y-128002380D01*
X51141190Y-127002380D01*
X52093571Y-128002380D02*
X51998333Y-127954761D01*
X51950714Y-127907142D01*
X51903095Y-127811904D01*
X51903095Y-127526190D01*
X51950714Y-127430952D01*
X51998333Y-127383333D01*
X52093571Y-127335714D01*
X52236428Y-127335714D01*
X52331666Y-127383333D01*
X52379285Y-127430952D01*
X52426904Y-127526190D01*
X52426904Y-127811904D01*
X52379285Y-127907142D01*
X52331666Y-127954761D01*
X52236428Y-128002380D01*
X52093571Y-128002380D01*
X52998333Y-128002380D02*
X52903095Y-127954761D01*
X52855476Y-127907142D01*
X52807857Y-127811904D01*
X52807857Y-127526190D01*
X52855476Y-127430952D01*
X52903095Y-127383333D01*
X52998333Y-127335714D01*
X53141190Y-127335714D01*
X53236428Y-127383333D01*
X53284047Y-127430952D01*
X53331666Y-127526190D01*
X53331666Y-127811904D01*
X53284047Y-127907142D01*
X53236428Y-127954761D01*
X53141190Y-128002380D01*
X52998333Y-128002380D01*
X34474523Y-129507142D02*
X34426904Y-129554761D01*
X34284047Y-129602380D01*
X34188809Y-129602380D01*
X34045952Y-129554761D01*
X33950714Y-129459523D01*
X33903095Y-129364285D01*
X33855476Y-129173809D01*
X33855476Y-129030952D01*
X33903095Y-128840476D01*
X33950714Y-128745238D01*
X34045952Y-128650000D01*
X34188809Y-128602380D01*
X34284047Y-128602380D01*
X34426904Y-128650000D01*
X34474523Y-128697619D01*
X34903095Y-129602380D02*
X34903095Y-128602380D01*
X35141190Y-128602380D01*
X35284047Y-128650000D01*
X35379285Y-128745238D01*
X35426904Y-128840476D01*
X35474523Y-129030952D01*
X35474523Y-129173809D01*
X35426904Y-129364285D01*
X35379285Y-129459523D01*
X35284047Y-129554761D01*
X35141190Y-129602380D01*
X34903095Y-129602380D01*
X35903095Y-129078571D02*
X36236428Y-129078571D01*
X36379285Y-129602380D02*
X35903095Y-129602380D01*
X35903095Y-128602380D01*
X36379285Y-128602380D01*
X37569761Y-129221428D02*
X38331666Y-129221428D01*
X39569761Y-129602380D02*
X39569761Y-128602380D01*
X39569761Y-129078571D02*
X40141190Y-129078571D01*
X40141190Y-129602380D02*
X40141190Y-128602380D01*
X40617380Y-129221428D02*
X41379285Y-129221428D01*
X41855476Y-129602380D02*
X41855476Y-128602380D01*
X41855476Y-128983333D02*
X41950714Y-128935714D01*
X42141190Y-128935714D01*
X42236428Y-128983333D01*
X42284047Y-129030952D01*
X42331666Y-129126190D01*
X42331666Y-129411904D01*
X42284047Y-129507142D01*
X42236428Y-129554761D01*
X42141190Y-129602380D01*
X41950714Y-129602380D01*
X41855476Y-129554761D01*
X42760238Y-129602380D02*
X42760238Y-128935714D01*
X42760238Y-129126190D02*
X42807857Y-129030952D01*
X42855476Y-128983333D01*
X42950714Y-128935714D01*
X43045952Y-128935714D01*
X43807857Y-128935714D02*
X43807857Y-129602380D01*
X43379285Y-128935714D02*
X43379285Y-129459523D01*
X43426904Y-129554761D01*
X43522142Y-129602380D01*
X43665000Y-129602380D01*
X43760238Y-129554761D01*
X43807857Y-129507142D01*
X44712619Y-128935714D02*
X44712619Y-129745238D01*
X44665000Y-129840476D01*
X44617380Y-129888095D01*
X44522142Y-129935714D01*
X44379285Y-129935714D01*
X44284047Y-129888095D01*
X44712619Y-129554761D02*
X44617380Y-129602380D01*
X44426904Y-129602380D01*
X44331666Y-129554761D01*
X44284047Y-129507142D01*
X44236428Y-129411904D01*
X44236428Y-129126190D01*
X44284047Y-129030952D01*
X44331666Y-128983333D01*
X44426904Y-128935714D01*
X44617380Y-128935714D01*
X44712619Y-128983333D01*
X46379285Y-129554761D02*
X46284047Y-129602380D01*
X46093571Y-129602380D01*
X45998333Y-129554761D01*
X45950714Y-129507142D01*
X45903095Y-129411904D01*
X45903095Y-129126190D01*
X45950714Y-129030952D01*
X45998333Y-128983333D01*
X46093571Y-128935714D01*
X46284047Y-128935714D01*
X46379285Y-128983333D01*
X46950714Y-129602380D02*
X46855476Y-129554761D01*
X46807857Y-129507142D01*
X46760238Y-129411904D01*
X46760238Y-129126190D01*
X46807857Y-129030952D01*
X46855476Y-128983333D01*
X46950714Y-128935714D01*
X47093571Y-128935714D01*
X47188809Y-128983333D01*
X47236428Y-129030952D01*
X47284047Y-129126190D01*
X47284047Y-129411904D01*
X47236428Y-129507142D01*
X47188809Y-129554761D01*
X47093571Y-129602380D01*
X46950714Y-129602380D01*
X47712619Y-128935714D02*
X47712619Y-129602380D01*
X47712619Y-129030952D02*
X47760238Y-128983333D01*
X47855476Y-128935714D01*
X47998333Y-128935714D01*
X48093571Y-128983333D01*
X48141190Y-129078571D01*
X48141190Y-129602380D01*
X48522142Y-128935714D02*
X48760238Y-129602380D01*
X48998333Y-128935714D01*
X49760238Y-129554761D02*
X49665000Y-129602380D01*
X49474523Y-129602380D01*
X49379285Y-129554761D01*
X49331666Y-129459523D01*
X49331666Y-129078571D01*
X49379285Y-128983333D01*
X49474523Y-128935714D01*
X49665000Y-128935714D01*
X49760238Y-128983333D01*
X49807857Y-129078571D01*
X49807857Y-129173809D01*
X49331666Y-129269047D01*
X50236428Y-129602380D02*
X50236428Y-128935714D01*
X50236428Y-129126190D02*
X50284047Y-129030952D01*
X50331666Y-128983333D01*
X50426904Y-128935714D01*
X50522142Y-128935714D01*
X50712619Y-128935714D02*
X51093571Y-128935714D01*
X50855476Y-128602380D02*
X50855476Y-129459523D01*
X50903095Y-129554761D01*
X50998333Y-129602380D01*
X51093571Y-129602380D01*
X51807857Y-129554761D02*
X51712619Y-129602380D01*
X51522142Y-129602380D01*
X51426904Y-129554761D01*
X51379285Y-129459523D01*
X51379285Y-129078571D01*
X51426904Y-128983333D01*
X51522142Y-128935714D01*
X51712619Y-128935714D01*
X51807857Y-128983333D01*
X51855476Y-129078571D01*
X51855476Y-129173809D01*
X51379285Y-129269047D01*
X52284047Y-129602380D02*
X52284047Y-128935714D01*
X52284047Y-129126190D02*
X52331666Y-129030952D01*
X52379285Y-128983333D01*
X52474523Y-128935714D01*
X52569761Y-128935714D01*
X53569761Y-128935714D02*
X53807857Y-129602380D01*
X54045952Y-128935714D01*
X54950714Y-129602380D02*
X54379285Y-129602380D01*
X54665000Y-129602380D02*
X54665000Y-128602380D01*
X54569761Y-128745238D01*
X54474523Y-128840476D01*
X54379285Y-128888095D01*
X55903095Y-129602380D02*
X55331666Y-129602380D01*
X55617380Y-129602380D02*
X55617380Y-128602380D01*
X55522142Y-128745238D01*
X55426904Y-128840476D01*
X55331666Y-128888095D01*
D11*
X85573000Y-108584904D02*
X85525380Y-108680142D01*
X85525380Y-108823000D01*
X85573000Y-108965857D01*
X85668238Y-109061095D01*
X85763476Y-109108714D01*
X85953952Y-109156333D01*
X86096809Y-109156333D01*
X86287285Y-109108714D01*
X86382523Y-109061095D01*
X86477761Y-108965857D01*
X86525380Y-108823000D01*
X86525380Y-108727761D01*
X86477761Y-108584904D01*
X86430142Y-108537285D01*
X86096809Y-108537285D01*
X86096809Y-108727761D01*
X86525380Y-108108714D02*
X85525380Y-108108714D01*
X86525380Y-107537285D01*
X85525380Y-107537285D01*
X86525380Y-107061095D02*
X85525380Y-107061095D01*
X85525380Y-106823000D01*
X85573000Y-106680142D01*
X85668238Y-106584904D01*
X85763476Y-106537285D01*
X85953952Y-106489666D01*
X86096809Y-106489666D01*
X86287285Y-106537285D01*
X86382523Y-106584904D01*
X86477761Y-106680142D01*
X86525380Y-106823000D01*
X86525380Y-107061095D01*
X86588380Y-111728190D02*
X85588380Y-111728190D01*
X86540761Y-111299619D02*
X86588380Y-111156761D01*
X86588380Y-110918666D01*
X86540761Y-110823428D01*
X86493142Y-110775809D01*
X86397904Y-110728190D01*
X86302666Y-110728190D01*
X86207428Y-110775809D01*
X86159809Y-110823428D01*
X86112190Y-110918666D01*
X86064571Y-111109142D01*
X86016952Y-111204380D01*
X85969333Y-111252000D01*
X85874095Y-111299619D01*
X85778857Y-111299619D01*
X85683619Y-111252000D01*
X85636000Y-111204380D01*
X85588380Y-111109142D01*
X85588380Y-110871047D01*
X85636000Y-110728190D01*
X86652380Y-116204904D02*
X86652380Y-116681095D01*
X85652380Y-116681095D01*
X86652380Y-115871571D02*
X85652380Y-115871571D01*
X85652380Y-115490619D01*
X85700000Y-115395380D01*
X85747619Y-115347761D01*
X85842857Y-115300142D01*
X85985714Y-115300142D01*
X86080952Y-115347761D01*
X86128571Y-115395380D01*
X86176190Y-115490619D01*
X86176190Y-115871571D01*
X85652380Y-114966809D02*
X86652380Y-114728714D01*
X85938095Y-114538238D01*
X86652380Y-114347761D01*
X85652380Y-114109666D01*
X86652380Y-119760904D02*
X86176190Y-120094238D01*
X86652380Y-120332333D02*
X85652380Y-120332333D01*
X85652380Y-119951380D01*
X85700000Y-119856142D01*
X85747619Y-119808523D01*
X85842857Y-119760904D01*
X85985714Y-119760904D01*
X86080952Y-119808523D01*
X86128571Y-119856142D01*
X86176190Y-119951380D01*
X86176190Y-120332333D01*
X86652380Y-119332333D02*
X85652380Y-119332333D01*
X85652380Y-118951380D01*
X85700000Y-118856142D01*
X85747619Y-118808523D01*
X85842857Y-118760904D01*
X85985714Y-118760904D01*
X86080952Y-118808523D01*
X86128571Y-118856142D01*
X86176190Y-118951380D01*
X86176190Y-119332333D01*
X85652380Y-118427571D02*
X86652380Y-118189476D01*
X85938095Y-117999000D01*
X86652380Y-117808523D01*
X85652380Y-117570428D01*
X86398428Y-124729714D02*
X86398428Y-123967809D01*
X86779380Y-124348761D02*
X86017476Y-124348761D01*
X85779380Y-123015428D02*
X85779380Y-123491619D01*
X86255571Y-123539238D01*
X86207952Y-123491619D01*
X86160333Y-123396380D01*
X86160333Y-123158285D01*
X86207952Y-123063047D01*
X86255571Y-123015428D01*
X86350809Y-122967809D01*
X86588904Y-122967809D01*
X86684142Y-123015428D01*
X86731761Y-123063047D01*
X86779380Y-123158285D01*
X86779380Y-123396380D01*
X86731761Y-123491619D01*
X86684142Y-123539238D01*
X85779380Y-122682095D02*
X86779380Y-122348761D01*
X85779380Y-122015428D01*
X27822000Y-122174095D02*
X27869619Y-122078857D01*
X27869619Y-121936000D01*
X27822000Y-121793142D01*
X27726761Y-121697904D01*
X27631523Y-121650285D01*
X27441047Y-121602666D01*
X27298190Y-121602666D01*
X27107714Y-121650285D01*
X27012476Y-121697904D01*
X26917238Y-121793142D01*
X26869619Y-121936000D01*
X26869619Y-122031238D01*
X26917238Y-122174095D01*
X26964857Y-122221714D01*
X27298190Y-122221714D01*
X27298190Y-122031238D01*
X26869619Y-122650285D02*
X27869619Y-122650285D01*
X26869619Y-123221714D01*
X27869619Y-123221714D01*
X26869619Y-123697904D02*
X27869619Y-123697904D01*
X27869619Y-123936000D01*
X27822000Y-124078857D01*
X27726761Y-124174095D01*
X27631523Y-124221714D01*
X27441047Y-124269333D01*
X27298190Y-124269333D01*
X27107714Y-124221714D01*
X27012476Y-124174095D01*
X26917238Y-124078857D01*
X26869619Y-123936000D01*
X26869619Y-123697904D01*
X27250571Y-118316476D02*
X27250571Y-119078380D01*
X26869619Y-118697428D02*
X27631523Y-118697428D01*
X27869619Y-119411714D02*
X26869619Y-119745047D01*
X27869619Y-120078380D01*
X27393428Y-115101714D02*
X27393428Y-115435047D01*
X26869619Y-115577904D02*
X26869619Y-115101714D01*
X27869619Y-115101714D01*
X27869619Y-115577904D01*
X26869619Y-111244095D02*
X27869619Y-111244095D01*
X27869619Y-111482190D01*
X27822000Y-111625047D01*
X27726761Y-111720285D01*
X27631523Y-111767904D01*
X27441047Y-111815523D01*
X27298190Y-111815523D01*
X27107714Y-111767904D01*
X27012476Y-111720285D01*
X26917238Y-111625047D01*
X26869619Y-111482190D01*
X26869619Y-111244095D01*
X26964857Y-108005523D02*
X26917238Y-107957904D01*
X26869619Y-107815047D01*
X26869619Y-107719809D01*
X26917238Y-107576952D01*
X27012476Y-107481714D01*
X27107714Y-107434095D01*
X27298190Y-107386476D01*
X27441047Y-107386476D01*
X27631523Y-107434095D01*
X27726761Y-107481714D01*
X27822000Y-107576952D01*
X27869619Y-107719809D01*
X27869619Y-107815047D01*
X27822000Y-107957904D01*
X27774380Y-108005523D01*
D12*
X74009000Y-125068000D02*
X74009000Y-124738000D01*
X67469000Y-125068000D02*
X74009000Y-125068000D01*
X67469000Y-124738000D02*
X67469000Y-125068000D01*
X74009000Y-122328000D02*
X74009000Y-122658000D01*
X67469000Y-122328000D02*
X74009000Y-122328000D01*
X67469000Y-122658000D02*
X67469000Y-122328000D01*
X59786000Y-105424000D02*
X59786000Y-104166000D01*
X61626000Y-105424000D02*
X61626000Y-104166000D01*
X54340000Y-102302000D02*
G75*
G02X52340000Y-102302000I-1000000J0D01*
G01*
X52340000Y-102302000D02*
X50690000Y-102302000D01*
X50690000Y-102302000D02*
X50690000Y-112582000D01*
X50690000Y-112582000D02*
X55990000Y-112582000D01*
X55990000Y-112582000D02*
X55990000Y-102302000D01*
X55990000Y-102302000D02*
X54340000Y-102302000D01*
X48200000Y-102242000D02*
X48200000Y-112642000D01*
X48200000Y-112642000D02*
X58480000Y-112642000D01*
X58480000Y-112642000D02*
X58480000Y-102242000D01*
X58480000Y-102242000D02*
X48200000Y-102242000D01*
X44284000Y-112880000D02*
X44284000Y-110640000D01*
X44284000Y-110640000D02*
X40044000Y-110640000D01*
X40044000Y-110640000D02*
X40044000Y-112880000D01*
X40044000Y-112880000D02*
X44284000Y-112880000D01*
X44934000Y-111760000D02*
X44284000Y-111760000D01*
X39394000Y-111760000D02*
X40044000Y-111760000D01*
X43564000Y-112880000D02*
X43564000Y-110640000D01*
X43444000Y-112880000D02*
X43444000Y-110640000D01*
X43684000Y-112880000D02*
X43684000Y-110640000D01*
X33307000Y-107696000D02*
G75*
G03X33307000Y-107696000I-1430000J0D01*
G01*
X33307000Y-111506000D02*
G75*
G03X33307000Y-111506000I-1430000J0D01*
G01*
X33307000Y-115316000D02*
G75*
G03X33307000Y-115316000I-1430000J0D01*
G01*
X33307000Y-119126000D02*
G75*
G03X33307000Y-119126000I-1430000J0D01*
G01*
X33307000Y-122936000D02*
G75*
G03X33307000Y-122936000I-1430000J0D01*
G01*
X28877000Y-105786000D02*
X28877000Y-124846000D01*
X30176000Y-105786000D02*
X30176000Y-124846000D01*
X33577000Y-105786000D02*
X33577000Y-124846000D01*
X35637000Y-105786000D02*
X35637000Y-124846000D01*
X28217000Y-105786000D02*
X28217000Y-124846000D01*
X35637000Y-105786000D02*
X28217000Y-105786000D01*
X35637000Y-124846000D02*
X28217000Y-124846000D01*
X32787000Y-108781000D02*
X32648000Y-108641000D01*
X30932000Y-106925000D02*
X30792000Y-106785000D01*
X32962000Y-108607000D02*
X32822000Y-108467000D01*
X31106000Y-106750000D02*
X30967000Y-106611000D01*
X35477000Y-106696000D02*
X35477000Y-108696000D01*
X34977000Y-106696000D02*
X34977000Y-108696000D01*
X35477000Y-106696000D02*
X34977000Y-106696000D01*
X35477000Y-108696000D02*
X34977000Y-108696000D01*
X32787000Y-112591000D02*
X32488000Y-112292000D01*
X31091000Y-110896000D02*
X30792000Y-110596000D01*
X32962000Y-112417000D02*
X32663000Y-112117000D01*
X31266000Y-110721000D02*
X30967000Y-110422000D01*
X35477000Y-110506000D02*
X35477000Y-112506000D01*
X34977000Y-110506000D02*
X34977000Y-112506000D01*
X35477000Y-110506000D02*
X34977000Y-110506000D01*
X35477000Y-112506000D02*
X34977000Y-112506000D01*
X32787000Y-116401000D02*
X32488000Y-116102000D01*
X31091000Y-114706000D02*
X30792000Y-114406000D01*
X32962000Y-116227000D02*
X32663000Y-115927000D01*
X31266000Y-114531000D02*
X30967000Y-114232000D01*
X35477000Y-114316000D02*
X35477000Y-116316000D01*
X34977000Y-114316000D02*
X34977000Y-116316000D01*
X35477000Y-114316000D02*
X34977000Y-114316000D01*
X35477000Y-116316000D02*
X34977000Y-116316000D01*
X32787000Y-120211000D02*
X32488000Y-119912000D01*
X31091000Y-118516000D02*
X30792000Y-118216000D01*
X32962000Y-120037000D02*
X32663000Y-119737000D01*
X31266000Y-118341000D02*
X30967000Y-118042000D01*
X35477000Y-118126000D02*
X35477000Y-120126000D01*
X34977000Y-118126000D02*
X34977000Y-120126000D01*
X35477000Y-118126000D02*
X34977000Y-118126000D01*
X35477000Y-120126000D02*
X34977000Y-120126000D01*
X32787000Y-124021000D02*
X32488000Y-123722000D01*
X31091000Y-122326000D02*
X30792000Y-122026000D01*
X32962000Y-123847000D02*
X32663000Y-123547000D01*
X31266000Y-122151000D02*
X30967000Y-121852000D01*
X35477000Y-121936000D02*
X35477000Y-123937000D01*
X34977000Y-121936000D02*
X34977000Y-123937000D01*
X35477000Y-121936000D02*
X34977000Y-121936000D01*
X35477000Y-123937000D02*
X34977000Y-123937000D01*
X28817000Y-105546000D02*
X27977000Y-105546000D01*
X27977000Y-105546000D02*
X27977000Y-106146000D01*
X85180000Y-125086000D02*
X85180000Y-124486000D01*
X84340000Y-125086000D02*
X85180000Y-125086000D01*
X77680000Y-106695000D02*
X78180000Y-106695000D01*
X77680000Y-108696000D02*
X78180000Y-108696000D01*
X78180000Y-108696000D02*
X78180000Y-106695000D01*
X77680000Y-108696000D02*
X77680000Y-106695000D01*
X81891000Y-108481000D02*
X82190000Y-108780000D01*
X80195000Y-106785000D02*
X80494000Y-107085000D01*
X82066000Y-108306000D02*
X82365000Y-108606000D01*
X80370000Y-106611000D02*
X80669000Y-106910000D01*
X77680000Y-110506000D02*
X78180000Y-110506000D01*
X77680000Y-112506000D02*
X78180000Y-112506000D01*
X78180000Y-112506000D02*
X78180000Y-110506000D01*
X77680000Y-112506000D02*
X77680000Y-110506000D01*
X81891000Y-112291000D02*
X82190000Y-112590000D01*
X80195000Y-110595000D02*
X80494000Y-110895000D01*
X82066000Y-112116000D02*
X82365000Y-112416000D01*
X80370000Y-110421000D02*
X80669000Y-110720000D01*
X77680000Y-114316000D02*
X78180000Y-114316000D01*
X77680000Y-116316000D02*
X78180000Y-116316000D01*
X78180000Y-116316000D02*
X78180000Y-114316000D01*
X77680000Y-116316000D02*
X77680000Y-114316000D01*
X81891000Y-116101000D02*
X82190000Y-116400000D01*
X80195000Y-114405000D02*
X80494000Y-114705000D01*
X82066000Y-115926000D02*
X82365000Y-116226000D01*
X80370000Y-114231000D02*
X80669000Y-114530000D01*
X77680000Y-118126000D02*
X78180000Y-118126000D01*
X77680000Y-120126000D02*
X78180000Y-120126000D01*
X78180000Y-120126000D02*
X78180000Y-118126000D01*
X77680000Y-120126000D02*
X77680000Y-118126000D01*
X81891000Y-119911000D02*
X82190000Y-120210000D01*
X80195000Y-118215000D02*
X80494000Y-118515000D01*
X82066000Y-119736000D02*
X82365000Y-120036000D01*
X80370000Y-118041000D02*
X80669000Y-118340000D01*
X77680000Y-121936000D02*
X78180000Y-121936000D01*
X77680000Y-123936000D02*
X78180000Y-123936000D01*
X78180000Y-123936000D02*
X78180000Y-121936000D01*
X77680000Y-123936000D02*
X77680000Y-121936000D01*
X82051000Y-123882000D02*
X82190000Y-124021000D01*
X80195000Y-122025000D02*
X80335000Y-122165000D01*
X82225000Y-123707000D02*
X82365000Y-123847000D01*
X80370000Y-121851000D02*
X80509000Y-121991000D01*
X77520000Y-105786000D02*
X84940000Y-105786000D01*
X77520000Y-124846000D02*
X84940000Y-124846000D01*
X84940000Y-124846000D02*
X84940000Y-105786000D01*
X77520000Y-124846000D02*
X77520000Y-105786000D01*
X79580000Y-124846000D02*
X79580000Y-105786000D01*
X82981000Y-124846000D02*
X82981000Y-105786000D01*
X84280000Y-124846000D02*
X84280000Y-105786000D01*
X82710000Y-107696000D02*
G75*
G03X82710000Y-107696000I-1430000J0D01*
G01*
X82710000Y-111506000D02*
G75*
G03X82710000Y-111506000I-1430000J0D01*
G01*
X82710000Y-115316000D02*
G75*
G03X82710000Y-115316000I-1430000J0D01*
G01*
X82710000Y-119126000D02*
G75*
G03X82710000Y-119126000I-1430000J0D01*
G01*
X82710000Y-122936000D02*
G75*
G03X82710000Y-122936000I-1430000J0D01*
G01*
X65612000Y-123714000D02*
G75*
G03X65612000Y-123714000I-2620000J0D01*
G01*
X64032000Y-123714000D02*
X65572000Y-123714000D01*
X60412000Y-123714000D02*
X61952000Y-123714000D01*
X64032000Y-123674000D02*
X65572000Y-123674000D01*
X60412000Y-123674000D02*
X61952000Y-123674000D01*
X60413000Y-123634000D02*
X61952000Y-123634000D01*
X64032000Y-123634000D02*
X65571000Y-123634000D01*
X60414000Y-123594000D02*
X61952000Y-123594000D01*
X64032000Y-123594000D02*
X65570000Y-123594000D01*
X60416000Y-123554000D02*
X61952000Y-123554000D01*
X64032000Y-123554000D02*
X65568000Y-123554000D01*
X60419000Y-123514000D02*
X61952000Y-123514000D01*
X64032000Y-123514000D02*
X65565000Y-123514000D01*
X60423000Y-123474000D02*
X61952000Y-123474000D01*
X64032000Y-123474000D02*
X65561000Y-123474000D01*
X60427000Y-123434000D02*
X61952000Y-123434000D01*
X64032000Y-123434000D02*
X65557000Y-123434000D01*
X60431000Y-123394000D02*
X61952000Y-123394000D01*
X64032000Y-123394000D02*
X65553000Y-123394000D01*
X60436000Y-123354000D02*
X61952000Y-123354000D01*
X64032000Y-123354000D02*
X65548000Y-123354000D01*
X60442000Y-123314000D02*
X61952000Y-123314000D01*
X64032000Y-123314000D02*
X65542000Y-123314000D01*
X60449000Y-123274000D02*
X61952000Y-123274000D01*
X64032000Y-123274000D02*
X65535000Y-123274000D01*
X60456000Y-123234000D02*
X61952000Y-123234000D01*
X64032000Y-123234000D02*
X65528000Y-123234000D01*
X60464000Y-123194000D02*
X61952000Y-123194000D01*
X64032000Y-123194000D02*
X65520000Y-123194000D01*
X60472000Y-123154000D02*
X61952000Y-123154000D01*
X64032000Y-123154000D02*
X65512000Y-123154000D01*
X60481000Y-123114000D02*
X61952000Y-123114000D01*
X64032000Y-123114000D02*
X65503000Y-123114000D01*
X60491000Y-123074000D02*
X61952000Y-123074000D01*
X64032000Y-123074000D02*
X65493000Y-123074000D01*
X60501000Y-123034000D02*
X61952000Y-123034000D01*
X64032000Y-123034000D02*
X65483000Y-123034000D01*
X60512000Y-122993000D02*
X61952000Y-122993000D01*
X64032000Y-122993000D02*
X65472000Y-122993000D01*
X60524000Y-122953000D02*
X61952000Y-122953000D01*
X64032000Y-122953000D02*
X65460000Y-122953000D01*
X60537000Y-122913000D02*
X61952000Y-122913000D01*
X64032000Y-122913000D02*
X65447000Y-122913000D01*
X60550000Y-122873000D02*
X61952000Y-122873000D01*
X64032000Y-122873000D02*
X65434000Y-122873000D01*
X60564000Y-122833000D02*
X61952000Y-122833000D01*
X64032000Y-122833000D02*
X65420000Y-122833000D01*
X60578000Y-122793000D02*
X61952000Y-122793000D01*
X64032000Y-122793000D02*
X65406000Y-122793000D01*
X60594000Y-122753000D02*
X61952000Y-122753000D01*
X64032000Y-122753000D02*
X65390000Y-122753000D01*
X60610000Y-122713000D02*
X61952000Y-122713000D01*
X64032000Y-122713000D02*
X65374000Y-122713000D01*
X60627000Y-122673000D02*
X61952000Y-122673000D01*
X64032000Y-122673000D02*
X65357000Y-122673000D01*
X60644000Y-122633000D02*
X61952000Y-122633000D01*
X64032000Y-122633000D02*
X65340000Y-122633000D01*
X60663000Y-122593000D02*
X61952000Y-122593000D01*
X64032000Y-122593000D02*
X65321000Y-122593000D01*
X60682000Y-122553000D02*
X61952000Y-122553000D01*
X64032000Y-122553000D02*
X65302000Y-122553000D01*
X60702000Y-122513000D02*
X61952000Y-122513000D01*
X64032000Y-122513000D02*
X65282000Y-122513000D01*
X60724000Y-122473000D02*
X61952000Y-122473000D01*
X64032000Y-122473000D02*
X65260000Y-122473000D01*
X60745000Y-122433000D02*
X61952000Y-122433000D01*
X64032000Y-122433000D02*
X65239000Y-122433000D01*
X60768000Y-122393000D02*
X61952000Y-122393000D01*
X64032000Y-122393000D02*
X65216000Y-122393000D01*
X60792000Y-122353000D02*
X61952000Y-122353000D01*
X64032000Y-122353000D02*
X65192000Y-122353000D01*
X60817000Y-122313000D02*
X61952000Y-122313000D01*
X64032000Y-122313000D02*
X65167000Y-122313000D01*
X60843000Y-122273000D02*
X61952000Y-122273000D01*
X64032000Y-122273000D02*
X65141000Y-122273000D01*
X60870000Y-122233000D02*
X61952000Y-122233000D01*
X64032000Y-122233000D02*
X65114000Y-122233000D01*
X60897000Y-122193000D02*
X61952000Y-122193000D01*
X64032000Y-122193000D02*
X65087000Y-122193000D01*
X60927000Y-122153000D02*
X61952000Y-122153000D01*
X64032000Y-122153000D02*
X65057000Y-122153000D01*
X60957000Y-122113000D02*
X61952000Y-122113000D01*
X64032000Y-122113000D02*
X65027000Y-122113000D01*
X60988000Y-122073000D02*
X61952000Y-122073000D01*
X64032000Y-122073000D02*
X64996000Y-122073000D01*
X61021000Y-122033000D02*
X61952000Y-122033000D01*
X64032000Y-122033000D02*
X64963000Y-122033000D01*
X61055000Y-121993000D02*
X61952000Y-121993000D01*
X64032000Y-121993000D02*
X64929000Y-121993000D01*
X61091000Y-121953000D02*
X61952000Y-121953000D01*
X64032000Y-121953000D02*
X64893000Y-121953000D01*
X61128000Y-121913000D02*
X61952000Y-121913000D01*
X64032000Y-121913000D02*
X64856000Y-121913000D01*
X61166000Y-121873000D02*
X61952000Y-121873000D01*
X64032000Y-121873000D02*
X64818000Y-121873000D01*
X61207000Y-121833000D02*
X61952000Y-121833000D01*
X64032000Y-121833000D02*
X64777000Y-121833000D01*
X61249000Y-121793000D02*
X61952000Y-121793000D01*
X64032000Y-121793000D02*
X64735000Y-121793000D01*
X61293000Y-121753000D02*
X61952000Y-121753000D01*
X64032000Y-121753000D02*
X64691000Y-121753000D01*
X61339000Y-121713000D02*
X61952000Y-121713000D01*
X64032000Y-121713000D02*
X64645000Y-121713000D01*
X61387000Y-121673000D02*
X64597000Y-121673000D01*
X61438000Y-121633000D02*
X64546000Y-121633000D01*
X61492000Y-121593000D02*
X64492000Y-121593000D01*
X61549000Y-121553000D02*
X64435000Y-121553000D01*
X61609000Y-121513000D02*
X64375000Y-121513000D01*
X61673000Y-121473000D02*
X64311000Y-121473000D01*
X61741000Y-121433000D02*
X64243000Y-121433000D01*
X61814000Y-121393000D02*
X64170000Y-121393000D01*
X61894000Y-121353000D02*
X64090000Y-121353000D01*
X61981000Y-121313000D02*
X64003000Y-121313000D01*
X62077000Y-121273000D02*
X63907000Y-121273000D01*
X62187000Y-121233000D02*
X63797000Y-121233000D01*
X62315000Y-121193000D02*
X63669000Y-121193000D01*
X62474000Y-121153000D02*
X63510000Y-121153000D01*
X62708000Y-121113000D02*
X63276000Y-121113000D01*
X61517000Y-126518775D02*
X61517000Y-126018775D01*
X61267000Y-126268775D02*
X61767000Y-126268775D01*
X47848000Y-122287000D02*
X47848000Y-123545000D01*
X49688000Y-122287000D02*
X49688000Y-123545000D01*
X58070000Y-122287000D02*
X58070000Y-123545000D01*
X56230000Y-122287000D02*
X56230000Y-123545000D01*
X43684000Y-117960000D02*
X43684000Y-115720000D01*
X43444000Y-117960000D02*
X43444000Y-115720000D01*
X43564000Y-117960000D02*
X43564000Y-115720000D01*
X39394000Y-116840000D02*
X40044000Y-116840000D01*
X44934000Y-116840000D02*
X44284000Y-116840000D01*
X40044000Y-117960000D02*
X44284000Y-117960000D01*
X40044000Y-115720000D02*
X40044000Y-117960000D01*
X44284000Y-115720000D02*
X40044000Y-115720000D01*
X44284000Y-117960000D02*
X44284000Y-115720000D01*
X44884000Y-123006000D02*
X44884000Y-123136000D01*
X44884000Y-123136000D02*
X39444000Y-123136000D01*
X39444000Y-123136000D02*
X39444000Y-123006000D01*
X44884000Y-120326000D02*
X44884000Y-120196000D01*
X44884000Y-120196000D02*
X39444000Y-120196000D01*
X39444000Y-120196000D02*
X39444000Y-120326000D01*
X43984000Y-123136000D02*
X43984000Y-120196000D01*
X43864000Y-123136000D02*
X43864000Y-120196000D01*
X44104000Y-123136000D02*
X44104000Y-120196000D01*
X45434000Y-108228000D02*
X45434000Y-108558000D01*
X45434000Y-108558000D02*
X38894000Y-108558000D01*
X38894000Y-108558000D02*
X38894000Y-108228000D01*
X45434000Y-106148000D02*
X45434000Y-105818000D01*
X45434000Y-105818000D02*
X38894000Y-105818000D01*
X38894000Y-105818000D02*
X38894000Y-106148000D01*
X62127000Y-110268000D02*
X62457000Y-110268000D01*
X62457000Y-110268000D02*
X62457000Y-116808000D01*
X62457000Y-116808000D02*
X62127000Y-116808000D01*
X60047000Y-110268000D02*
X59717000Y-110268000D01*
X59717000Y-110268000D02*
X59717000Y-116808000D01*
X59717000Y-116808000D02*
X60047000Y-116808000D01*
X52340000Y-118678000D02*
G75*
G02X54340000Y-118678000I1000000J0D01*
G01*
X54340000Y-118678000D02*
X55990000Y-118678000D01*
X55990000Y-118678000D02*
X55990000Y-113478000D01*
X55990000Y-113478000D02*
X50690000Y-113478000D01*
X50690000Y-113478000D02*
X50690000Y-118678000D01*
X50690000Y-118678000D02*
X52340000Y-118678000D01*
X58480000Y-118738000D02*
X58480000Y-113418000D01*
X58480000Y-113418000D02*
X48200000Y-113418000D01*
X48200000Y-113418000D02*
X48200000Y-118738000D01*
X48200000Y-118738000D02*
X58480000Y-118738000D01*
X67834000Y-120075000D02*
G75*
G02X69834000Y-120075000I1000000J0D01*
G01*
X69834000Y-120075000D02*
X71484000Y-120075000D01*
X71484000Y-120075000D02*
X71484000Y-102175000D01*
X71484000Y-102175000D02*
X66184000Y-102175000D01*
X66184000Y-102175000D02*
X66184000Y-120075000D01*
X66184000Y-120075000D02*
X67834000Y-120075000D01*
X73974000Y-120135000D02*
X73974000Y-102115000D01*
X73974000Y-102115000D02*
X63694000Y-102115000D01*
X63694000Y-102115000D02*
X63694000Y-120135000D01*
X63694000Y-120135000D02*
X73974000Y-120135000D01*
X54632000Y-119816000D02*
X51032000Y-119816000D01*
X54670478Y-119827522D02*
G75*
G02X52832000Y-124266000I-1838478J-1838478D01*
G01*
X50993522Y-119827522D02*
G75*
G03X52832000Y-124266000I1838478J-1838478D01*
G01*
D11*
X68921333Y-124277380D02*
X68588000Y-123801190D01*
X68349904Y-124277380D02*
X68349904Y-123277380D01*
X68730857Y-123277380D01*
X68826095Y-123325000D01*
X68873714Y-123372619D01*
X68921333Y-123467857D01*
X68921333Y-123610714D01*
X68873714Y-123705952D01*
X68826095Y-123753571D01*
X68730857Y-123801190D01*
X68349904Y-123801190D01*
X69254666Y-123277380D02*
X69873714Y-123277380D01*
X69540380Y-123658333D01*
X69683238Y-123658333D01*
X69778476Y-123705952D01*
X69826095Y-123753571D01*
X69873714Y-123848809D01*
X69873714Y-124086904D01*
X69826095Y-124182142D01*
X69778476Y-124229761D01*
X69683238Y-124277380D01*
X69397523Y-124277380D01*
X69302285Y-124229761D01*
X69254666Y-124182142D01*
X62571333Y-103354142D02*
X62523714Y-103401761D01*
X62380857Y-103449380D01*
X62285619Y-103449380D01*
X62142761Y-103401761D01*
X62047523Y-103306523D01*
X61999904Y-103211285D01*
X61952285Y-103020809D01*
X61952285Y-102877952D01*
X61999904Y-102687476D01*
X62047523Y-102592238D01*
X62142761Y-102497000D01*
X62285619Y-102449380D01*
X62380857Y-102449380D01*
X62523714Y-102497000D01*
X62571333Y-102544619D01*
X63523714Y-103449380D02*
X62952285Y-103449380D01*
X63238000Y-103449380D02*
X63238000Y-102449380D01*
X63142761Y-102592238D01*
X63047523Y-102687476D01*
X62952285Y-102735095D01*
X52705095Y-106386380D02*
X52705095Y-107195904D01*
X52752714Y-107291142D01*
X52800333Y-107338761D01*
X52895571Y-107386380D01*
X53086047Y-107386380D01*
X53181285Y-107338761D01*
X53228904Y-107291142D01*
X53276523Y-107195904D01*
X53276523Y-106386380D01*
X54276523Y-107386380D02*
X53705095Y-107386380D01*
X53990809Y-107386380D02*
X53990809Y-106386380D01*
X53895571Y-106529238D01*
X53800333Y-106624476D01*
X53705095Y-106672095D01*
X41679904Y-110561380D02*
X41679904Y-109561380D01*
X41918000Y-109561380D01*
X42060857Y-109609000D01*
X42156095Y-109704238D01*
X42203714Y-109799476D01*
X42251333Y-109989952D01*
X42251333Y-110132809D01*
X42203714Y-110323285D01*
X42156095Y-110418523D01*
X42060857Y-110513761D01*
X41918000Y-110561380D01*
X41679904Y-110561380D01*
X43203714Y-110561380D02*
X42632285Y-110561380D01*
X42918000Y-110561380D02*
X42918000Y-109561380D01*
X42822761Y-109704238D01*
X42727523Y-109799476D01*
X42632285Y-109847095D01*
X33488380Y-105235333D02*
X34202666Y-105235333D01*
X34345523Y-105282952D01*
X34440761Y-105378190D01*
X34488380Y-105521047D01*
X34488380Y-105616285D01*
X34488380Y-104235333D02*
X34488380Y-104806761D01*
X34488380Y-104521047D02*
X33488380Y-104521047D01*
X33631238Y-104616285D01*
X33726476Y-104711523D01*
X33774095Y-104806761D01*
X30563523Y-129325380D02*
X30230190Y-128849190D01*
X29992095Y-129325380D02*
X29992095Y-128325380D01*
X30373047Y-128325380D01*
X30468285Y-128373000D01*
X30515904Y-128420619D01*
X30563523Y-128515857D01*
X30563523Y-128658714D01*
X30515904Y-128753952D01*
X30468285Y-128801571D01*
X30373047Y-128849190D01*
X29992095Y-128849190D01*
X83563523Y-129706380D02*
X83230190Y-129230190D01*
X82992095Y-129706380D02*
X82992095Y-128706380D01*
X83373047Y-128706380D01*
X83468285Y-128754000D01*
X83515904Y-128801619D01*
X83563523Y-128896857D01*
X83563523Y-129039714D01*
X83515904Y-129134952D01*
X83468285Y-129182571D01*
X83373047Y-129230190D01*
X82992095Y-129230190D01*
X83690523Y-102452380D02*
X83357190Y-101976190D01*
X83119095Y-102452380D02*
X83119095Y-101452380D01*
X83500047Y-101452380D01*
X83595285Y-101500000D01*
X83642904Y-101547619D01*
X83690523Y-101642857D01*
X83690523Y-101785714D01*
X83642904Y-101880952D01*
X83595285Y-101928571D01*
X83500047Y-101976190D01*
X83119095Y-101976190D01*
X79208380Y-126571333D02*
X79922666Y-126571333D01*
X80065523Y-126618952D01*
X80160761Y-126714190D01*
X80208380Y-126857047D01*
X80208380Y-126952285D01*
X79303619Y-126142761D02*
X79256000Y-126095142D01*
X79208380Y-125999904D01*
X79208380Y-125761809D01*
X79256000Y-125666571D01*
X79303619Y-125618952D01*
X79398857Y-125571333D01*
X79494095Y-125571333D01*
X79636952Y-125618952D01*
X80208380Y-126190380D01*
X80208380Y-125571333D01*
X61833333Y-127357142D02*
X61785714Y-127404761D01*
X61642857Y-127452380D01*
X61547619Y-127452380D01*
X61404761Y-127404761D01*
X61309523Y-127309523D01*
X61261904Y-127214285D01*
X61214285Y-127023809D01*
X61214285Y-126880952D01*
X61261904Y-126690476D01*
X61309523Y-126595238D01*
X61404761Y-126500000D01*
X61547619Y-126452380D01*
X61642857Y-126452380D01*
X61785714Y-126500000D01*
X61833333Y-126547619D01*
X62214285Y-126547619D02*
X62261904Y-126500000D01*
X62357142Y-126452380D01*
X62595238Y-126452380D01*
X62690476Y-126500000D01*
X62738095Y-126547619D01*
X62785714Y-126642857D01*
X62785714Y-126738095D01*
X62738095Y-126880952D01*
X62166666Y-127452380D01*
X62785714Y-127452380D01*
X63976190Y-127071428D02*
X64738095Y-127071428D01*
X64357142Y-127452380D02*
X64357142Y-126690476D01*
X48220333Y-126595142D02*
X48172714Y-126642761D01*
X48029857Y-126690380D01*
X47934619Y-126690380D01*
X47791761Y-126642761D01*
X47696523Y-126547523D01*
X47648904Y-126452285D01*
X47601285Y-126261809D01*
X47601285Y-126118952D01*
X47648904Y-125928476D01*
X47696523Y-125833238D01*
X47791761Y-125738000D01*
X47934619Y-125690380D01*
X48029857Y-125690380D01*
X48172714Y-125738000D01*
X48220333Y-125785619D01*
X48553666Y-125690380D02*
X49172714Y-125690380D01*
X48839380Y-126071333D01*
X48982238Y-126071333D01*
X49077476Y-126118952D01*
X49125095Y-126166571D01*
X49172714Y-126261809D01*
X49172714Y-126499904D01*
X49125095Y-126595142D01*
X49077476Y-126642761D01*
X48982238Y-126690380D01*
X48696523Y-126690380D01*
X48601285Y-126642761D01*
X48553666Y-126595142D01*
X57237333Y-126468142D02*
X57189714Y-126515761D01*
X57046857Y-126563380D01*
X56951619Y-126563380D01*
X56808761Y-126515761D01*
X56713523Y-126420523D01*
X56665904Y-126325285D01*
X56618285Y-126134809D01*
X56618285Y-125991952D01*
X56665904Y-125801476D01*
X56713523Y-125706238D01*
X56808761Y-125611000D01*
X56951619Y-125563380D01*
X57046857Y-125563380D01*
X57189714Y-125611000D01*
X57237333Y-125658619D01*
X58094476Y-125896714D02*
X58094476Y-126563380D01*
X57856380Y-125515761D02*
X57618285Y-126230047D01*
X58237333Y-126230047D01*
X41171904Y-115387380D02*
X41171904Y-114387380D01*
X41410000Y-114387380D01*
X41552857Y-114435000D01*
X41648095Y-114530238D01*
X41695714Y-114625476D01*
X41743333Y-114815952D01*
X41743333Y-114958809D01*
X41695714Y-115149285D01*
X41648095Y-115244523D01*
X41552857Y-115339761D01*
X41410000Y-115387380D01*
X41171904Y-115387380D01*
X42124285Y-114482619D02*
X42171904Y-114435000D01*
X42267142Y-114387380D01*
X42505238Y-114387380D01*
X42600476Y-114435000D01*
X42648095Y-114482619D01*
X42695714Y-114577857D01*
X42695714Y-114673095D01*
X42648095Y-114815952D01*
X42076666Y-115387380D01*
X42695714Y-115387380D01*
X41298904Y-124658380D02*
X41298904Y-123658380D01*
X41537000Y-123658380D01*
X41679857Y-123706000D01*
X41775095Y-123801238D01*
X41822714Y-123896476D01*
X41870333Y-124086952D01*
X41870333Y-124229809D01*
X41822714Y-124420285D01*
X41775095Y-124515523D01*
X41679857Y-124610761D01*
X41537000Y-124658380D01*
X41298904Y-124658380D01*
X42203666Y-123658380D02*
X42822714Y-123658380D01*
X42489380Y-124039333D01*
X42632238Y-124039333D01*
X42727476Y-124086952D01*
X42775095Y-124134571D01*
X42822714Y-124229809D01*
X42822714Y-124467904D01*
X42775095Y-124563142D01*
X42727476Y-124610761D01*
X42632238Y-124658380D01*
X42346523Y-124658380D01*
X42251285Y-124610761D01*
X42203666Y-124563142D01*
X42251333Y-105608380D02*
X41918000Y-105132190D01*
X41679904Y-105608380D02*
X41679904Y-104608380D01*
X42060857Y-104608380D01*
X42156095Y-104656000D01*
X42203714Y-104703619D01*
X42251333Y-104798857D01*
X42251333Y-104941714D01*
X42203714Y-105036952D01*
X42156095Y-105084571D01*
X42060857Y-105132190D01*
X41679904Y-105132190D01*
X43203714Y-105608380D02*
X42632285Y-105608380D01*
X42918000Y-105608380D02*
X42918000Y-104608380D01*
X42822761Y-104751238D01*
X42727523Y-104846476D01*
X42632285Y-104894095D01*
X60920333Y-115895380D02*
X60587000Y-115419190D01*
X60348904Y-115895380D02*
X60348904Y-114895380D01*
X60729857Y-114895380D01*
X60825095Y-114943000D01*
X60872714Y-114990619D01*
X60920333Y-115085857D01*
X60920333Y-115228714D01*
X60872714Y-115323952D01*
X60825095Y-115371571D01*
X60729857Y-115419190D01*
X60348904Y-115419190D01*
X61301285Y-114990619D02*
X61348904Y-114943000D01*
X61444142Y-114895380D01*
X61682238Y-114895380D01*
X61777476Y-114943000D01*
X61825095Y-114990619D01*
X61872714Y-115085857D01*
X61872714Y-115181095D01*
X61825095Y-115323952D01*
X61253666Y-115895380D01*
X61872714Y-115895380D01*
X52578095Y-113752380D02*
X52578095Y-114561904D01*
X52625714Y-114657142D01*
X52673333Y-114704761D01*
X52768571Y-114752380D01*
X52959047Y-114752380D01*
X53054285Y-114704761D01*
X53101904Y-114657142D01*
X53149523Y-114561904D01*
X53149523Y-113752380D01*
X53578095Y-113847619D02*
X53625714Y-113800000D01*
X53720952Y-113752380D01*
X53959047Y-113752380D01*
X54054285Y-113800000D01*
X54101904Y-113847619D01*
X54149523Y-113942857D01*
X54149523Y-114038095D01*
X54101904Y-114180952D01*
X53530476Y-114752380D01*
X54149523Y-114752380D01*
X68199095Y-116546380D02*
X68199095Y-117355904D01*
X68246714Y-117451142D01*
X68294333Y-117498761D01*
X68389571Y-117546380D01*
X68580047Y-117546380D01*
X68675285Y-117498761D01*
X68722904Y-117451142D01*
X68770523Y-117355904D01*
X68770523Y-116546380D01*
X69151476Y-116546380D02*
X69770523Y-116546380D01*
X69437190Y-116927333D01*
X69580047Y-116927333D01*
X69675285Y-116974952D01*
X69722904Y-117022571D01*
X69770523Y-117117809D01*
X69770523Y-117355904D01*
X69722904Y-117451142D01*
X69675285Y-117498761D01*
X69580047Y-117546380D01*
X69294333Y-117546380D01*
X69199095Y-117498761D01*
X69151476Y-117451142D01*
X52070095Y-118451380D02*
X52070095Y-119260904D01*
X52117714Y-119356142D01*
X52165333Y-119403761D01*
X52260571Y-119451380D01*
X52451047Y-119451380D01*
X52546285Y-119403761D01*
X52593904Y-119356142D01*
X52641523Y-119260904D01*
X52641523Y-118451380D01*
X53546285Y-118784714D02*
X53546285Y-119451380D01*
X53308190Y-118403761D02*
X53070095Y-119118047D01*
X53689142Y-119118047D01*
M02*
